%TF.GenerationSoftware,KiCad,Pcbnew,8.0.5*%
%TF.CreationDate,2024-10-30T13:21:34-05:00*%
%TF.ProjectId,bidirectional_load_switch,62696469-7265-4637-9469-6f6e616c5f6c,0.2.0*%
%TF.SameCoordinates,Original*%
%TF.FileFunction,Drillmap*%
%TF.FilePolarity,Positive*%
%FSLAX45Y45*%
G04 Gerber Fmt 4.5, Leading zero omitted, Abs format (unit mm)*
G04 Created by KiCad (PCBNEW 8.0.5) date 2024-10-30 13:21:34*
%MOMM*%
%LPD*%
G01*
G04 APERTURE LIST*
%ADD10C,0.254000*%
%ADD11C,0.200000*%
%ADD12C,0.100000*%
%ADD13C,0.140000*%
G04 APERTURE END LIST*
D10*
X7644606Y-11690001D02*
G75*
G02*
X7424606Y-11690001I-110000J0D01*
G01*
X7424606Y-11690001D02*
G75*
G02*
X7644606Y-11690001I110000J0D01*
G01*
X6719803Y-6515000D02*
G75*
G02*
X6499803Y-6515000I-110000J0D01*
G01*
X6499803Y-6515000D02*
G75*
G02*
X6719803Y-6515000I110000J0D01*
G01*
X6209803Y-6115000D02*
X23859803Y-6115000D01*
X23859803Y-12865000D01*
X6209803Y-12865000D01*
X6209803Y-6115000D01*
X23569803Y-6515000D02*
G75*
G02*
X23349803Y-6515000I-110000J0D01*
G01*
X23349803Y-6515000D02*
G75*
G02*
X23569803Y-6515000I110000J0D01*
G01*
X23569803Y-12465000D02*
G75*
G02*
X23349803Y-12465000I-110000J0D01*
G01*
X23349803Y-12465000D02*
G75*
G02*
X23569803Y-12465000I110000J0D01*
G01*
D11*
D12*
X6740000Y-7829580D02*
X6770000Y-7859580D01*
X6770000Y-7829580D02*
X6740000Y-7859580D01*
X6810400Y-7829580D02*
X6840400Y-7859580D01*
X6840400Y-7829580D02*
X6810400Y-7859580D01*
X7044926Y-9088394D02*
X7074926Y-9118394D01*
X7074926Y-9088394D02*
X7044926Y-9118394D01*
X7179276Y-8954044D02*
X7209276Y-8984044D01*
X7209276Y-8954044D02*
X7179276Y-8984044D01*
X7220000Y-10240000D02*
X7250000Y-10270000D01*
X7250000Y-10240000D02*
X7220000Y-10270000D01*
X7220000Y-10315000D02*
X7250000Y-10345000D01*
X7250000Y-10315000D02*
X7220000Y-10345000D01*
X7220000Y-10390000D02*
X7250000Y-10420000D01*
X7250000Y-10390000D02*
X7220000Y-10420000D01*
X7295000Y-10240000D02*
X7325000Y-10270000D01*
X7325000Y-10240000D02*
X7295000Y-10270000D01*
X7590000Y-9200000D02*
X7620000Y-9230000D01*
X7620000Y-9200000D02*
X7590000Y-9230000D01*
X7590000Y-9275000D02*
X7620000Y-9305000D01*
X7620000Y-9275000D02*
X7590000Y-9305000D01*
X7590000Y-9350000D02*
X7620000Y-9380000D01*
X7620000Y-9350000D02*
X7590000Y-9380000D01*
X7665000Y-9350000D02*
X7695000Y-9380000D01*
X7695000Y-9350000D02*
X7665000Y-9380000D01*
X7835000Y-9810000D02*
X7865000Y-9840000D01*
X7865000Y-9810000D02*
X7835000Y-9840000D01*
X7905000Y-9810000D02*
X7935000Y-9840000D01*
X7935000Y-9810000D02*
X7905000Y-9840000D01*
X8034160Y-10826660D02*
X8064160Y-10856660D01*
X8064160Y-10826660D02*
X8034160Y-10856660D01*
X8129160Y-10826660D02*
X8159160Y-10856660D01*
X8159160Y-10826660D02*
X8129160Y-10856660D01*
X8129160Y-10966660D02*
X8159160Y-10996660D01*
X8159160Y-10966660D02*
X8129160Y-10996660D01*
X8130000Y-11107500D02*
X8160000Y-11137500D01*
X8160000Y-11107500D02*
X8130000Y-11137500D01*
X8130000Y-11247500D02*
X8160000Y-11277500D01*
X8160000Y-11247500D02*
X8130000Y-11277500D01*
X8210000Y-9320000D02*
X8240000Y-9350000D01*
X8240000Y-9320000D02*
X8210000Y-9350000D01*
X8224160Y-10826660D02*
X8254160Y-10856660D01*
X8254160Y-10826660D02*
X8224160Y-10856660D01*
X8224160Y-10966660D02*
X8254160Y-10996660D01*
X8254160Y-10966660D02*
X8224160Y-10996660D01*
X8224160Y-11106660D02*
X8254160Y-11136660D01*
X8254160Y-11106660D02*
X8224160Y-11136660D01*
X8224160Y-11246660D02*
X8254160Y-11276660D01*
X8254160Y-11246660D02*
X8224160Y-11276660D01*
X8225000Y-11387500D02*
X8255000Y-11417500D01*
X8255000Y-11387500D02*
X8225000Y-11417500D01*
X8280000Y-9320000D02*
X8310000Y-9350000D01*
X8310000Y-9320000D02*
X8280000Y-9350000D01*
X8319160Y-10826660D02*
X8349160Y-10856660D01*
X8349160Y-10826660D02*
X8319160Y-10856660D01*
X8319160Y-10966660D02*
X8349160Y-10996660D01*
X8349160Y-10966660D02*
X8319160Y-10996660D01*
X8319160Y-11106660D02*
X8349160Y-11136660D01*
X8349160Y-11106660D02*
X8319160Y-11136660D01*
X8319160Y-11246660D02*
X8349160Y-11276660D01*
X8349160Y-11246660D02*
X8319160Y-11276660D01*
X8319160Y-11386660D02*
X8349160Y-11416660D01*
X8349160Y-11386660D02*
X8319160Y-11416660D01*
X8414160Y-10826660D02*
X8444160Y-10856660D01*
X8444160Y-10826660D02*
X8414160Y-10856660D01*
X8414160Y-11246660D02*
X8444160Y-11276660D01*
X8444160Y-11246660D02*
X8414160Y-11276660D01*
X8414160Y-11386660D02*
X8444160Y-11416660D01*
X8444160Y-11386660D02*
X8414160Y-11416660D01*
X8509160Y-11246660D02*
X8539160Y-11276660D01*
X8539160Y-11246660D02*
X8509160Y-11276660D01*
X8509160Y-11386660D02*
X8539160Y-11416660D01*
X8539160Y-11386660D02*
X8509160Y-11416660D01*
X9040000Y-9775000D02*
X9070000Y-9805000D01*
X9070000Y-9775000D02*
X9040000Y-9805000D01*
X9040000Y-9860000D02*
X9070000Y-9890000D01*
X9070000Y-9860000D02*
X9040000Y-9890000D01*
X9125000Y-9775000D02*
X9155000Y-9805000D01*
X9155000Y-9775000D02*
X9125000Y-9805000D01*
X9125000Y-9860000D02*
X9155000Y-9890000D01*
X9155000Y-9860000D02*
X9125000Y-9890000D01*
X9130000Y-11150000D02*
X9160000Y-11180000D01*
X9160000Y-11150000D02*
X9130000Y-11180000D01*
X9130000Y-11215000D02*
X9160000Y-11245000D01*
X9160000Y-11215000D02*
X9130000Y-11245000D01*
X9130000Y-11280000D02*
X9160000Y-11310000D01*
X9160000Y-11280000D02*
X9130000Y-11310000D01*
X9130000Y-11345000D02*
X9160000Y-11375000D01*
X9160000Y-11345000D02*
X9130000Y-11375000D01*
X9210000Y-9775000D02*
X9240000Y-9805000D01*
X9240000Y-9775000D02*
X9210000Y-9805000D01*
X9210000Y-9860000D02*
X9240000Y-9890000D01*
X9240000Y-9860000D02*
X9210000Y-9890000D01*
X9265000Y-10845000D02*
X9295000Y-10875000D01*
X9295000Y-10845000D02*
X9265000Y-10875000D01*
X9265000Y-10910000D02*
X9295000Y-10940000D01*
X9295000Y-10910000D02*
X9265000Y-10940000D01*
X9265000Y-10975000D02*
X9295000Y-11005000D01*
X9295000Y-10975000D02*
X9265000Y-11005000D01*
X9295000Y-9775000D02*
X9325000Y-9805000D01*
X9325000Y-9775000D02*
X9295000Y-9805000D01*
X9295000Y-9860000D02*
X9325000Y-9890000D01*
X9325000Y-9860000D02*
X9295000Y-9890000D01*
X9330000Y-10845000D02*
X9360000Y-10875000D01*
X9360000Y-10845000D02*
X9330000Y-10875000D01*
X9330000Y-10910000D02*
X9360000Y-10940000D01*
X9360000Y-10910000D02*
X9330000Y-10940000D01*
X9330000Y-10975000D02*
X9360000Y-11005000D01*
X9360000Y-10975000D02*
X9330000Y-11005000D01*
X9380000Y-9775000D02*
X9410000Y-9805000D01*
X9410000Y-9775000D02*
X9380000Y-9805000D01*
X9380000Y-9860000D02*
X9410000Y-9890000D01*
X9410000Y-9860000D02*
X9380000Y-9890000D01*
X9395000Y-10845000D02*
X9425000Y-10875000D01*
X9425000Y-10845000D02*
X9395000Y-10875000D01*
X9395000Y-10910000D02*
X9425000Y-10940000D01*
X9425000Y-10910000D02*
X9395000Y-10940000D01*
X9395000Y-10975000D02*
X9425000Y-11005000D01*
X9425000Y-10975000D02*
X9395000Y-11005000D01*
X9660000Y-8630000D02*
X9690000Y-8660000D01*
X9690000Y-8630000D02*
X9660000Y-8660000D01*
X9660000Y-8705000D02*
X9690000Y-8735000D01*
X9690000Y-8705000D02*
X9660000Y-8735000D01*
X9660000Y-8780000D02*
X9690000Y-8810000D01*
X9690000Y-8780000D02*
X9660000Y-8810000D01*
X9660000Y-8855000D02*
X9690000Y-8885000D01*
X9690000Y-8855000D02*
X9660000Y-8885000D01*
X9735000Y-8630000D02*
X9765000Y-8660000D01*
X9765000Y-8630000D02*
X9735000Y-8660000D01*
X9735000Y-8705000D02*
X9765000Y-8735000D01*
X9765000Y-8705000D02*
X9735000Y-8735000D01*
X9735000Y-8780000D02*
X9765000Y-8810000D01*
X9765000Y-8780000D02*
X9735000Y-8810000D01*
X9735000Y-8855000D02*
X9765000Y-8885000D01*
X9765000Y-8855000D02*
X9735000Y-8885000D01*
X9745000Y-11545000D02*
X9775000Y-11575000D01*
X9775000Y-11545000D02*
X9745000Y-11575000D01*
X9745000Y-11615000D02*
X9775000Y-11645000D01*
X9775000Y-11615000D02*
X9745000Y-11645000D01*
X9915000Y-9315000D02*
X9945000Y-9345000D01*
X9945000Y-9315000D02*
X9915000Y-9345000D01*
X9915000Y-9465000D02*
X9945000Y-9495000D01*
X9945000Y-9465000D02*
X9915000Y-9495000D01*
X9915000Y-9615000D02*
X9945000Y-9645000D01*
X9945000Y-9615000D02*
X9915000Y-9645000D01*
X9985000Y-7065000D02*
X10015000Y-7095000D01*
X10015000Y-7065000D02*
X9985000Y-7095000D01*
X9985000Y-7175000D02*
X10015000Y-7205000D01*
X10015000Y-7175000D02*
X9985000Y-7205000D01*
X9985000Y-7285000D02*
X10015000Y-7315000D01*
X10015000Y-7285000D02*
X9985000Y-7315000D01*
X9985000Y-7395000D02*
X10015000Y-7425000D01*
X10015000Y-7395000D02*
X9985000Y-7425000D01*
X9985000Y-7510000D02*
X10015000Y-7540000D01*
X10015000Y-7510000D02*
X9985000Y-7540000D01*
X9985000Y-7620000D02*
X10015000Y-7650000D01*
X10015000Y-7620000D02*
X9985000Y-7650000D01*
X10055000Y-9315000D02*
X10085000Y-9345000D01*
X10085000Y-9315000D02*
X10055000Y-9345000D01*
X10055000Y-9465000D02*
X10085000Y-9495000D01*
X10085000Y-9465000D02*
X10055000Y-9495000D01*
X10055000Y-9615000D02*
X10085000Y-9645000D01*
X10085000Y-9615000D02*
X10055000Y-9645000D01*
X10100000Y-7065000D02*
X10130000Y-7095000D01*
X10130000Y-7065000D02*
X10100000Y-7095000D01*
X10100000Y-7175000D02*
X10130000Y-7205000D01*
X10130000Y-7175000D02*
X10100000Y-7205000D01*
X10100000Y-7285000D02*
X10130000Y-7315000D01*
X10130000Y-7285000D02*
X10100000Y-7315000D01*
X10100000Y-7395000D02*
X10130000Y-7425000D01*
X10130000Y-7395000D02*
X10100000Y-7425000D01*
X10100000Y-7510000D02*
X10130000Y-7540000D01*
X10130000Y-7510000D02*
X10100000Y-7540000D01*
X10100000Y-7620000D02*
X10130000Y-7650000D01*
X10130000Y-7620000D02*
X10100000Y-7650000D01*
X10140000Y-11145000D02*
X10170000Y-11175000D01*
X10170000Y-11145000D02*
X10140000Y-11175000D01*
X10140000Y-11210000D02*
X10170000Y-11240000D01*
X10170000Y-11210000D02*
X10140000Y-11240000D01*
X10140000Y-11275000D02*
X10170000Y-11305000D01*
X10170000Y-11275000D02*
X10140000Y-11305000D01*
X10140000Y-11340000D02*
X10170000Y-11370000D01*
X10170000Y-11340000D02*
X10140000Y-11370000D01*
X10185000Y-9165000D02*
X10215000Y-9195000D01*
X10215000Y-9165000D02*
X10185000Y-9195000D01*
X10190000Y-9015000D02*
X10220000Y-9045000D01*
X10220000Y-9015000D02*
X10190000Y-9045000D01*
X10195000Y-9315000D02*
X10225000Y-9345000D01*
X10225000Y-9315000D02*
X10195000Y-9345000D01*
X10195000Y-9465000D02*
X10225000Y-9495000D01*
X10225000Y-9465000D02*
X10195000Y-9495000D01*
X10195000Y-9615000D02*
X10225000Y-9645000D01*
X10225000Y-9615000D02*
X10195000Y-9645000D01*
X10215000Y-7065000D02*
X10245000Y-7095000D01*
X10245000Y-7065000D02*
X10215000Y-7095000D01*
X10215000Y-7175000D02*
X10245000Y-7205000D01*
X10245000Y-7175000D02*
X10215000Y-7205000D01*
X10215000Y-7285000D02*
X10245000Y-7315000D01*
X10245000Y-7285000D02*
X10215000Y-7315000D01*
X10215000Y-7395000D02*
X10245000Y-7425000D01*
X10245000Y-7395000D02*
X10215000Y-7425000D01*
X10215000Y-7510000D02*
X10245000Y-7540000D01*
X10245000Y-7510000D02*
X10215000Y-7540000D01*
X10215000Y-7620000D02*
X10245000Y-7650000D01*
X10245000Y-7620000D02*
X10215000Y-7650000D01*
X10270000Y-8875000D02*
X10300000Y-8905000D01*
X10300000Y-8875000D02*
X10270000Y-8905000D01*
X10330000Y-7065000D02*
X10360000Y-7095000D01*
X10360000Y-7065000D02*
X10330000Y-7095000D01*
X10330000Y-7175000D02*
X10360000Y-7205000D01*
X10360000Y-7175000D02*
X10330000Y-7205000D01*
X10330000Y-7285000D02*
X10360000Y-7315000D01*
X10360000Y-7285000D02*
X10330000Y-7315000D01*
X10330000Y-7395000D02*
X10360000Y-7425000D01*
X10360000Y-7395000D02*
X10330000Y-7425000D01*
X10330000Y-7510000D02*
X10360000Y-7540000D01*
X10360000Y-7510000D02*
X10330000Y-7540000D01*
X10330000Y-7620000D02*
X10360000Y-7650000D01*
X10360000Y-7620000D02*
X10330000Y-7650000D01*
X10335000Y-9315000D02*
X10365000Y-9345000D01*
X10365000Y-9315000D02*
X10335000Y-9345000D01*
X10335000Y-9465000D02*
X10365000Y-9495000D01*
X10365000Y-9465000D02*
X10335000Y-9495000D01*
X10335000Y-9615000D02*
X10365000Y-9645000D01*
X10365000Y-9615000D02*
X10335000Y-9645000D01*
X10340000Y-9015000D02*
X10370000Y-9045000D01*
X10370000Y-9015000D02*
X10340000Y-9045000D01*
X10340000Y-9165000D02*
X10370000Y-9195000D01*
X10370000Y-9165000D02*
X10340000Y-9195000D01*
X10445000Y-7065000D02*
X10475000Y-7095000D01*
X10475000Y-7065000D02*
X10445000Y-7095000D01*
X10445000Y-7175000D02*
X10475000Y-7205000D01*
X10475000Y-7175000D02*
X10445000Y-7205000D01*
X10445000Y-7285000D02*
X10475000Y-7315000D01*
X10475000Y-7285000D02*
X10445000Y-7315000D01*
X10445000Y-7395000D02*
X10475000Y-7425000D01*
X10475000Y-7395000D02*
X10445000Y-7425000D01*
X10445000Y-7510000D02*
X10475000Y-7540000D01*
X10475000Y-7510000D02*
X10445000Y-7540000D01*
X10445000Y-7620000D02*
X10475000Y-7650000D01*
X10475000Y-7620000D02*
X10445000Y-7650000D01*
X10475000Y-9315000D02*
X10505000Y-9345000D01*
X10505000Y-9315000D02*
X10475000Y-9345000D01*
X10475000Y-9465000D02*
X10505000Y-9495000D01*
X10505000Y-9465000D02*
X10475000Y-9495000D01*
X10475000Y-9615000D02*
X10505000Y-9645000D01*
X10505000Y-9615000D02*
X10475000Y-9645000D01*
X10480000Y-9015000D02*
X10510000Y-9045000D01*
X10510000Y-9015000D02*
X10480000Y-9045000D01*
X10480000Y-9165000D02*
X10510000Y-9195000D01*
X10510000Y-9165000D02*
X10480000Y-9195000D01*
X10615000Y-8715000D02*
X10645000Y-8745000D01*
X10645000Y-8715000D02*
X10615000Y-8745000D01*
X10615000Y-8865000D02*
X10645000Y-8895000D01*
X10645000Y-8865000D02*
X10615000Y-8895000D01*
X10615000Y-9015000D02*
X10645000Y-9045000D01*
X10645000Y-9015000D02*
X10615000Y-9045000D01*
X10615000Y-9165000D02*
X10645000Y-9195000D01*
X10645000Y-9165000D02*
X10615000Y-9195000D01*
X10615000Y-9315000D02*
X10645000Y-9345000D01*
X10645000Y-9315000D02*
X10615000Y-9345000D01*
X10615000Y-9465000D02*
X10645000Y-9495000D01*
X10645000Y-9465000D02*
X10615000Y-9495000D01*
X10615000Y-9615000D02*
X10645000Y-9645000D01*
X10645000Y-9615000D02*
X10615000Y-9645000D01*
X10890000Y-9775000D02*
X10920000Y-9805000D01*
X10920000Y-9775000D02*
X10890000Y-9805000D01*
X10890000Y-9860000D02*
X10920000Y-9890000D01*
X10920000Y-9860000D02*
X10890000Y-9890000D01*
X10975000Y-9775000D02*
X11005000Y-9805000D01*
X11005000Y-9775000D02*
X10975000Y-9805000D01*
X10975000Y-9860000D02*
X11005000Y-9890000D01*
X11005000Y-9860000D02*
X10975000Y-9890000D01*
X10980000Y-11150000D02*
X11010000Y-11180000D01*
X11010000Y-11150000D02*
X10980000Y-11180000D01*
X10980000Y-11215000D02*
X11010000Y-11245000D01*
X11010000Y-11215000D02*
X10980000Y-11245000D01*
X10980000Y-11280000D02*
X11010000Y-11310000D01*
X11010000Y-11280000D02*
X10980000Y-11310000D01*
X10980000Y-11345000D02*
X11010000Y-11375000D01*
X11010000Y-11345000D02*
X10980000Y-11375000D01*
X11060000Y-9775000D02*
X11090000Y-9805000D01*
X11090000Y-9775000D02*
X11060000Y-9805000D01*
X11060000Y-9860000D02*
X11090000Y-9890000D01*
X11090000Y-9860000D02*
X11060000Y-9890000D01*
X11115000Y-10845000D02*
X11145000Y-10875000D01*
X11145000Y-10845000D02*
X11115000Y-10875000D01*
X11115000Y-10910000D02*
X11145000Y-10940000D01*
X11145000Y-10910000D02*
X11115000Y-10940000D01*
X11115000Y-10975000D02*
X11145000Y-11005000D01*
X11145000Y-10975000D02*
X11115000Y-11005000D01*
X11145000Y-9775000D02*
X11175000Y-9805000D01*
X11175000Y-9775000D02*
X11145000Y-9805000D01*
X11145000Y-9860000D02*
X11175000Y-9890000D01*
X11175000Y-9860000D02*
X11145000Y-9890000D01*
X11180000Y-10845000D02*
X11210000Y-10875000D01*
X11210000Y-10845000D02*
X11180000Y-10875000D01*
X11180000Y-10910000D02*
X11210000Y-10940000D01*
X11210000Y-10910000D02*
X11180000Y-10940000D01*
X11180000Y-10975000D02*
X11210000Y-11005000D01*
X11210000Y-10975000D02*
X11180000Y-11005000D01*
X11230000Y-9775000D02*
X11260000Y-9805000D01*
X11260000Y-9775000D02*
X11230000Y-9805000D01*
X11230000Y-9860000D02*
X11260000Y-9890000D01*
X11260000Y-9860000D02*
X11230000Y-9890000D01*
X11245000Y-10845000D02*
X11275000Y-10875000D01*
X11275000Y-10845000D02*
X11245000Y-10875000D01*
X11245000Y-10910000D02*
X11275000Y-10940000D01*
X11275000Y-10910000D02*
X11245000Y-10940000D01*
X11245000Y-10975000D02*
X11275000Y-11005000D01*
X11275000Y-10975000D02*
X11245000Y-11005000D01*
X11510000Y-8630000D02*
X11540000Y-8660000D01*
X11540000Y-8630000D02*
X11510000Y-8660000D01*
X11510000Y-8705000D02*
X11540000Y-8735000D01*
X11540000Y-8705000D02*
X11510000Y-8735000D01*
X11510000Y-8780000D02*
X11540000Y-8810000D01*
X11540000Y-8780000D02*
X11510000Y-8810000D01*
X11510000Y-8855000D02*
X11540000Y-8885000D01*
X11540000Y-8855000D02*
X11510000Y-8885000D01*
X11585000Y-8630000D02*
X11615000Y-8660000D01*
X11615000Y-8630000D02*
X11585000Y-8660000D01*
X11585000Y-8705000D02*
X11615000Y-8735000D01*
X11615000Y-8705000D02*
X11585000Y-8735000D01*
X11585000Y-8780000D02*
X11615000Y-8810000D01*
X11615000Y-8780000D02*
X11585000Y-8810000D01*
X11585000Y-8855000D02*
X11615000Y-8885000D01*
X11615000Y-8855000D02*
X11585000Y-8885000D01*
X11595000Y-11545000D02*
X11625000Y-11575000D01*
X11625000Y-11545000D02*
X11595000Y-11575000D01*
X11595000Y-11615000D02*
X11625000Y-11645000D01*
X11625000Y-11615000D02*
X11595000Y-11645000D01*
X11765000Y-9315000D02*
X11795000Y-9345000D01*
X11795000Y-9315000D02*
X11765000Y-9345000D01*
X11765000Y-9465000D02*
X11795000Y-9495000D01*
X11795000Y-9465000D02*
X11765000Y-9495000D01*
X11765000Y-9615000D02*
X11795000Y-9645000D01*
X11795000Y-9615000D02*
X11765000Y-9645000D01*
X11835000Y-7065000D02*
X11865000Y-7095000D01*
X11865000Y-7065000D02*
X11835000Y-7095000D01*
X11835000Y-7175000D02*
X11865000Y-7205000D01*
X11865000Y-7175000D02*
X11835000Y-7205000D01*
X11835000Y-7285000D02*
X11865000Y-7315000D01*
X11865000Y-7285000D02*
X11835000Y-7315000D01*
X11835000Y-7395000D02*
X11865000Y-7425000D01*
X11865000Y-7395000D02*
X11835000Y-7425000D01*
X11835000Y-7510000D02*
X11865000Y-7540000D01*
X11865000Y-7510000D02*
X11835000Y-7540000D01*
X11835000Y-7620000D02*
X11865000Y-7650000D01*
X11865000Y-7620000D02*
X11835000Y-7650000D01*
X11905000Y-9315000D02*
X11935000Y-9345000D01*
X11935000Y-9315000D02*
X11905000Y-9345000D01*
X11905000Y-9465000D02*
X11935000Y-9495000D01*
X11935000Y-9465000D02*
X11905000Y-9495000D01*
X11905000Y-9615000D02*
X11935000Y-9645000D01*
X11935000Y-9615000D02*
X11905000Y-9645000D01*
X11950000Y-7065000D02*
X11980000Y-7095000D01*
X11980000Y-7065000D02*
X11950000Y-7095000D01*
X11950000Y-7175000D02*
X11980000Y-7205000D01*
X11980000Y-7175000D02*
X11950000Y-7205000D01*
X11950000Y-7285000D02*
X11980000Y-7315000D01*
X11980000Y-7285000D02*
X11950000Y-7315000D01*
X11950000Y-7395000D02*
X11980000Y-7425000D01*
X11980000Y-7395000D02*
X11950000Y-7425000D01*
X11950000Y-7510000D02*
X11980000Y-7540000D01*
X11980000Y-7510000D02*
X11950000Y-7540000D01*
X11950000Y-7620000D02*
X11980000Y-7650000D01*
X11980000Y-7620000D02*
X11950000Y-7650000D01*
X11990000Y-11145000D02*
X12020000Y-11175000D01*
X12020000Y-11145000D02*
X11990000Y-11175000D01*
X11990000Y-11210000D02*
X12020000Y-11240000D01*
X12020000Y-11210000D02*
X11990000Y-11240000D01*
X11990000Y-11275000D02*
X12020000Y-11305000D01*
X12020000Y-11275000D02*
X11990000Y-11305000D01*
X11990000Y-11340000D02*
X12020000Y-11370000D01*
X12020000Y-11340000D02*
X11990000Y-11370000D01*
X12035000Y-9165000D02*
X12065000Y-9195000D01*
X12065000Y-9165000D02*
X12035000Y-9195000D01*
X12040000Y-9015000D02*
X12070000Y-9045000D01*
X12070000Y-9015000D02*
X12040000Y-9045000D01*
X12045000Y-9315000D02*
X12075000Y-9345000D01*
X12075000Y-9315000D02*
X12045000Y-9345000D01*
X12045000Y-9465000D02*
X12075000Y-9495000D01*
X12075000Y-9465000D02*
X12045000Y-9495000D01*
X12045000Y-9615000D02*
X12075000Y-9645000D01*
X12075000Y-9615000D02*
X12045000Y-9645000D01*
X12065000Y-7065000D02*
X12095000Y-7095000D01*
X12095000Y-7065000D02*
X12065000Y-7095000D01*
X12065000Y-7175000D02*
X12095000Y-7205000D01*
X12095000Y-7175000D02*
X12065000Y-7205000D01*
X12065000Y-7285000D02*
X12095000Y-7315000D01*
X12095000Y-7285000D02*
X12065000Y-7315000D01*
X12065000Y-7395000D02*
X12095000Y-7425000D01*
X12095000Y-7395000D02*
X12065000Y-7425000D01*
X12065000Y-7510000D02*
X12095000Y-7540000D01*
X12095000Y-7510000D02*
X12065000Y-7540000D01*
X12065000Y-7620000D02*
X12095000Y-7650000D01*
X12095000Y-7620000D02*
X12065000Y-7650000D01*
X12120000Y-8875000D02*
X12150000Y-8905000D01*
X12150000Y-8875000D02*
X12120000Y-8905000D01*
X12180000Y-7065000D02*
X12210000Y-7095000D01*
X12210000Y-7065000D02*
X12180000Y-7095000D01*
X12180000Y-7175000D02*
X12210000Y-7205000D01*
X12210000Y-7175000D02*
X12180000Y-7205000D01*
X12180000Y-7285000D02*
X12210000Y-7315000D01*
X12210000Y-7285000D02*
X12180000Y-7315000D01*
X12180000Y-7395000D02*
X12210000Y-7425000D01*
X12210000Y-7395000D02*
X12180000Y-7425000D01*
X12180000Y-7510000D02*
X12210000Y-7540000D01*
X12210000Y-7510000D02*
X12180000Y-7540000D01*
X12180000Y-7620000D02*
X12210000Y-7650000D01*
X12210000Y-7620000D02*
X12180000Y-7650000D01*
X12185000Y-9315000D02*
X12215000Y-9345000D01*
X12215000Y-9315000D02*
X12185000Y-9345000D01*
X12185000Y-9465000D02*
X12215000Y-9495000D01*
X12215000Y-9465000D02*
X12185000Y-9495000D01*
X12185000Y-9615000D02*
X12215000Y-9645000D01*
X12215000Y-9615000D02*
X12185000Y-9645000D01*
X12190000Y-9015000D02*
X12220000Y-9045000D01*
X12220000Y-9015000D02*
X12190000Y-9045000D01*
X12190000Y-9165000D02*
X12220000Y-9195000D01*
X12220000Y-9165000D02*
X12190000Y-9195000D01*
X12295000Y-7065000D02*
X12325000Y-7095000D01*
X12325000Y-7065000D02*
X12295000Y-7095000D01*
X12295000Y-7175000D02*
X12325000Y-7205000D01*
X12325000Y-7175000D02*
X12295000Y-7205000D01*
X12295000Y-7285000D02*
X12325000Y-7315000D01*
X12325000Y-7285000D02*
X12295000Y-7315000D01*
X12295000Y-7395000D02*
X12325000Y-7425000D01*
X12325000Y-7395000D02*
X12295000Y-7425000D01*
X12295000Y-7510000D02*
X12325000Y-7540000D01*
X12325000Y-7510000D02*
X12295000Y-7540000D01*
X12295000Y-7620000D02*
X12325000Y-7650000D01*
X12325000Y-7620000D02*
X12295000Y-7650000D01*
X12325000Y-9315000D02*
X12355000Y-9345000D01*
X12355000Y-9315000D02*
X12325000Y-9345000D01*
X12325000Y-9465000D02*
X12355000Y-9495000D01*
X12355000Y-9465000D02*
X12325000Y-9495000D01*
X12325000Y-9615000D02*
X12355000Y-9645000D01*
X12355000Y-9615000D02*
X12325000Y-9645000D01*
X12330000Y-9015000D02*
X12360000Y-9045000D01*
X12360000Y-9015000D02*
X12330000Y-9045000D01*
X12330000Y-9165000D02*
X12360000Y-9195000D01*
X12360000Y-9165000D02*
X12330000Y-9195000D01*
X12465000Y-8715000D02*
X12495000Y-8745000D01*
X12495000Y-8715000D02*
X12465000Y-8745000D01*
X12465000Y-8865000D02*
X12495000Y-8895000D01*
X12495000Y-8865000D02*
X12465000Y-8895000D01*
X12465000Y-9015000D02*
X12495000Y-9045000D01*
X12495000Y-9015000D02*
X12465000Y-9045000D01*
X12465000Y-9165000D02*
X12495000Y-9195000D01*
X12495000Y-9165000D02*
X12465000Y-9195000D01*
X12465000Y-9315000D02*
X12495000Y-9345000D01*
X12495000Y-9315000D02*
X12465000Y-9345000D01*
X12465000Y-9465000D02*
X12495000Y-9495000D01*
X12495000Y-9465000D02*
X12465000Y-9495000D01*
X12465000Y-9615000D02*
X12495000Y-9645000D01*
X12495000Y-9615000D02*
X12465000Y-9645000D01*
X12740000Y-9775000D02*
X12770000Y-9805000D01*
X12770000Y-9775000D02*
X12740000Y-9805000D01*
X12740000Y-9860000D02*
X12770000Y-9890000D01*
X12770000Y-9860000D02*
X12740000Y-9890000D01*
X12825000Y-9775000D02*
X12855000Y-9805000D01*
X12855000Y-9775000D02*
X12825000Y-9805000D01*
X12825000Y-9860000D02*
X12855000Y-9890000D01*
X12855000Y-9860000D02*
X12825000Y-9890000D01*
X12830000Y-11150000D02*
X12860000Y-11180000D01*
X12860000Y-11150000D02*
X12830000Y-11180000D01*
X12830000Y-11215000D02*
X12860000Y-11245000D01*
X12860000Y-11215000D02*
X12830000Y-11245000D01*
X12830000Y-11280000D02*
X12860000Y-11310000D01*
X12860000Y-11280000D02*
X12830000Y-11310000D01*
X12830000Y-11345000D02*
X12860000Y-11375000D01*
X12860000Y-11345000D02*
X12830000Y-11375000D01*
X12910000Y-9775000D02*
X12940000Y-9805000D01*
X12940000Y-9775000D02*
X12910000Y-9805000D01*
X12910000Y-9860000D02*
X12940000Y-9890000D01*
X12940000Y-9860000D02*
X12910000Y-9890000D01*
X12965000Y-10845000D02*
X12995000Y-10875000D01*
X12995000Y-10845000D02*
X12965000Y-10875000D01*
X12965000Y-10910000D02*
X12995000Y-10940000D01*
X12995000Y-10910000D02*
X12965000Y-10940000D01*
X12965000Y-10975000D02*
X12995000Y-11005000D01*
X12995000Y-10975000D02*
X12965000Y-11005000D01*
X12995000Y-9775000D02*
X13025000Y-9805000D01*
X13025000Y-9775000D02*
X12995000Y-9805000D01*
X12995000Y-9860000D02*
X13025000Y-9890000D01*
X13025000Y-9860000D02*
X12995000Y-9890000D01*
X13030000Y-10845000D02*
X13060000Y-10875000D01*
X13060000Y-10845000D02*
X13030000Y-10875000D01*
X13030000Y-10910000D02*
X13060000Y-10940000D01*
X13060000Y-10910000D02*
X13030000Y-10940000D01*
X13030000Y-10975000D02*
X13060000Y-11005000D01*
X13060000Y-10975000D02*
X13030000Y-11005000D01*
X13080000Y-9775000D02*
X13110000Y-9805000D01*
X13110000Y-9775000D02*
X13080000Y-9805000D01*
X13080000Y-9860000D02*
X13110000Y-9890000D01*
X13110000Y-9860000D02*
X13080000Y-9890000D01*
X13095000Y-10845000D02*
X13125000Y-10875000D01*
X13125000Y-10845000D02*
X13095000Y-10875000D01*
X13095000Y-10910000D02*
X13125000Y-10940000D01*
X13125000Y-10910000D02*
X13095000Y-10940000D01*
X13095000Y-10975000D02*
X13125000Y-11005000D01*
X13125000Y-10975000D02*
X13095000Y-11005000D01*
X13360000Y-8630000D02*
X13390000Y-8660000D01*
X13390000Y-8630000D02*
X13360000Y-8660000D01*
X13360000Y-8705000D02*
X13390000Y-8735000D01*
X13390000Y-8705000D02*
X13360000Y-8735000D01*
X13360000Y-8780000D02*
X13390000Y-8810000D01*
X13390000Y-8780000D02*
X13360000Y-8810000D01*
X13360000Y-8855000D02*
X13390000Y-8885000D01*
X13390000Y-8855000D02*
X13360000Y-8885000D01*
X13435000Y-8630000D02*
X13465000Y-8660000D01*
X13465000Y-8630000D02*
X13435000Y-8660000D01*
X13435000Y-8705000D02*
X13465000Y-8735000D01*
X13465000Y-8705000D02*
X13435000Y-8735000D01*
X13435000Y-8780000D02*
X13465000Y-8810000D01*
X13465000Y-8780000D02*
X13435000Y-8810000D01*
X13435000Y-8855000D02*
X13465000Y-8885000D01*
X13465000Y-8855000D02*
X13435000Y-8885000D01*
X13445000Y-11545000D02*
X13475000Y-11575000D01*
X13475000Y-11545000D02*
X13445000Y-11575000D01*
X13445000Y-11615000D02*
X13475000Y-11645000D01*
X13475000Y-11615000D02*
X13445000Y-11645000D01*
X13615000Y-9315000D02*
X13645000Y-9345000D01*
X13645000Y-9315000D02*
X13615000Y-9345000D01*
X13615000Y-9465000D02*
X13645000Y-9495000D01*
X13645000Y-9465000D02*
X13615000Y-9495000D01*
X13615000Y-9615000D02*
X13645000Y-9645000D01*
X13645000Y-9615000D02*
X13615000Y-9645000D01*
X13685000Y-7065000D02*
X13715000Y-7095000D01*
X13715000Y-7065000D02*
X13685000Y-7095000D01*
X13685000Y-7175000D02*
X13715000Y-7205000D01*
X13715000Y-7175000D02*
X13685000Y-7205000D01*
X13685000Y-7285000D02*
X13715000Y-7315000D01*
X13715000Y-7285000D02*
X13685000Y-7315000D01*
X13685000Y-7395000D02*
X13715000Y-7425000D01*
X13715000Y-7395000D02*
X13685000Y-7425000D01*
X13685000Y-7510000D02*
X13715000Y-7540000D01*
X13715000Y-7510000D02*
X13685000Y-7540000D01*
X13685000Y-7620000D02*
X13715000Y-7650000D01*
X13715000Y-7620000D02*
X13685000Y-7650000D01*
X13755000Y-9315000D02*
X13785000Y-9345000D01*
X13785000Y-9315000D02*
X13755000Y-9345000D01*
X13755000Y-9465000D02*
X13785000Y-9495000D01*
X13785000Y-9465000D02*
X13755000Y-9495000D01*
X13755000Y-9615000D02*
X13785000Y-9645000D01*
X13785000Y-9615000D02*
X13755000Y-9645000D01*
X13800000Y-7065000D02*
X13830000Y-7095000D01*
X13830000Y-7065000D02*
X13800000Y-7095000D01*
X13800000Y-7175000D02*
X13830000Y-7205000D01*
X13830000Y-7175000D02*
X13800000Y-7205000D01*
X13800000Y-7285000D02*
X13830000Y-7315000D01*
X13830000Y-7285000D02*
X13800000Y-7315000D01*
X13800000Y-7395000D02*
X13830000Y-7425000D01*
X13830000Y-7395000D02*
X13800000Y-7425000D01*
X13800000Y-7510000D02*
X13830000Y-7540000D01*
X13830000Y-7510000D02*
X13800000Y-7540000D01*
X13800000Y-7620000D02*
X13830000Y-7650000D01*
X13830000Y-7620000D02*
X13800000Y-7650000D01*
X13840000Y-11145000D02*
X13870000Y-11175000D01*
X13870000Y-11145000D02*
X13840000Y-11175000D01*
X13840000Y-11210000D02*
X13870000Y-11240000D01*
X13870000Y-11210000D02*
X13840000Y-11240000D01*
X13840000Y-11275000D02*
X13870000Y-11305000D01*
X13870000Y-11275000D02*
X13840000Y-11305000D01*
X13840000Y-11340000D02*
X13870000Y-11370000D01*
X13870000Y-11340000D02*
X13840000Y-11370000D01*
X13885000Y-9165000D02*
X13915000Y-9195000D01*
X13915000Y-9165000D02*
X13885000Y-9195000D01*
X13890000Y-9015000D02*
X13920000Y-9045000D01*
X13920000Y-9015000D02*
X13890000Y-9045000D01*
X13895000Y-9315000D02*
X13925000Y-9345000D01*
X13925000Y-9315000D02*
X13895000Y-9345000D01*
X13895000Y-9465000D02*
X13925000Y-9495000D01*
X13925000Y-9465000D02*
X13895000Y-9495000D01*
X13895000Y-9615000D02*
X13925000Y-9645000D01*
X13925000Y-9615000D02*
X13895000Y-9645000D01*
X13915000Y-7065000D02*
X13945000Y-7095000D01*
X13945000Y-7065000D02*
X13915000Y-7095000D01*
X13915000Y-7175000D02*
X13945000Y-7205000D01*
X13945000Y-7175000D02*
X13915000Y-7205000D01*
X13915000Y-7285000D02*
X13945000Y-7315000D01*
X13945000Y-7285000D02*
X13915000Y-7315000D01*
X13915000Y-7395000D02*
X13945000Y-7425000D01*
X13945000Y-7395000D02*
X13915000Y-7425000D01*
X13915000Y-7510000D02*
X13945000Y-7540000D01*
X13945000Y-7510000D02*
X13915000Y-7540000D01*
X13915000Y-7620000D02*
X13945000Y-7650000D01*
X13945000Y-7620000D02*
X13915000Y-7650000D01*
X13970000Y-8875000D02*
X14000000Y-8905000D01*
X14000000Y-8875000D02*
X13970000Y-8905000D01*
X14030000Y-7065000D02*
X14060000Y-7095000D01*
X14060000Y-7065000D02*
X14030000Y-7095000D01*
X14030000Y-7175000D02*
X14060000Y-7205000D01*
X14060000Y-7175000D02*
X14030000Y-7205000D01*
X14030000Y-7285000D02*
X14060000Y-7315000D01*
X14060000Y-7285000D02*
X14030000Y-7315000D01*
X14030000Y-7395000D02*
X14060000Y-7425000D01*
X14060000Y-7395000D02*
X14030000Y-7425000D01*
X14030000Y-7510000D02*
X14060000Y-7540000D01*
X14060000Y-7510000D02*
X14030000Y-7540000D01*
X14030000Y-7620000D02*
X14060000Y-7650000D01*
X14060000Y-7620000D02*
X14030000Y-7650000D01*
X14035000Y-9315000D02*
X14065000Y-9345000D01*
X14065000Y-9315000D02*
X14035000Y-9345000D01*
X14035000Y-9465000D02*
X14065000Y-9495000D01*
X14065000Y-9465000D02*
X14035000Y-9495000D01*
X14035000Y-9615000D02*
X14065000Y-9645000D01*
X14065000Y-9615000D02*
X14035000Y-9645000D01*
X14040000Y-9015000D02*
X14070000Y-9045000D01*
X14070000Y-9015000D02*
X14040000Y-9045000D01*
X14040000Y-9165000D02*
X14070000Y-9195000D01*
X14070000Y-9165000D02*
X14040000Y-9195000D01*
X14145000Y-7065000D02*
X14175000Y-7095000D01*
X14175000Y-7065000D02*
X14145000Y-7095000D01*
X14145000Y-7175000D02*
X14175000Y-7205000D01*
X14175000Y-7175000D02*
X14145000Y-7205000D01*
X14145000Y-7285000D02*
X14175000Y-7315000D01*
X14175000Y-7285000D02*
X14145000Y-7315000D01*
X14145000Y-7395000D02*
X14175000Y-7425000D01*
X14175000Y-7395000D02*
X14145000Y-7425000D01*
X14145000Y-7510000D02*
X14175000Y-7540000D01*
X14175000Y-7510000D02*
X14145000Y-7540000D01*
X14145000Y-7620000D02*
X14175000Y-7650000D01*
X14175000Y-7620000D02*
X14145000Y-7650000D01*
X14175000Y-9315000D02*
X14205000Y-9345000D01*
X14205000Y-9315000D02*
X14175000Y-9345000D01*
X14175000Y-9465000D02*
X14205000Y-9495000D01*
X14205000Y-9465000D02*
X14175000Y-9495000D01*
X14175000Y-9615000D02*
X14205000Y-9645000D01*
X14205000Y-9615000D02*
X14175000Y-9645000D01*
X14180000Y-9015000D02*
X14210000Y-9045000D01*
X14210000Y-9015000D02*
X14180000Y-9045000D01*
X14180000Y-9165000D02*
X14210000Y-9195000D01*
X14210000Y-9165000D02*
X14180000Y-9195000D01*
X14315000Y-8715000D02*
X14345000Y-8745000D01*
X14345000Y-8715000D02*
X14315000Y-8745000D01*
X14315000Y-8865000D02*
X14345000Y-8895000D01*
X14345000Y-8865000D02*
X14315000Y-8895000D01*
X14315000Y-9015000D02*
X14345000Y-9045000D01*
X14345000Y-9015000D02*
X14315000Y-9045000D01*
X14315000Y-9165000D02*
X14345000Y-9195000D01*
X14345000Y-9165000D02*
X14315000Y-9195000D01*
X14315000Y-9315000D02*
X14345000Y-9345000D01*
X14345000Y-9315000D02*
X14315000Y-9345000D01*
X14315000Y-9465000D02*
X14345000Y-9495000D01*
X14345000Y-9465000D02*
X14315000Y-9495000D01*
X14315000Y-9615000D02*
X14345000Y-9645000D01*
X14345000Y-9615000D02*
X14315000Y-9645000D01*
X14590000Y-9775000D02*
X14620000Y-9805000D01*
X14620000Y-9775000D02*
X14590000Y-9805000D01*
X14590000Y-9860000D02*
X14620000Y-9890000D01*
X14620000Y-9860000D02*
X14590000Y-9890000D01*
X14675000Y-9775000D02*
X14705000Y-9805000D01*
X14705000Y-9775000D02*
X14675000Y-9805000D01*
X14675000Y-9860000D02*
X14705000Y-9890000D01*
X14705000Y-9860000D02*
X14675000Y-9890000D01*
X14680000Y-11150000D02*
X14710000Y-11180000D01*
X14710000Y-11150000D02*
X14680000Y-11180000D01*
X14680000Y-11215000D02*
X14710000Y-11245000D01*
X14710000Y-11215000D02*
X14680000Y-11245000D01*
X14680000Y-11280000D02*
X14710000Y-11310000D01*
X14710000Y-11280000D02*
X14680000Y-11310000D01*
X14680000Y-11345000D02*
X14710000Y-11375000D01*
X14710000Y-11345000D02*
X14680000Y-11375000D01*
X14760000Y-9775000D02*
X14790000Y-9805000D01*
X14790000Y-9775000D02*
X14760000Y-9805000D01*
X14760000Y-9860000D02*
X14790000Y-9890000D01*
X14790000Y-9860000D02*
X14760000Y-9890000D01*
X14815000Y-10845000D02*
X14845000Y-10875000D01*
X14845000Y-10845000D02*
X14815000Y-10875000D01*
X14815000Y-10910000D02*
X14845000Y-10940000D01*
X14845000Y-10910000D02*
X14815000Y-10940000D01*
X14815000Y-10975000D02*
X14845000Y-11005000D01*
X14845000Y-10975000D02*
X14815000Y-11005000D01*
X14845000Y-9775000D02*
X14875000Y-9805000D01*
X14875000Y-9775000D02*
X14845000Y-9805000D01*
X14845000Y-9860000D02*
X14875000Y-9890000D01*
X14875000Y-9860000D02*
X14845000Y-9890000D01*
X14880000Y-10845000D02*
X14910000Y-10875000D01*
X14910000Y-10845000D02*
X14880000Y-10875000D01*
X14880000Y-10910000D02*
X14910000Y-10940000D01*
X14910000Y-10910000D02*
X14880000Y-10940000D01*
X14880000Y-10975000D02*
X14910000Y-11005000D01*
X14910000Y-10975000D02*
X14880000Y-11005000D01*
X14930000Y-9775000D02*
X14960000Y-9805000D01*
X14960000Y-9775000D02*
X14930000Y-9805000D01*
X14930000Y-9860000D02*
X14960000Y-9890000D01*
X14960000Y-9860000D02*
X14930000Y-9890000D01*
X14945000Y-10845000D02*
X14975000Y-10875000D01*
X14975000Y-10845000D02*
X14945000Y-10875000D01*
X14945000Y-10910000D02*
X14975000Y-10940000D01*
X14975000Y-10910000D02*
X14945000Y-10940000D01*
X14945000Y-10975000D02*
X14975000Y-11005000D01*
X14975000Y-10975000D02*
X14945000Y-11005000D01*
X15210000Y-8630000D02*
X15240000Y-8660000D01*
X15240000Y-8630000D02*
X15210000Y-8660000D01*
X15210000Y-8705000D02*
X15240000Y-8735000D01*
X15240000Y-8705000D02*
X15210000Y-8735000D01*
X15210000Y-8780000D02*
X15240000Y-8810000D01*
X15240000Y-8780000D02*
X15210000Y-8810000D01*
X15210000Y-8855000D02*
X15240000Y-8885000D01*
X15240000Y-8855000D02*
X15210000Y-8885000D01*
X15285000Y-8630000D02*
X15315000Y-8660000D01*
X15315000Y-8630000D02*
X15285000Y-8660000D01*
X15285000Y-8705000D02*
X15315000Y-8735000D01*
X15315000Y-8705000D02*
X15285000Y-8735000D01*
X15285000Y-8780000D02*
X15315000Y-8810000D01*
X15315000Y-8780000D02*
X15285000Y-8810000D01*
X15285000Y-8855000D02*
X15315000Y-8885000D01*
X15315000Y-8855000D02*
X15285000Y-8885000D01*
X15295000Y-11545000D02*
X15325000Y-11575000D01*
X15325000Y-11545000D02*
X15295000Y-11575000D01*
X15295000Y-11615000D02*
X15325000Y-11645000D01*
X15325000Y-11615000D02*
X15295000Y-11645000D01*
X15465000Y-9315000D02*
X15495000Y-9345000D01*
X15495000Y-9315000D02*
X15465000Y-9345000D01*
X15465000Y-9465000D02*
X15495000Y-9495000D01*
X15495000Y-9465000D02*
X15465000Y-9495000D01*
X15465000Y-9615000D02*
X15495000Y-9645000D01*
X15495000Y-9615000D02*
X15465000Y-9645000D01*
X15535000Y-7065000D02*
X15565000Y-7095000D01*
X15565000Y-7065000D02*
X15535000Y-7095000D01*
X15535000Y-7175000D02*
X15565000Y-7205000D01*
X15565000Y-7175000D02*
X15535000Y-7205000D01*
X15535000Y-7285000D02*
X15565000Y-7315000D01*
X15565000Y-7285000D02*
X15535000Y-7315000D01*
X15535000Y-7395000D02*
X15565000Y-7425000D01*
X15565000Y-7395000D02*
X15535000Y-7425000D01*
X15535000Y-7510000D02*
X15565000Y-7540000D01*
X15565000Y-7510000D02*
X15535000Y-7540000D01*
X15535000Y-7620000D02*
X15565000Y-7650000D01*
X15565000Y-7620000D02*
X15535000Y-7650000D01*
X15605000Y-9315000D02*
X15635000Y-9345000D01*
X15635000Y-9315000D02*
X15605000Y-9345000D01*
X15605000Y-9465000D02*
X15635000Y-9495000D01*
X15635000Y-9465000D02*
X15605000Y-9495000D01*
X15605000Y-9615000D02*
X15635000Y-9645000D01*
X15635000Y-9615000D02*
X15605000Y-9645000D01*
X15650000Y-7065000D02*
X15680000Y-7095000D01*
X15680000Y-7065000D02*
X15650000Y-7095000D01*
X15650000Y-7175000D02*
X15680000Y-7205000D01*
X15680000Y-7175000D02*
X15650000Y-7205000D01*
X15650000Y-7285000D02*
X15680000Y-7315000D01*
X15680000Y-7285000D02*
X15650000Y-7315000D01*
X15650000Y-7395000D02*
X15680000Y-7425000D01*
X15680000Y-7395000D02*
X15650000Y-7425000D01*
X15650000Y-7510000D02*
X15680000Y-7540000D01*
X15680000Y-7510000D02*
X15650000Y-7540000D01*
X15650000Y-7620000D02*
X15680000Y-7650000D01*
X15680000Y-7620000D02*
X15650000Y-7650000D01*
X15690000Y-11145000D02*
X15720000Y-11175000D01*
X15720000Y-11145000D02*
X15690000Y-11175000D01*
X15690000Y-11210000D02*
X15720000Y-11240000D01*
X15720000Y-11210000D02*
X15690000Y-11240000D01*
X15690000Y-11275000D02*
X15720000Y-11305000D01*
X15720000Y-11275000D02*
X15690000Y-11305000D01*
X15690000Y-11340000D02*
X15720000Y-11370000D01*
X15720000Y-11340000D02*
X15690000Y-11370000D01*
X15735000Y-9165000D02*
X15765000Y-9195000D01*
X15765000Y-9165000D02*
X15735000Y-9195000D01*
X15740000Y-9015000D02*
X15770000Y-9045000D01*
X15770000Y-9015000D02*
X15740000Y-9045000D01*
X15745000Y-9315000D02*
X15775000Y-9345000D01*
X15775000Y-9315000D02*
X15745000Y-9345000D01*
X15745000Y-9465000D02*
X15775000Y-9495000D01*
X15775000Y-9465000D02*
X15745000Y-9495000D01*
X15745000Y-9615000D02*
X15775000Y-9645000D01*
X15775000Y-9615000D02*
X15745000Y-9645000D01*
X15765000Y-7065000D02*
X15795000Y-7095000D01*
X15795000Y-7065000D02*
X15765000Y-7095000D01*
X15765000Y-7175000D02*
X15795000Y-7205000D01*
X15795000Y-7175000D02*
X15765000Y-7205000D01*
X15765000Y-7285000D02*
X15795000Y-7315000D01*
X15795000Y-7285000D02*
X15765000Y-7315000D01*
X15765000Y-7395000D02*
X15795000Y-7425000D01*
X15795000Y-7395000D02*
X15765000Y-7425000D01*
X15765000Y-7510000D02*
X15795000Y-7540000D01*
X15795000Y-7510000D02*
X15765000Y-7540000D01*
X15765000Y-7620000D02*
X15795000Y-7650000D01*
X15795000Y-7620000D02*
X15765000Y-7650000D01*
X15820000Y-8875000D02*
X15850000Y-8905000D01*
X15850000Y-8875000D02*
X15820000Y-8905000D01*
X15880000Y-7065000D02*
X15910000Y-7095000D01*
X15910000Y-7065000D02*
X15880000Y-7095000D01*
X15880000Y-7175000D02*
X15910000Y-7205000D01*
X15910000Y-7175000D02*
X15880000Y-7205000D01*
X15880000Y-7285000D02*
X15910000Y-7315000D01*
X15910000Y-7285000D02*
X15880000Y-7315000D01*
X15880000Y-7395000D02*
X15910000Y-7425000D01*
X15910000Y-7395000D02*
X15880000Y-7425000D01*
X15880000Y-7510000D02*
X15910000Y-7540000D01*
X15910000Y-7510000D02*
X15880000Y-7540000D01*
X15880000Y-7620000D02*
X15910000Y-7650000D01*
X15910000Y-7620000D02*
X15880000Y-7650000D01*
X15885000Y-9315000D02*
X15915000Y-9345000D01*
X15915000Y-9315000D02*
X15885000Y-9345000D01*
X15885000Y-9465000D02*
X15915000Y-9495000D01*
X15915000Y-9465000D02*
X15885000Y-9495000D01*
X15885000Y-9615000D02*
X15915000Y-9645000D01*
X15915000Y-9615000D02*
X15885000Y-9645000D01*
X15890000Y-9015000D02*
X15920000Y-9045000D01*
X15920000Y-9015000D02*
X15890000Y-9045000D01*
X15890000Y-9165000D02*
X15920000Y-9195000D01*
X15920000Y-9165000D02*
X15890000Y-9195000D01*
X15995000Y-7065000D02*
X16025000Y-7095000D01*
X16025000Y-7065000D02*
X15995000Y-7095000D01*
X15995000Y-7175000D02*
X16025000Y-7205000D01*
X16025000Y-7175000D02*
X15995000Y-7205000D01*
X15995000Y-7285000D02*
X16025000Y-7315000D01*
X16025000Y-7285000D02*
X15995000Y-7315000D01*
X15995000Y-7395000D02*
X16025000Y-7425000D01*
X16025000Y-7395000D02*
X15995000Y-7425000D01*
X15995000Y-7510000D02*
X16025000Y-7540000D01*
X16025000Y-7510000D02*
X15995000Y-7540000D01*
X15995000Y-7620000D02*
X16025000Y-7650000D01*
X16025000Y-7620000D02*
X15995000Y-7650000D01*
X16025000Y-9315000D02*
X16055000Y-9345000D01*
X16055000Y-9315000D02*
X16025000Y-9345000D01*
X16025000Y-9465000D02*
X16055000Y-9495000D01*
X16055000Y-9465000D02*
X16025000Y-9495000D01*
X16025000Y-9615000D02*
X16055000Y-9645000D01*
X16055000Y-9615000D02*
X16025000Y-9645000D01*
X16030000Y-9015000D02*
X16060000Y-9045000D01*
X16060000Y-9015000D02*
X16030000Y-9045000D01*
X16030000Y-9165000D02*
X16060000Y-9195000D01*
X16060000Y-9165000D02*
X16030000Y-9195000D01*
X16165000Y-8715000D02*
X16195000Y-8745000D01*
X16195000Y-8715000D02*
X16165000Y-8745000D01*
X16165000Y-8865000D02*
X16195000Y-8895000D01*
X16195000Y-8865000D02*
X16165000Y-8895000D01*
X16165000Y-9015000D02*
X16195000Y-9045000D01*
X16195000Y-9015000D02*
X16165000Y-9045000D01*
X16165000Y-9165000D02*
X16195000Y-9195000D01*
X16195000Y-9165000D02*
X16165000Y-9195000D01*
X16165000Y-9315000D02*
X16195000Y-9345000D01*
X16195000Y-9315000D02*
X16165000Y-9345000D01*
X16165000Y-9465000D02*
X16195000Y-9495000D01*
X16195000Y-9465000D02*
X16165000Y-9495000D01*
X16165000Y-9615000D02*
X16195000Y-9645000D01*
X16195000Y-9615000D02*
X16165000Y-9645000D01*
X16440000Y-9775000D02*
X16470000Y-9805000D01*
X16470000Y-9775000D02*
X16440000Y-9805000D01*
X16440000Y-9860000D02*
X16470000Y-9890000D01*
X16470000Y-9860000D02*
X16440000Y-9890000D01*
X16525000Y-9775000D02*
X16555000Y-9805000D01*
X16555000Y-9775000D02*
X16525000Y-9805000D01*
X16525000Y-9860000D02*
X16555000Y-9890000D01*
X16555000Y-9860000D02*
X16525000Y-9890000D01*
X16530000Y-11150000D02*
X16560000Y-11180000D01*
X16560000Y-11150000D02*
X16530000Y-11180000D01*
X16530000Y-11215000D02*
X16560000Y-11245000D01*
X16560000Y-11215000D02*
X16530000Y-11245000D01*
X16530000Y-11280000D02*
X16560000Y-11310000D01*
X16560000Y-11280000D02*
X16530000Y-11310000D01*
X16530000Y-11345000D02*
X16560000Y-11375000D01*
X16560000Y-11345000D02*
X16530000Y-11375000D01*
X16610000Y-9775000D02*
X16640000Y-9805000D01*
X16640000Y-9775000D02*
X16610000Y-9805000D01*
X16610000Y-9860000D02*
X16640000Y-9890000D01*
X16640000Y-9860000D02*
X16610000Y-9890000D01*
X16665000Y-10845000D02*
X16695000Y-10875000D01*
X16695000Y-10845000D02*
X16665000Y-10875000D01*
X16665000Y-10910000D02*
X16695000Y-10940000D01*
X16695000Y-10910000D02*
X16665000Y-10940000D01*
X16665000Y-10975000D02*
X16695000Y-11005000D01*
X16695000Y-10975000D02*
X16665000Y-11005000D01*
X16695000Y-9775000D02*
X16725000Y-9805000D01*
X16725000Y-9775000D02*
X16695000Y-9805000D01*
X16695000Y-9860000D02*
X16725000Y-9890000D01*
X16725000Y-9860000D02*
X16695000Y-9890000D01*
X16730000Y-10845000D02*
X16760000Y-10875000D01*
X16760000Y-10845000D02*
X16730000Y-10875000D01*
X16730000Y-10910000D02*
X16760000Y-10940000D01*
X16760000Y-10910000D02*
X16730000Y-10940000D01*
X16730000Y-10975000D02*
X16760000Y-11005000D01*
X16760000Y-10975000D02*
X16730000Y-11005000D01*
X16780000Y-9775000D02*
X16810000Y-9805000D01*
X16810000Y-9775000D02*
X16780000Y-9805000D01*
X16780000Y-9860000D02*
X16810000Y-9890000D01*
X16810000Y-9860000D02*
X16780000Y-9890000D01*
X16795000Y-10845000D02*
X16825000Y-10875000D01*
X16825000Y-10845000D02*
X16795000Y-10875000D01*
X16795000Y-10910000D02*
X16825000Y-10940000D01*
X16825000Y-10910000D02*
X16795000Y-10940000D01*
X16795000Y-10975000D02*
X16825000Y-11005000D01*
X16825000Y-10975000D02*
X16795000Y-11005000D01*
X17060000Y-8630000D02*
X17090000Y-8660000D01*
X17090000Y-8630000D02*
X17060000Y-8660000D01*
X17060000Y-8705000D02*
X17090000Y-8735000D01*
X17090000Y-8705000D02*
X17060000Y-8735000D01*
X17060000Y-8780000D02*
X17090000Y-8810000D01*
X17090000Y-8780000D02*
X17060000Y-8810000D01*
X17060000Y-8855000D02*
X17090000Y-8885000D01*
X17090000Y-8855000D02*
X17060000Y-8885000D01*
X17135000Y-8630000D02*
X17165000Y-8660000D01*
X17165000Y-8630000D02*
X17135000Y-8660000D01*
X17135000Y-8705000D02*
X17165000Y-8735000D01*
X17165000Y-8705000D02*
X17135000Y-8735000D01*
X17135000Y-8780000D02*
X17165000Y-8810000D01*
X17165000Y-8780000D02*
X17135000Y-8810000D01*
X17135000Y-8855000D02*
X17165000Y-8885000D01*
X17165000Y-8855000D02*
X17135000Y-8885000D01*
X17145000Y-11545000D02*
X17175000Y-11575000D01*
X17175000Y-11545000D02*
X17145000Y-11575000D01*
X17145000Y-11615000D02*
X17175000Y-11645000D01*
X17175000Y-11615000D02*
X17145000Y-11645000D01*
X17315000Y-9315000D02*
X17345000Y-9345000D01*
X17345000Y-9315000D02*
X17315000Y-9345000D01*
X17315000Y-9465000D02*
X17345000Y-9495000D01*
X17345000Y-9465000D02*
X17315000Y-9495000D01*
X17315000Y-9615000D02*
X17345000Y-9645000D01*
X17345000Y-9615000D02*
X17315000Y-9645000D01*
X17385000Y-7065000D02*
X17415000Y-7095000D01*
X17415000Y-7065000D02*
X17385000Y-7095000D01*
X17385000Y-7175000D02*
X17415000Y-7205000D01*
X17415000Y-7175000D02*
X17385000Y-7205000D01*
X17385000Y-7285000D02*
X17415000Y-7315000D01*
X17415000Y-7285000D02*
X17385000Y-7315000D01*
X17385000Y-7395000D02*
X17415000Y-7425000D01*
X17415000Y-7395000D02*
X17385000Y-7425000D01*
X17385000Y-7510000D02*
X17415000Y-7540000D01*
X17415000Y-7510000D02*
X17385000Y-7540000D01*
X17385000Y-7620000D02*
X17415000Y-7650000D01*
X17415000Y-7620000D02*
X17385000Y-7650000D01*
X17455000Y-9315000D02*
X17485000Y-9345000D01*
X17485000Y-9315000D02*
X17455000Y-9345000D01*
X17455000Y-9465000D02*
X17485000Y-9495000D01*
X17485000Y-9465000D02*
X17455000Y-9495000D01*
X17455000Y-9615000D02*
X17485000Y-9645000D01*
X17485000Y-9615000D02*
X17455000Y-9645000D01*
X17500000Y-7065000D02*
X17530000Y-7095000D01*
X17530000Y-7065000D02*
X17500000Y-7095000D01*
X17500000Y-7175000D02*
X17530000Y-7205000D01*
X17530000Y-7175000D02*
X17500000Y-7205000D01*
X17500000Y-7285000D02*
X17530000Y-7315000D01*
X17530000Y-7285000D02*
X17500000Y-7315000D01*
X17500000Y-7395000D02*
X17530000Y-7425000D01*
X17530000Y-7395000D02*
X17500000Y-7425000D01*
X17500000Y-7510000D02*
X17530000Y-7540000D01*
X17530000Y-7510000D02*
X17500000Y-7540000D01*
X17500000Y-7620000D02*
X17530000Y-7650000D01*
X17530000Y-7620000D02*
X17500000Y-7650000D01*
X17540000Y-11145000D02*
X17570000Y-11175000D01*
X17570000Y-11145000D02*
X17540000Y-11175000D01*
X17540000Y-11210000D02*
X17570000Y-11240000D01*
X17570000Y-11210000D02*
X17540000Y-11240000D01*
X17540000Y-11275000D02*
X17570000Y-11305000D01*
X17570000Y-11275000D02*
X17540000Y-11305000D01*
X17540000Y-11340000D02*
X17570000Y-11370000D01*
X17570000Y-11340000D02*
X17540000Y-11370000D01*
X17585000Y-9165000D02*
X17615000Y-9195000D01*
X17615000Y-9165000D02*
X17585000Y-9195000D01*
X17590000Y-9015000D02*
X17620000Y-9045000D01*
X17620000Y-9015000D02*
X17590000Y-9045000D01*
X17595000Y-9315000D02*
X17625000Y-9345000D01*
X17625000Y-9315000D02*
X17595000Y-9345000D01*
X17595000Y-9465000D02*
X17625000Y-9495000D01*
X17625000Y-9465000D02*
X17595000Y-9495000D01*
X17595000Y-9615000D02*
X17625000Y-9645000D01*
X17625000Y-9615000D02*
X17595000Y-9645000D01*
X17615000Y-7065000D02*
X17645000Y-7095000D01*
X17645000Y-7065000D02*
X17615000Y-7095000D01*
X17615000Y-7175000D02*
X17645000Y-7205000D01*
X17645000Y-7175000D02*
X17615000Y-7205000D01*
X17615000Y-7285000D02*
X17645000Y-7315000D01*
X17645000Y-7285000D02*
X17615000Y-7315000D01*
X17615000Y-7395000D02*
X17645000Y-7425000D01*
X17645000Y-7395000D02*
X17615000Y-7425000D01*
X17615000Y-7510000D02*
X17645000Y-7540000D01*
X17645000Y-7510000D02*
X17615000Y-7540000D01*
X17615000Y-7620000D02*
X17645000Y-7650000D01*
X17645000Y-7620000D02*
X17615000Y-7650000D01*
X17670000Y-8875000D02*
X17700000Y-8905000D01*
X17700000Y-8875000D02*
X17670000Y-8905000D01*
X17730000Y-7065000D02*
X17760000Y-7095000D01*
X17760000Y-7065000D02*
X17730000Y-7095000D01*
X17730000Y-7175000D02*
X17760000Y-7205000D01*
X17760000Y-7175000D02*
X17730000Y-7205000D01*
X17730000Y-7285000D02*
X17760000Y-7315000D01*
X17760000Y-7285000D02*
X17730000Y-7315000D01*
X17730000Y-7395000D02*
X17760000Y-7425000D01*
X17760000Y-7395000D02*
X17730000Y-7425000D01*
X17730000Y-7510000D02*
X17760000Y-7540000D01*
X17760000Y-7510000D02*
X17730000Y-7540000D01*
X17730000Y-7620000D02*
X17760000Y-7650000D01*
X17760000Y-7620000D02*
X17730000Y-7650000D01*
X17735000Y-9315000D02*
X17765000Y-9345000D01*
X17765000Y-9315000D02*
X17735000Y-9345000D01*
X17735000Y-9465000D02*
X17765000Y-9495000D01*
X17765000Y-9465000D02*
X17735000Y-9495000D01*
X17735000Y-9615000D02*
X17765000Y-9645000D01*
X17765000Y-9615000D02*
X17735000Y-9645000D01*
X17740000Y-9015000D02*
X17770000Y-9045000D01*
X17770000Y-9015000D02*
X17740000Y-9045000D01*
X17740000Y-9165000D02*
X17770000Y-9195000D01*
X17770000Y-9165000D02*
X17740000Y-9195000D01*
X17845000Y-7065000D02*
X17875000Y-7095000D01*
X17875000Y-7065000D02*
X17845000Y-7095000D01*
X17845000Y-7175000D02*
X17875000Y-7205000D01*
X17875000Y-7175000D02*
X17845000Y-7205000D01*
X17845000Y-7285000D02*
X17875000Y-7315000D01*
X17875000Y-7285000D02*
X17845000Y-7315000D01*
X17845000Y-7395000D02*
X17875000Y-7425000D01*
X17875000Y-7395000D02*
X17845000Y-7425000D01*
X17845000Y-7510000D02*
X17875000Y-7540000D01*
X17875000Y-7510000D02*
X17845000Y-7540000D01*
X17845000Y-7620000D02*
X17875000Y-7650000D01*
X17875000Y-7620000D02*
X17845000Y-7650000D01*
X17875000Y-9315000D02*
X17905000Y-9345000D01*
X17905000Y-9315000D02*
X17875000Y-9345000D01*
X17875000Y-9465000D02*
X17905000Y-9495000D01*
X17905000Y-9465000D02*
X17875000Y-9495000D01*
X17875000Y-9615000D02*
X17905000Y-9645000D01*
X17905000Y-9615000D02*
X17875000Y-9645000D01*
X17880000Y-9015000D02*
X17910000Y-9045000D01*
X17910000Y-9015000D02*
X17880000Y-9045000D01*
X17880000Y-9165000D02*
X17910000Y-9195000D01*
X17910000Y-9165000D02*
X17880000Y-9195000D01*
X18010000Y-8715000D02*
X18040000Y-8745000D01*
X18040000Y-8715000D02*
X18010000Y-8745000D01*
X18010000Y-8865000D02*
X18040000Y-8895000D01*
X18040000Y-8865000D02*
X18010000Y-8895000D01*
X18010000Y-9015000D02*
X18040000Y-9045000D01*
X18040000Y-9015000D02*
X18010000Y-9045000D01*
X18010000Y-9165000D02*
X18040000Y-9195000D01*
X18040000Y-9165000D02*
X18010000Y-9195000D01*
X18010000Y-9315000D02*
X18040000Y-9345000D01*
X18040000Y-9315000D02*
X18010000Y-9345000D01*
X18010000Y-9465000D02*
X18040000Y-9495000D01*
X18040000Y-9465000D02*
X18010000Y-9495000D01*
X18010000Y-9615000D02*
X18040000Y-9645000D01*
X18040000Y-9615000D02*
X18010000Y-9645000D01*
X18290000Y-9775000D02*
X18320000Y-9805000D01*
X18320000Y-9775000D02*
X18290000Y-9805000D01*
X18290000Y-9860000D02*
X18320000Y-9890000D01*
X18320000Y-9860000D02*
X18290000Y-9890000D01*
X18375000Y-9775000D02*
X18405000Y-9805000D01*
X18405000Y-9775000D02*
X18375000Y-9805000D01*
X18375000Y-9860000D02*
X18405000Y-9890000D01*
X18405000Y-9860000D02*
X18375000Y-9890000D01*
X18380000Y-11150000D02*
X18410000Y-11180000D01*
X18410000Y-11150000D02*
X18380000Y-11180000D01*
X18380000Y-11215000D02*
X18410000Y-11245000D01*
X18410000Y-11215000D02*
X18380000Y-11245000D01*
X18380000Y-11280000D02*
X18410000Y-11310000D01*
X18410000Y-11280000D02*
X18380000Y-11310000D01*
X18380000Y-11345000D02*
X18410000Y-11375000D01*
X18410000Y-11345000D02*
X18380000Y-11375000D01*
X18460000Y-9775000D02*
X18490000Y-9805000D01*
X18490000Y-9775000D02*
X18460000Y-9805000D01*
X18460000Y-9860000D02*
X18490000Y-9890000D01*
X18490000Y-9860000D02*
X18460000Y-9890000D01*
X18515000Y-10845000D02*
X18545000Y-10875000D01*
X18545000Y-10845000D02*
X18515000Y-10875000D01*
X18515000Y-10910000D02*
X18545000Y-10940000D01*
X18545000Y-10910000D02*
X18515000Y-10940000D01*
X18515000Y-10975000D02*
X18545000Y-11005000D01*
X18545000Y-10975000D02*
X18515000Y-11005000D01*
X18545000Y-9775000D02*
X18575000Y-9805000D01*
X18575000Y-9775000D02*
X18545000Y-9805000D01*
X18545000Y-9860000D02*
X18575000Y-9890000D01*
X18575000Y-9860000D02*
X18545000Y-9890000D01*
X18580000Y-10845000D02*
X18610000Y-10875000D01*
X18610000Y-10845000D02*
X18580000Y-10875000D01*
X18580000Y-10910000D02*
X18610000Y-10940000D01*
X18610000Y-10910000D02*
X18580000Y-10940000D01*
X18580000Y-10975000D02*
X18610000Y-11005000D01*
X18610000Y-10975000D02*
X18580000Y-11005000D01*
X18630000Y-9775000D02*
X18660000Y-9805000D01*
X18660000Y-9775000D02*
X18630000Y-9805000D01*
X18630000Y-9860000D02*
X18660000Y-9890000D01*
X18660000Y-9860000D02*
X18630000Y-9890000D01*
X18645000Y-10845000D02*
X18675000Y-10875000D01*
X18675000Y-10845000D02*
X18645000Y-10875000D01*
X18645000Y-10910000D02*
X18675000Y-10940000D01*
X18675000Y-10910000D02*
X18645000Y-10940000D01*
X18645000Y-10975000D02*
X18675000Y-11005000D01*
X18675000Y-10975000D02*
X18645000Y-11005000D01*
X18910000Y-8630000D02*
X18940000Y-8660000D01*
X18940000Y-8630000D02*
X18910000Y-8660000D01*
X18910000Y-8705000D02*
X18940000Y-8735000D01*
X18940000Y-8705000D02*
X18910000Y-8735000D01*
X18910000Y-8780000D02*
X18940000Y-8810000D01*
X18940000Y-8780000D02*
X18910000Y-8810000D01*
X18910000Y-8855000D02*
X18940000Y-8885000D01*
X18940000Y-8855000D02*
X18910000Y-8885000D01*
X18985000Y-8630000D02*
X19015000Y-8660000D01*
X19015000Y-8630000D02*
X18985000Y-8660000D01*
X18985000Y-8705000D02*
X19015000Y-8735000D01*
X19015000Y-8705000D02*
X18985000Y-8735000D01*
X18985000Y-8780000D02*
X19015000Y-8810000D01*
X19015000Y-8780000D02*
X18985000Y-8810000D01*
X18985000Y-8855000D02*
X19015000Y-8885000D01*
X19015000Y-8855000D02*
X18985000Y-8885000D01*
X18995000Y-11545000D02*
X19025000Y-11575000D01*
X19025000Y-11545000D02*
X18995000Y-11575000D01*
X18995000Y-11615000D02*
X19025000Y-11645000D01*
X19025000Y-11615000D02*
X18995000Y-11645000D01*
X19165000Y-9315000D02*
X19195000Y-9345000D01*
X19195000Y-9315000D02*
X19165000Y-9345000D01*
X19165000Y-9465000D02*
X19195000Y-9495000D01*
X19195000Y-9465000D02*
X19165000Y-9495000D01*
X19165000Y-9615000D02*
X19195000Y-9645000D01*
X19195000Y-9615000D02*
X19165000Y-9645000D01*
X19235000Y-7065000D02*
X19265000Y-7095000D01*
X19265000Y-7065000D02*
X19235000Y-7095000D01*
X19235000Y-7175000D02*
X19265000Y-7205000D01*
X19265000Y-7175000D02*
X19235000Y-7205000D01*
X19235000Y-7285000D02*
X19265000Y-7315000D01*
X19265000Y-7285000D02*
X19235000Y-7315000D01*
X19235000Y-7395000D02*
X19265000Y-7425000D01*
X19265000Y-7395000D02*
X19235000Y-7425000D01*
X19235000Y-7510000D02*
X19265000Y-7540000D01*
X19265000Y-7510000D02*
X19235000Y-7540000D01*
X19235000Y-7620000D02*
X19265000Y-7650000D01*
X19265000Y-7620000D02*
X19235000Y-7650000D01*
X19305000Y-9315000D02*
X19335000Y-9345000D01*
X19335000Y-9315000D02*
X19305000Y-9345000D01*
X19305000Y-9465000D02*
X19335000Y-9495000D01*
X19335000Y-9465000D02*
X19305000Y-9495000D01*
X19305000Y-9615000D02*
X19335000Y-9645000D01*
X19335000Y-9615000D02*
X19305000Y-9645000D01*
X19350000Y-7065000D02*
X19380000Y-7095000D01*
X19380000Y-7065000D02*
X19350000Y-7095000D01*
X19350000Y-7175000D02*
X19380000Y-7205000D01*
X19380000Y-7175000D02*
X19350000Y-7205000D01*
X19350000Y-7285000D02*
X19380000Y-7315000D01*
X19380000Y-7285000D02*
X19350000Y-7315000D01*
X19350000Y-7395000D02*
X19380000Y-7425000D01*
X19380000Y-7395000D02*
X19350000Y-7425000D01*
X19350000Y-7510000D02*
X19380000Y-7540000D01*
X19380000Y-7510000D02*
X19350000Y-7540000D01*
X19350000Y-7620000D02*
X19380000Y-7650000D01*
X19380000Y-7620000D02*
X19350000Y-7650000D01*
X19390000Y-11145000D02*
X19420000Y-11175000D01*
X19420000Y-11145000D02*
X19390000Y-11175000D01*
X19390000Y-11210000D02*
X19420000Y-11240000D01*
X19420000Y-11210000D02*
X19390000Y-11240000D01*
X19390000Y-11275000D02*
X19420000Y-11305000D01*
X19420000Y-11275000D02*
X19390000Y-11305000D01*
X19390000Y-11340000D02*
X19420000Y-11370000D01*
X19420000Y-11340000D02*
X19390000Y-11370000D01*
X19435000Y-9165000D02*
X19465000Y-9195000D01*
X19465000Y-9165000D02*
X19435000Y-9195000D01*
X19440000Y-9015000D02*
X19470000Y-9045000D01*
X19470000Y-9015000D02*
X19440000Y-9045000D01*
X19445000Y-9315000D02*
X19475000Y-9345000D01*
X19475000Y-9315000D02*
X19445000Y-9345000D01*
X19445000Y-9465000D02*
X19475000Y-9495000D01*
X19475000Y-9465000D02*
X19445000Y-9495000D01*
X19445000Y-9615000D02*
X19475000Y-9645000D01*
X19475000Y-9615000D02*
X19445000Y-9645000D01*
X19465000Y-7065000D02*
X19495000Y-7095000D01*
X19495000Y-7065000D02*
X19465000Y-7095000D01*
X19465000Y-7175000D02*
X19495000Y-7205000D01*
X19495000Y-7175000D02*
X19465000Y-7205000D01*
X19465000Y-7285000D02*
X19495000Y-7315000D01*
X19495000Y-7285000D02*
X19465000Y-7315000D01*
X19465000Y-7395000D02*
X19495000Y-7425000D01*
X19495000Y-7395000D02*
X19465000Y-7425000D01*
X19465000Y-7510000D02*
X19495000Y-7540000D01*
X19495000Y-7510000D02*
X19465000Y-7540000D01*
X19465000Y-7620000D02*
X19495000Y-7650000D01*
X19495000Y-7620000D02*
X19465000Y-7650000D01*
X19520000Y-8875000D02*
X19550000Y-8905000D01*
X19550000Y-8875000D02*
X19520000Y-8905000D01*
X19580000Y-7065000D02*
X19610000Y-7095000D01*
X19610000Y-7065000D02*
X19580000Y-7095000D01*
X19580000Y-7175000D02*
X19610000Y-7205000D01*
X19610000Y-7175000D02*
X19580000Y-7205000D01*
X19580000Y-7285000D02*
X19610000Y-7315000D01*
X19610000Y-7285000D02*
X19580000Y-7315000D01*
X19580000Y-7395000D02*
X19610000Y-7425000D01*
X19610000Y-7395000D02*
X19580000Y-7425000D01*
X19580000Y-7510000D02*
X19610000Y-7540000D01*
X19610000Y-7510000D02*
X19580000Y-7540000D01*
X19580000Y-7620000D02*
X19610000Y-7650000D01*
X19610000Y-7620000D02*
X19580000Y-7650000D01*
X19585000Y-9315000D02*
X19615000Y-9345000D01*
X19615000Y-9315000D02*
X19585000Y-9345000D01*
X19585000Y-9465000D02*
X19615000Y-9495000D01*
X19615000Y-9465000D02*
X19585000Y-9495000D01*
X19585000Y-9615000D02*
X19615000Y-9645000D01*
X19615000Y-9615000D02*
X19585000Y-9645000D01*
X19590000Y-9015000D02*
X19620000Y-9045000D01*
X19620000Y-9015000D02*
X19590000Y-9045000D01*
X19590000Y-9165000D02*
X19620000Y-9195000D01*
X19620000Y-9165000D02*
X19590000Y-9195000D01*
X19695000Y-7065000D02*
X19725000Y-7095000D01*
X19725000Y-7065000D02*
X19695000Y-7095000D01*
X19695000Y-7175000D02*
X19725000Y-7205000D01*
X19725000Y-7175000D02*
X19695000Y-7205000D01*
X19695000Y-7285000D02*
X19725000Y-7315000D01*
X19725000Y-7285000D02*
X19695000Y-7315000D01*
X19695000Y-7395000D02*
X19725000Y-7425000D01*
X19725000Y-7395000D02*
X19695000Y-7425000D01*
X19695000Y-7510000D02*
X19725000Y-7540000D01*
X19725000Y-7510000D02*
X19695000Y-7540000D01*
X19695000Y-7620000D02*
X19725000Y-7650000D01*
X19725000Y-7620000D02*
X19695000Y-7650000D01*
X19725000Y-9315000D02*
X19755000Y-9345000D01*
X19755000Y-9315000D02*
X19725000Y-9345000D01*
X19725000Y-9465000D02*
X19755000Y-9495000D01*
X19755000Y-9465000D02*
X19725000Y-9495000D01*
X19725000Y-9615000D02*
X19755000Y-9645000D01*
X19755000Y-9615000D02*
X19725000Y-9645000D01*
X19730000Y-9015000D02*
X19760000Y-9045000D01*
X19760000Y-9015000D02*
X19730000Y-9045000D01*
X19730000Y-9165000D02*
X19760000Y-9195000D01*
X19760000Y-9165000D02*
X19730000Y-9195000D01*
X19865000Y-8715000D02*
X19895000Y-8745000D01*
X19895000Y-8715000D02*
X19865000Y-8745000D01*
X19865000Y-8865000D02*
X19895000Y-8895000D01*
X19895000Y-8865000D02*
X19865000Y-8895000D01*
X19865000Y-9015000D02*
X19895000Y-9045000D01*
X19895000Y-9015000D02*
X19865000Y-9045000D01*
X19865000Y-9165000D02*
X19895000Y-9195000D01*
X19895000Y-9165000D02*
X19865000Y-9195000D01*
X19865000Y-9315000D02*
X19895000Y-9345000D01*
X19895000Y-9315000D02*
X19865000Y-9345000D01*
X19865000Y-9465000D02*
X19895000Y-9495000D01*
X19895000Y-9465000D02*
X19865000Y-9495000D01*
X19865000Y-9615000D02*
X19895000Y-9645000D01*
X19895000Y-9615000D02*
X19865000Y-9645000D01*
X20140000Y-9775000D02*
X20170000Y-9805000D01*
X20170000Y-9775000D02*
X20140000Y-9805000D01*
X20140000Y-9860000D02*
X20170000Y-9890000D01*
X20170000Y-9860000D02*
X20140000Y-9890000D01*
X20225000Y-9775000D02*
X20255000Y-9805000D01*
X20255000Y-9775000D02*
X20225000Y-9805000D01*
X20225000Y-9860000D02*
X20255000Y-9890000D01*
X20255000Y-9860000D02*
X20225000Y-9890000D01*
X20230000Y-11150000D02*
X20260000Y-11180000D01*
X20260000Y-11150000D02*
X20230000Y-11180000D01*
X20230000Y-11215000D02*
X20260000Y-11245000D01*
X20260000Y-11215000D02*
X20230000Y-11245000D01*
X20230000Y-11280000D02*
X20260000Y-11310000D01*
X20260000Y-11280000D02*
X20230000Y-11310000D01*
X20230000Y-11345000D02*
X20260000Y-11375000D01*
X20260000Y-11345000D02*
X20230000Y-11375000D01*
X20310000Y-9775000D02*
X20340000Y-9805000D01*
X20340000Y-9775000D02*
X20310000Y-9805000D01*
X20310000Y-9860000D02*
X20340000Y-9890000D01*
X20340000Y-9860000D02*
X20310000Y-9890000D01*
X20365000Y-10845000D02*
X20395000Y-10875000D01*
X20395000Y-10845000D02*
X20365000Y-10875000D01*
X20365000Y-10910000D02*
X20395000Y-10940000D01*
X20395000Y-10910000D02*
X20365000Y-10940000D01*
X20365000Y-10975000D02*
X20395000Y-11005000D01*
X20395000Y-10975000D02*
X20365000Y-11005000D01*
X20395000Y-9775000D02*
X20425000Y-9805000D01*
X20425000Y-9775000D02*
X20395000Y-9805000D01*
X20395000Y-9860000D02*
X20425000Y-9890000D01*
X20425000Y-9860000D02*
X20395000Y-9890000D01*
X20430000Y-10845000D02*
X20460000Y-10875000D01*
X20460000Y-10845000D02*
X20430000Y-10875000D01*
X20430000Y-10910000D02*
X20460000Y-10940000D01*
X20460000Y-10910000D02*
X20430000Y-10940000D01*
X20430000Y-10975000D02*
X20460000Y-11005000D01*
X20460000Y-10975000D02*
X20430000Y-11005000D01*
X20480000Y-9775000D02*
X20510000Y-9805000D01*
X20510000Y-9775000D02*
X20480000Y-9805000D01*
X20480000Y-9860000D02*
X20510000Y-9890000D01*
X20510000Y-9860000D02*
X20480000Y-9890000D01*
X20495000Y-10845000D02*
X20525000Y-10875000D01*
X20525000Y-10845000D02*
X20495000Y-10875000D01*
X20495000Y-10910000D02*
X20525000Y-10940000D01*
X20525000Y-10910000D02*
X20495000Y-10940000D01*
X20495000Y-10975000D02*
X20525000Y-11005000D01*
X20525000Y-10975000D02*
X20495000Y-11005000D01*
X20760000Y-8630000D02*
X20790000Y-8660000D01*
X20790000Y-8630000D02*
X20760000Y-8660000D01*
X20760000Y-8705000D02*
X20790000Y-8735000D01*
X20790000Y-8705000D02*
X20760000Y-8735000D01*
X20760000Y-8780000D02*
X20790000Y-8810000D01*
X20790000Y-8780000D02*
X20760000Y-8810000D01*
X20760000Y-8855000D02*
X20790000Y-8885000D01*
X20790000Y-8855000D02*
X20760000Y-8885000D01*
X20835000Y-8630000D02*
X20865000Y-8660000D01*
X20865000Y-8630000D02*
X20835000Y-8660000D01*
X20835000Y-8705000D02*
X20865000Y-8735000D01*
X20865000Y-8705000D02*
X20835000Y-8735000D01*
X20835000Y-8780000D02*
X20865000Y-8810000D01*
X20865000Y-8780000D02*
X20835000Y-8810000D01*
X20835000Y-8855000D02*
X20865000Y-8885000D01*
X20865000Y-8855000D02*
X20835000Y-8885000D01*
X20845000Y-11545000D02*
X20875000Y-11575000D01*
X20875000Y-11545000D02*
X20845000Y-11575000D01*
X20845000Y-11615000D02*
X20875000Y-11645000D01*
X20875000Y-11615000D02*
X20845000Y-11645000D01*
X21015000Y-9315000D02*
X21045000Y-9345000D01*
X21045000Y-9315000D02*
X21015000Y-9345000D01*
X21015000Y-9465000D02*
X21045000Y-9495000D01*
X21045000Y-9465000D02*
X21015000Y-9495000D01*
X21015000Y-9615000D02*
X21045000Y-9645000D01*
X21045000Y-9615000D02*
X21015000Y-9645000D01*
X21085000Y-7065000D02*
X21115000Y-7095000D01*
X21115000Y-7065000D02*
X21085000Y-7095000D01*
X21085000Y-7175000D02*
X21115000Y-7205000D01*
X21115000Y-7175000D02*
X21085000Y-7205000D01*
X21085000Y-7285000D02*
X21115000Y-7315000D01*
X21115000Y-7285000D02*
X21085000Y-7315000D01*
X21085000Y-7395000D02*
X21115000Y-7425000D01*
X21115000Y-7395000D02*
X21085000Y-7425000D01*
X21085000Y-7510000D02*
X21115000Y-7540000D01*
X21115000Y-7510000D02*
X21085000Y-7540000D01*
X21085000Y-7620000D02*
X21115000Y-7650000D01*
X21115000Y-7620000D02*
X21085000Y-7650000D01*
X21155000Y-9315000D02*
X21185000Y-9345000D01*
X21185000Y-9315000D02*
X21155000Y-9345000D01*
X21155000Y-9465000D02*
X21185000Y-9495000D01*
X21185000Y-9465000D02*
X21155000Y-9495000D01*
X21155000Y-9615000D02*
X21185000Y-9645000D01*
X21185000Y-9615000D02*
X21155000Y-9645000D01*
X21200000Y-7065000D02*
X21230000Y-7095000D01*
X21230000Y-7065000D02*
X21200000Y-7095000D01*
X21200000Y-7175000D02*
X21230000Y-7205000D01*
X21230000Y-7175000D02*
X21200000Y-7205000D01*
X21200000Y-7285000D02*
X21230000Y-7315000D01*
X21230000Y-7285000D02*
X21200000Y-7315000D01*
X21200000Y-7395000D02*
X21230000Y-7425000D01*
X21230000Y-7395000D02*
X21200000Y-7425000D01*
X21200000Y-7510000D02*
X21230000Y-7540000D01*
X21230000Y-7510000D02*
X21200000Y-7540000D01*
X21200000Y-7620000D02*
X21230000Y-7650000D01*
X21230000Y-7620000D02*
X21200000Y-7650000D01*
X21240000Y-11145000D02*
X21270000Y-11175000D01*
X21270000Y-11145000D02*
X21240000Y-11175000D01*
X21240000Y-11210000D02*
X21270000Y-11240000D01*
X21270000Y-11210000D02*
X21240000Y-11240000D01*
X21240000Y-11275000D02*
X21270000Y-11305000D01*
X21270000Y-11275000D02*
X21240000Y-11305000D01*
X21240000Y-11340000D02*
X21270000Y-11370000D01*
X21270000Y-11340000D02*
X21240000Y-11370000D01*
X21285000Y-9165000D02*
X21315000Y-9195000D01*
X21315000Y-9165000D02*
X21285000Y-9195000D01*
X21290000Y-9015000D02*
X21320000Y-9045000D01*
X21320000Y-9015000D02*
X21290000Y-9045000D01*
X21295000Y-9315000D02*
X21325000Y-9345000D01*
X21325000Y-9315000D02*
X21295000Y-9345000D01*
X21295000Y-9465000D02*
X21325000Y-9495000D01*
X21325000Y-9465000D02*
X21295000Y-9495000D01*
X21295000Y-9615000D02*
X21325000Y-9645000D01*
X21325000Y-9615000D02*
X21295000Y-9645000D01*
X21315000Y-7065000D02*
X21345000Y-7095000D01*
X21345000Y-7065000D02*
X21315000Y-7095000D01*
X21315000Y-7175000D02*
X21345000Y-7205000D01*
X21345000Y-7175000D02*
X21315000Y-7205000D01*
X21315000Y-7285000D02*
X21345000Y-7315000D01*
X21345000Y-7285000D02*
X21315000Y-7315000D01*
X21315000Y-7395000D02*
X21345000Y-7425000D01*
X21345000Y-7395000D02*
X21315000Y-7425000D01*
X21315000Y-7510000D02*
X21345000Y-7540000D01*
X21345000Y-7510000D02*
X21315000Y-7540000D01*
X21315000Y-7620000D02*
X21345000Y-7650000D01*
X21345000Y-7620000D02*
X21315000Y-7650000D01*
X21370000Y-8875000D02*
X21400000Y-8905000D01*
X21400000Y-8875000D02*
X21370000Y-8905000D01*
X21430000Y-7065000D02*
X21460000Y-7095000D01*
X21460000Y-7065000D02*
X21430000Y-7095000D01*
X21430000Y-7175000D02*
X21460000Y-7205000D01*
X21460000Y-7175000D02*
X21430000Y-7205000D01*
X21430000Y-7285000D02*
X21460000Y-7315000D01*
X21460000Y-7285000D02*
X21430000Y-7315000D01*
X21430000Y-7395000D02*
X21460000Y-7425000D01*
X21460000Y-7395000D02*
X21430000Y-7425000D01*
X21430000Y-7510000D02*
X21460000Y-7540000D01*
X21460000Y-7510000D02*
X21430000Y-7540000D01*
X21430000Y-7620000D02*
X21460000Y-7650000D01*
X21460000Y-7620000D02*
X21430000Y-7650000D01*
X21435000Y-9315000D02*
X21465000Y-9345000D01*
X21465000Y-9315000D02*
X21435000Y-9345000D01*
X21435000Y-9465000D02*
X21465000Y-9495000D01*
X21465000Y-9465000D02*
X21435000Y-9495000D01*
X21435000Y-9615000D02*
X21465000Y-9645000D01*
X21465000Y-9615000D02*
X21435000Y-9645000D01*
X21440000Y-9015000D02*
X21470000Y-9045000D01*
X21470000Y-9015000D02*
X21440000Y-9045000D01*
X21440000Y-9165000D02*
X21470000Y-9195000D01*
X21470000Y-9165000D02*
X21440000Y-9195000D01*
X21545000Y-7065000D02*
X21575000Y-7095000D01*
X21575000Y-7065000D02*
X21545000Y-7095000D01*
X21545000Y-7175000D02*
X21575000Y-7205000D01*
X21575000Y-7175000D02*
X21545000Y-7205000D01*
X21545000Y-7285000D02*
X21575000Y-7315000D01*
X21575000Y-7285000D02*
X21545000Y-7315000D01*
X21545000Y-7395000D02*
X21575000Y-7425000D01*
X21575000Y-7395000D02*
X21545000Y-7425000D01*
X21545000Y-7510000D02*
X21575000Y-7540000D01*
X21575000Y-7510000D02*
X21545000Y-7540000D01*
X21545000Y-7620000D02*
X21575000Y-7650000D01*
X21575000Y-7620000D02*
X21545000Y-7650000D01*
X21575000Y-9315000D02*
X21605000Y-9345000D01*
X21605000Y-9315000D02*
X21575000Y-9345000D01*
X21575000Y-9465000D02*
X21605000Y-9495000D01*
X21605000Y-9465000D02*
X21575000Y-9495000D01*
X21575000Y-9615000D02*
X21605000Y-9645000D01*
X21605000Y-9615000D02*
X21575000Y-9645000D01*
X21580000Y-9015000D02*
X21610000Y-9045000D01*
X21610000Y-9015000D02*
X21580000Y-9045000D01*
X21580000Y-9165000D02*
X21610000Y-9195000D01*
X21610000Y-9165000D02*
X21580000Y-9195000D01*
X21715000Y-8715000D02*
X21745000Y-8745000D01*
X21745000Y-8715000D02*
X21715000Y-8745000D01*
X21715000Y-8865000D02*
X21745000Y-8895000D01*
X21745000Y-8865000D02*
X21715000Y-8895000D01*
X21715000Y-9015000D02*
X21745000Y-9045000D01*
X21745000Y-9015000D02*
X21715000Y-9045000D01*
X21715000Y-9165000D02*
X21745000Y-9195000D01*
X21745000Y-9165000D02*
X21715000Y-9195000D01*
X21715000Y-9315000D02*
X21745000Y-9345000D01*
X21745000Y-9315000D02*
X21715000Y-9345000D01*
X21715000Y-9465000D02*
X21745000Y-9495000D01*
X21745000Y-9465000D02*
X21715000Y-9495000D01*
X21715000Y-9615000D02*
X21745000Y-9645000D01*
X21745000Y-9615000D02*
X21715000Y-9645000D01*
X21990000Y-9775000D02*
X22020000Y-9805000D01*
X22020000Y-9775000D02*
X21990000Y-9805000D01*
X21990000Y-9860000D02*
X22020000Y-9890000D01*
X22020000Y-9860000D02*
X21990000Y-9890000D01*
X22075000Y-9775000D02*
X22105000Y-9805000D01*
X22105000Y-9775000D02*
X22075000Y-9805000D01*
X22075000Y-9860000D02*
X22105000Y-9890000D01*
X22105000Y-9860000D02*
X22075000Y-9890000D01*
X22080000Y-11150000D02*
X22110000Y-11180000D01*
X22110000Y-11150000D02*
X22080000Y-11180000D01*
X22080000Y-11215000D02*
X22110000Y-11245000D01*
X22110000Y-11215000D02*
X22080000Y-11245000D01*
X22080000Y-11280000D02*
X22110000Y-11310000D01*
X22110000Y-11280000D02*
X22080000Y-11310000D01*
X22080000Y-11345000D02*
X22110000Y-11375000D01*
X22110000Y-11345000D02*
X22080000Y-11375000D01*
X22160000Y-9775000D02*
X22190000Y-9805000D01*
X22190000Y-9775000D02*
X22160000Y-9805000D01*
X22160000Y-9860000D02*
X22190000Y-9890000D01*
X22190000Y-9860000D02*
X22160000Y-9890000D01*
X22215000Y-10845000D02*
X22245000Y-10875000D01*
X22245000Y-10845000D02*
X22215000Y-10875000D01*
X22215000Y-10910000D02*
X22245000Y-10940000D01*
X22245000Y-10910000D02*
X22215000Y-10940000D01*
X22215000Y-10975000D02*
X22245000Y-11005000D01*
X22245000Y-10975000D02*
X22215000Y-11005000D01*
X22245000Y-9775000D02*
X22275000Y-9805000D01*
X22275000Y-9775000D02*
X22245000Y-9805000D01*
X22245000Y-9860000D02*
X22275000Y-9890000D01*
X22275000Y-9860000D02*
X22245000Y-9890000D01*
X22280000Y-10845000D02*
X22310000Y-10875000D01*
X22310000Y-10845000D02*
X22280000Y-10875000D01*
X22280000Y-10910000D02*
X22310000Y-10940000D01*
X22310000Y-10910000D02*
X22280000Y-10940000D01*
X22280000Y-10975000D02*
X22310000Y-11005000D01*
X22310000Y-10975000D02*
X22280000Y-11005000D01*
X22330000Y-9775000D02*
X22360000Y-9805000D01*
X22360000Y-9775000D02*
X22330000Y-9805000D01*
X22330000Y-9860000D02*
X22360000Y-9890000D01*
X22360000Y-9860000D02*
X22330000Y-9890000D01*
X22345000Y-10845000D02*
X22375000Y-10875000D01*
X22375000Y-10845000D02*
X22345000Y-10875000D01*
X22345000Y-10910000D02*
X22375000Y-10940000D01*
X22375000Y-10910000D02*
X22345000Y-10940000D01*
X22345000Y-10975000D02*
X22375000Y-11005000D01*
X22375000Y-10975000D02*
X22345000Y-11005000D01*
X22610000Y-8630000D02*
X22640000Y-8660000D01*
X22640000Y-8630000D02*
X22610000Y-8660000D01*
X22610000Y-8705000D02*
X22640000Y-8735000D01*
X22640000Y-8705000D02*
X22610000Y-8735000D01*
X22610000Y-8780000D02*
X22640000Y-8810000D01*
X22640000Y-8780000D02*
X22610000Y-8810000D01*
X22610000Y-8855000D02*
X22640000Y-8885000D01*
X22640000Y-8855000D02*
X22610000Y-8885000D01*
X22685000Y-8630000D02*
X22715000Y-8660000D01*
X22715000Y-8630000D02*
X22685000Y-8660000D01*
X22685000Y-8705000D02*
X22715000Y-8735000D01*
X22715000Y-8705000D02*
X22685000Y-8735000D01*
X22685000Y-8780000D02*
X22715000Y-8810000D01*
X22715000Y-8780000D02*
X22685000Y-8810000D01*
X22685000Y-8855000D02*
X22715000Y-8885000D01*
X22715000Y-8855000D02*
X22685000Y-8885000D01*
X22695000Y-11545000D02*
X22725000Y-11575000D01*
X22725000Y-11545000D02*
X22695000Y-11575000D01*
X22695000Y-11615000D02*
X22725000Y-11645000D01*
X22725000Y-11615000D02*
X22695000Y-11645000D01*
X22865000Y-9315000D02*
X22895000Y-9345000D01*
X22895000Y-9315000D02*
X22865000Y-9345000D01*
X22865000Y-9465000D02*
X22895000Y-9495000D01*
X22895000Y-9465000D02*
X22865000Y-9495000D01*
X22865000Y-9615000D02*
X22895000Y-9645000D01*
X22895000Y-9615000D02*
X22865000Y-9645000D01*
X22935000Y-7065000D02*
X22965000Y-7095000D01*
X22965000Y-7065000D02*
X22935000Y-7095000D01*
X22935000Y-7175000D02*
X22965000Y-7205000D01*
X22965000Y-7175000D02*
X22935000Y-7205000D01*
X22935000Y-7285000D02*
X22965000Y-7315000D01*
X22965000Y-7285000D02*
X22935000Y-7315000D01*
X22935000Y-7395000D02*
X22965000Y-7425000D01*
X22965000Y-7395000D02*
X22935000Y-7425000D01*
X22935000Y-7510000D02*
X22965000Y-7540000D01*
X22965000Y-7510000D02*
X22935000Y-7540000D01*
X22935000Y-7620000D02*
X22965000Y-7650000D01*
X22965000Y-7620000D02*
X22935000Y-7650000D01*
X23005000Y-9315000D02*
X23035000Y-9345000D01*
X23035000Y-9315000D02*
X23005000Y-9345000D01*
X23005000Y-9465000D02*
X23035000Y-9495000D01*
X23035000Y-9465000D02*
X23005000Y-9495000D01*
X23005000Y-9615000D02*
X23035000Y-9645000D01*
X23035000Y-9615000D02*
X23005000Y-9645000D01*
X23050000Y-7065000D02*
X23080000Y-7095000D01*
X23080000Y-7065000D02*
X23050000Y-7095000D01*
X23050000Y-7175000D02*
X23080000Y-7205000D01*
X23080000Y-7175000D02*
X23050000Y-7205000D01*
X23050000Y-7285000D02*
X23080000Y-7315000D01*
X23080000Y-7285000D02*
X23050000Y-7315000D01*
X23050000Y-7395000D02*
X23080000Y-7425000D01*
X23080000Y-7395000D02*
X23050000Y-7425000D01*
X23050000Y-7510000D02*
X23080000Y-7540000D01*
X23080000Y-7510000D02*
X23050000Y-7540000D01*
X23050000Y-7620000D02*
X23080000Y-7650000D01*
X23080000Y-7620000D02*
X23050000Y-7650000D01*
X23090000Y-11145000D02*
X23120000Y-11175000D01*
X23120000Y-11145000D02*
X23090000Y-11175000D01*
X23090000Y-11210000D02*
X23120000Y-11240000D01*
X23120000Y-11210000D02*
X23090000Y-11240000D01*
X23090000Y-11275000D02*
X23120000Y-11305000D01*
X23120000Y-11275000D02*
X23090000Y-11305000D01*
X23090000Y-11340000D02*
X23120000Y-11370000D01*
X23120000Y-11340000D02*
X23090000Y-11370000D01*
X23135000Y-9165000D02*
X23165000Y-9195000D01*
X23165000Y-9165000D02*
X23135000Y-9195000D01*
X23140000Y-9015000D02*
X23170000Y-9045000D01*
X23170000Y-9015000D02*
X23140000Y-9045000D01*
X23145000Y-9315000D02*
X23175000Y-9345000D01*
X23175000Y-9315000D02*
X23145000Y-9345000D01*
X23145000Y-9465000D02*
X23175000Y-9495000D01*
X23175000Y-9465000D02*
X23145000Y-9495000D01*
X23145000Y-9615000D02*
X23175000Y-9645000D01*
X23175000Y-9615000D02*
X23145000Y-9645000D01*
X23165000Y-7065000D02*
X23195000Y-7095000D01*
X23195000Y-7065000D02*
X23165000Y-7095000D01*
X23165000Y-7175000D02*
X23195000Y-7205000D01*
X23195000Y-7175000D02*
X23165000Y-7205000D01*
X23165000Y-7285000D02*
X23195000Y-7315000D01*
X23195000Y-7285000D02*
X23165000Y-7315000D01*
X23165000Y-7395000D02*
X23195000Y-7425000D01*
X23195000Y-7395000D02*
X23165000Y-7425000D01*
X23165000Y-7510000D02*
X23195000Y-7540000D01*
X23195000Y-7510000D02*
X23165000Y-7540000D01*
X23165000Y-7620000D02*
X23195000Y-7650000D01*
X23195000Y-7620000D02*
X23165000Y-7650000D01*
X23220000Y-8875000D02*
X23250000Y-8905000D01*
X23250000Y-8875000D02*
X23220000Y-8905000D01*
X23280000Y-7065000D02*
X23310000Y-7095000D01*
X23310000Y-7065000D02*
X23280000Y-7095000D01*
X23280000Y-7175000D02*
X23310000Y-7205000D01*
X23310000Y-7175000D02*
X23280000Y-7205000D01*
X23280000Y-7285000D02*
X23310000Y-7315000D01*
X23310000Y-7285000D02*
X23280000Y-7315000D01*
X23280000Y-7395000D02*
X23310000Y-7425000D01*
X23310000Y-7395000D02*
X23280000Y-7425000D01*
X23280000Y-7510000D02*
X23310000Y-7540000D01*
X23310000Y-7510000D02*
X23280000Y-7540000D01*
X23280000Y-7620000D02*
X23310000Y-7650000D01*
X23310000Y-7620000D02*
X23280000Y-7650000D01*
X23285000Y-9315000D02*
X23315000Y-9345000D01*
X23315000Y-9315000D02*
X23285000Y-9345000D01*
X23285000Y-9465000D02*
X23315000Y-9495000D01*
X23315000Y-9465000D02*
X23285000Y-9495000D01*
X23285000Y-9615000D02*
X23315000Y-9645000D01*
X23315000Y-9615000D02*
X23285000Y-9645000D01*
X23290000Y-9015000D02*
X23320000Y-9045000D01*
X23320000Y-9015000D02*
X23290000Y-9045000D01*
X23290000Y-9165000D02*
X23320000Y-9195000D01*
X23320000Y-9165000D02*
X23290000Y-9195000D01*
X23395000Y-7065000D02*
X23425000Y-7095000D01*
X23425000Y-7065000D02*
X23395000Y-7095000D01*
X23395000Y-7175000D02*
X23425000Y-7205000D01*
X23425000Y-7175000D02*
X23395000Y-7205000D01*
X23395000Y-7285000D02*
X23425000Y-7315000D01*
X23425000Y-7285000D02*
X23395000Y-7315000D01*
X23395000Y-7395000D02*
X23425000Y-7425000D01*
X23425000Y-7395000D02*
X23395000Y-7425000D01*
X23395000Y-7510000D02*
X23425000Y-7540000D01*
X23425000Y-7510000D02*
X23395000Y-7540000D01*
X23395000Y-7620000D02*
X23425000Y-7650000D01*
X23425000Y-7620000D02*
X23395000Y-7650000D01*
X23425000Y-9315000D02*
X23455000Y-9345000D01*
X23455000Y-9315000D02*
X23425000Y-9345000D01*
X23425000Y-9465000D02*
X23455000Y-9495000D01*
X23455000Y-9465000D02*
X23425000Y-9495000D01*
X23425000Y-9615000D02*
X23455000Y-9645000D01*
X23455000Y-9615000D02*
X23425000Y-9645000D01*
X23430000Y-9015000D02*
X23460000Y-9045000D01*
X23460000Y-9015000D02*
X23430000Y-9045000D01*
X23430000Y-9165000D02*
X23460000Y-9195000D01*
X23460000Y-9165000D02*
X23430000Y-9195000D01*
X23575000Y-8715000D02*
X23605000Y-8745000D01*
X23605000Y-8715000D02*
X23575000Y-8745000D01*
X23575000Y-8865000D02*
X23605000Y-8895000D01*
X23605000Y-8865000D02*
X23575000Y-8895000D01*
X23575000Y-9015000D02*
X23605000Y-9045000D01*
X23605000Y-9015000D02*
X23575000Y-9045000D01*
X23575000Y-9165000D02*
X23605000Y-9195000D01*
X23605000Y-9165000D02*
X23575000Y-9195000D01*
X23575000Y-9315000D02*
X23605000Y-9345000D01*
X23605000Y-9315000D02*
X23575000Y-9345000D01*
X23575000Y-9465000D02*
X23605000Y-9495000D01*
X23605000Y-9465000D02*
X23575000Y-9495000D01*
X23575000Y-9615000D02*
X23605000Y-9645000D01*
X23605000Y-9615000D02*
X23575000Y-9645000D01*
X6676250Y-9001500D02*
G75*
G02*
X6576250Y-9001500I-50000J0D01*
G01*
X6576250Y-9001500D02*
G75*
G02*
X6676250Y-9001500I50000J0D01*
G01*
X6676250Y-9255500D02*
G75*
G02*
X6576250Y-9255500I-50000J0D01*
G01*
X6576250Y-9255500D02*
G75*
G02*
X6676250Y-9255500I50000J0D01*
G01*
X6676250Y-9509500D02*
G75*
G02*
X6576250Y-9509500I-50000J0D01*
G01*
X6576250Y-9509500D02*
G75*
G02*
X6676250Y-9509500I50000J0D01*
G01*
X6736000Y-12410000D02*
G75*
G02*
X6636000Y-12410000I-50000J0D01*
G01*
X6636000Y-12410000D02*
G75*
G02*
X6736000Y-12410000I50000J0D01*
G01*
X6780000Y-10426000D02*
G75*
G02*
X6680000Y-10426000I-50000J0D01*
G01*
X6680000Y-10426000D02*
G75*
G02*
X6780000Y-10426000I50000J0D01*
G01*
X6780000Y-10680000D02*
G75*
G02*
X6680000Y-10680000I-50000J0D01*
G01*
X6680000Y-10680000D02*
G75*
G02*
X6780000Y-10680000I50000J0D01*
G01*
X6780000Y-11326000D02*
G75*
G02*
X6680000Y-11326000I-50000J0D01*
G01*
X6680000Y-11326000D02*
G75*
G02*
X6780000Y-11326000I50000J0D01*
G01*
X6780000Y-11580000D02*
G75*
G02*
X6680000Y-11580000I-50000J0D01*
G01*
X6680000Y-11580000D02*
G75*
G02*
X6780000Y-11580000I50000J0D01*
G01*
X6930250Y-9001500D02*
G75*
G02*
X6830250Y-9001500I-50000J0D01*
G01*
X6830250Y-9001500D02*
G75*
G02*
X6930250Y-9001500I50000J0D01*
G01*
X6930250Y-9255500D02*
G75*
G02*
X6830250Y-9255500I-50000J0D01*
G01*
X6830250Y-9255500D02*
G75*
G02*
X6930250Y-9255500I50000J0D01*
G01*
X6930250Y-9509500D02*
G75*
G02*
X6830250Y-9509500I-50000J0D01*
G01*
X6830250Y-9509500D02*
G75*
G02*
X6930250Y-9509500I50000J0D01*
G01*
X6990000Y-12410000D02*
G75*
G02*
X6890000Y-12410000I-50000J0D01*
G01*
X6890000Y-12410000D02*
G75*
G02*
X6990000Y-12410000I50000J0D01*
G01*
X7244000Y-12410000D02*
G75*
G02*
X7144000Y-12410000I-50000J0D01*
G01*
X7144000Y-12410000D02*
G75*
G02*
X7244000Y-12410000I50000J0D01*
G01*
X7498000Y-12410000D02*
G75*
G02*
X7398000Y-12410000I-50000J0D01*
G01*
X7398000Y-12410000D02*
G75*
G02*
X7498000Y-12410000I50000J0D01*
G01*
X7752000Y-12410000D02*
G75*
G02*
X7652000Y-12410000I-50000J0D01*
G01*
X7652000Y-12410000D02*
G75*
G02*
X7752000Y-12410000I50000J0D01*
G01*
X8006000Y-12410000D02*
G75*
G02*
X7906000Y-12410000I-50000J0D01*
G01*
X7906000Y-12410000D02*
G75*
G02*
X8006000Y-12410000I50000J0D01*
G01*
X8260000Y-12410000D02*
G75*
G02*
X8160000Y-12410000I-50000J0D01*
G01*
X8160000Y-12410000D02*
G75*
G02*
X8260000Y-12410000I50000J0D01*
G01*
X8486000Y-11680000D02*
G75*
G02*
X8386000Y-11680000I-50000J0D01*
G01*
X8386000Y-11680000D02*
G75*
G02*
X8486000Y-11680000I50000J0D01*
G01*
X8514000Y-12410000D02*
G75*
G02*
X8414000Y-12410000I-50000J0D01*
G01*
X8414000Y-12410000D02*
G75*
G02*
X8514000Y-12410000I50000J0D01*
G01*
X8740000Y-11680000D02*
G75*
G02*
X8640000Y-11680000I-50000J0D01*
G01*
X8640000Y-11680000D02*
G75*
G02*
X8740000Y-11680000I50000J0D01*
G01*
X8768000Y-12410000D02*
G75*
G02*
X8668000Y-12410000I-50000J0D01*
G01*
X8668000Y-12410000D02*
G75*
G02*
X8768000Y-12410000I50000J0D01*
G01*
X8955000Y-9576000D02*
G75*
G02*
X8855000Y-9576000I-50000J0D01*
G01*
X8855000Y-9576000D02*
G75*
G02*
X8955000Y-9576000I50000J0D01*
G01*
X8955000Y-9830000D02*
G75*
G02*
X8855000Y-9830000I-50000J0D01*
G01*
X8855000Y-9830000D02*
G75*
G02*
X8955000Y-9830000I50000J0D01*
G01*
D13*
X8076000Y-6863750D02*
X8076000Y-7003750D01*
X8006000Y-6933750D02*
X8146000Y-6933750D01*
X8076000Y-7733750D02*
X8076000Y-7873750D01*
X8006000Y-7803750D02*
X8146000Y-7803750D01*
X8584000Y-6863750D02*
X8584000Y-7003750D01*
X8514000Y-6933750D02*
X8654000Y-6933750D01*
X8584000Y-7733750D02*
X8584000Y-7873750D01*
X8514000Y-7803750D02*
X8654000Y-7803750D01*
D11*
X6457880Y-13189184D02*
X6457880Y-12989184D01*
X6457880Y-12989184D02*
X6505499Y-12989184D01*
X6505499Y-12989184D02*
X6534070Y-12998708D01*
X6534070Y-12998708D02*
X6553118Y-13017756D01*
X6553118Y-13017756D02*
X6562641Y-13036803D01*
X6562641Y-13036803D02*
X6572165Y-13074898D01*
X6572165Y-13074898D02*
X6572165Y-13103470D01*
X6572165Y-13103470D02*
X6562641Y-13141565D01*
X6562641Y-13141565D02*
X6553118Y-13160613D01*
X6553118Y-13160613D02*
X6534070Y-13179660D01*
X6534070Y-13179660D02*
X6505499Y-13189184D01*
X6505499Y-13189184D02*
X6457880Y-13189184D01*
X6657880Y-13189184D02*
X6657880Y-13055851D01*
X6657880Y-13093946D02*
X6667403Y-13074898D01*
X6667403Y-13074898D02*
X6676927Y-13065375D01*
X6676927Y-13065375D02*
X6695975Y-13055851D01*
X6695975Y-13055851D02*
X6715022Y-13055851D01*
X6781689Y-13189184D02*
X6781689Y-13055851D01*
X6781689Y-12989184D02*
X6772165Y-12998708D01*
X6772165Y-12998708D02*
X6781689Y-13008232D01*
X6781689Y-13008232D02*
X6791213Y-12998708D01*
X6791213Y-12998708D02*
X6781689Y-12989184D01*
X6781689Y-12989184D02*
X6781689Y-13008232D01*
X6905499Y-13189184D02*
X6886451Y-13179660D01*
X6886451Y-13179660D02*
X6876927Y-13160613D01*
X6876927Y-13160613D02*
X6876927Y-12989184D01*
X7010260Y-13189184D02*
X6991213Y-13179660D01*
X6991213Y-13179660D02*
X6981689Y-13160613D01*
X6981689Y-13160613D02*
X6981689Y-12989184D01*
X7238832Y-13189184D02*
X7238832Y-12989184D01*
X7238832Y-12989184D02*
X7305499Y-13132041D01*
X7305499Y-13132041D02*
X7372165Y-12989184D01*
X7372165Y-12989184D02*
X7372165Y-13189184D01*
X7553118Y-13189184D02*
X7553118Y-13084422D01*
X7553118Y-13084422D02*
X7543594Y-13065375D01*
X7543594Y-13065375D02*
X7524546Y-13055851D01*
X7524546Y-13055851D02*
X7486451Y-13055851D01*
X7486451Y-13055851D02*
X7467403Y-13065375D01*
X7553118Y-13179660D02*
X7534070Y-13189184D01*
X7534070Y-13189184D02*
X7486451Y-13189184D01*
X7486451Y-13189184D02*
X7467403Y-13179660D01*
X7467403Y-13179660D02*
X7457880Y-13160613D01*
X7457880Y-13160613D02*
X7457880Y-13141565D01*
X7457880Y-13141565D02*
X7467403Y-13122518D01*
X7467403Y-13122518D02*
X7486451Y-13112994D01*
X7486451Y-13112994D02*
X7534070Y-13112994D01*
X7534070Y-13112994D02*
X7553118Y-13103470D01*
X7648356Y-13055851D02*
X7648356Y-13255851D01*
X7648356Y-13065375D02*
X7667403Y-13055851D01*
X7667403Y-13055851D02*
X7705499Y-13055851D01*
X7705499Y-13055851D02*
X7724546Y-13065375D01*
X7724546Y-13065375D02*
X7734070Y-13074898D01*
X7734070Y-13074898D02*
X7743594Y-13093946D01*
X7743594Y-13093946D02*
X7743594Y-13151089D01*
X7743594Y-13151089D02*
X7734070Y-13170137D01*
X7734070Y-13170137D02*
X7724546Y-13179660D01*
X7724546Y-13179660D02*
X7705499Y-13189184D01*
X7705499Y-13189184D02*
X7667403Y-13189184D01*
X7667403Y-13189184D02*
X7648356Y-13179660D01*
X7829308Y-13170137D02*
X7838832Y-13179660D01*
X7838832Y-13179660D02*
X7829308Y-13189184D01*
X7829308Y-13189184D02*
X7819784Y-13179660D01*
X7819784Y-13179660D02*
X7829308Y-13170137D01*
X7829308Y-13170137D02*
X7829308Y-13189184D01*
X7829308Y-13065375D02*
X7838832Y-13074898D01*
X7838832Y-13074898D02*
X7829308Y-13084422D01*
X7829308Y-13084422D02*
X7819784Y-13074898D01*
X7819784Y-13074898D02*
X7829308Y-13065375D01*
X7829308Y-13065375D02*
X7829308Y-13084422D01*
D12*
X6167103Y-13502700D02*
X6197103Y-13532700D01*
X6197103Y-13502700D02*
X6167103Y-13532700D01*
D11*
X6495975Y-13409184D02*
X6515022Y-13409184D01*
X6515022Y-13409184D02*
X6534070Y-13418708D01*
X6534070Y-13418708D02*
X6543594Y-13428232D01*
X6543594Y-13428232D02*
X6553118Y-13447279D01*
X6553118Y-13447279D02*
X6562641Y-13485375D01*
X6562641Y-13485375D02*
X6562641Y-13532994D01*
X6562641Y-13532994D02*
X6553118Y-13571089D01*
X6553118Y-13571089D02*
X6543594Y-13590137D01*
X6543594Y-13590137D02*
X6534070Y-13599660D01*
X6534070Y-13599660D02*
X6515022Y-13609184D01*
X6515022Y-13609184D02*
X6495975Y-13609184D01*
X6495975Y-13609184D02*
X6476927Y-13599660D01*
X6476927Y-13599660D02*
X6467403Y-13590137D01*
X6467403Y-13590137D02*
X6457880Y-13571089D01*
X6457880Y-13571089D02*
X6448356Y-13532994D01*
X6448356Y-13532994D02*
X6448356Y-13485375D01*
X6448356Y-13485375D02*
X6457880Y-13447279D01*
X6457880Y-13447279D02*
X6467403Y-13428232D01*
X6467403Y-13428232D02*
X6476927Y-13418708D01*
X6476927Y-13418708D02*
X6495975Y-13409184D01*
X6648356Y-13590137D02*
X6657880Y-13599660D01*
X6657880Y-13599660D02*
X6648356Y-13609184D01*
X6648356Y-13609184D02*
X6638832Y-13599660D01*
X6638832Y-13599660D02*
X6648356Y-13590137D01*
X6648356Y-13590137D02*
X6648356Y-13609184D01*
X6724546Y-13409184D02*
X6848356Y-13409184D01*
X6848356Y-13409184D02*
X6781689Y-13485375D01*
X6781689Y-13485375D02*
X6810261Y-13485375D01*
X6810261Y-13485375D02*
X6829308Y-13494898D01*
X6829308Y-13494898D02*
X6838832Y-13504422D01*
X6838832Y-13504422D02*
X6848356Y-13523470D01*
X6848356Y-13523470D02*
X6848356Y-13571089D01*
X6848356Y-13571089D02*
X6838832Y-13590137D01*
X6838832Y-13590137D02*
X6829308Y-13599660D01*
X6829308Y-13599660D02*
X6810261Y-13609184D01*
X6810261Y-13609184D02*
X6753118Y-13609184D01*
X6753118Y-13609184D02*
X6734070Y-13599660D01*
X6734070Y-13599660D02*
X6724546Y-13590137D01*
X6972165Y-13409184D02*
X6991213Y-13409184D01*
X6991213Y-13409184D02*
X7010261Y-13418708D01*
X7010261Y-13418708D02*
X7019784Y-13428232D01*
X7019784Y-13428232D02*
X7029308Y-13447279D01*
X7029308Y-13447279D02*
X7038832Y-13485375D01*
X7038832Y-13485375D02*
X7038832Y-13532994D01*
X7038832Y-13532994D02*
X7029308Y-13571089D01*
X7029308Y-13571089D02*
X7019784Y-13590137D01*
X7019784Y-13590137D02*
X7010261Y-13599660D01*
X7010261Y-13599660D02*
X6991213Y-13609184D01*
X6991213Y-13609184D02*
X6972165Y-13609184D01*
X6972165Y-13609184D02*
X6953118Y-13599660D01*
X6953118Y-13599660D02*
X6943594Y-13590137D01*
X6943594Y-13590137D02*
X6934070Y-13571089D01*
X6934070Y-13571089D02*
X6924546Y-13532994D01*
X6924546Y-13532994D02*
X6924546Y-13485375D01*
X6924546Y-13485375D02*
X6934070Y-13447279D01*
X6934070Y-13447279D02*
X6943594Y-13428232D01*
X6943594Y-13428232D02*
X6953118Y-13418708D01*
X6953118Y-13418708D02*
X6972165Y-13409184D01*
X7162641Y-13409184D02*
X7181689Y-13409184D01*
X7181689Y-13409184D02*
X7200737Y-13418708D01*
X7200737Y-13418708D02*
X7210261Y-13428232D01*
X7210261Y-13428232D02*
X7219784Y-13447279D01*
X7219784Y-13447279D02*
X7229308Y-13485375D01*
X7229308Y-13485375D02*
X7229308Y-13532994D01*
X7229308Y-13532994D02*
X7219784Y-13571089D01*
X7219784Y-13571089D02*
X7210261Y-13590137D01*
X7210261Y-13590137D02*
X7200737Y-13599660D01*
X7200737Y-13599660D02*
X7181689Y-13609184D01*
X7181689Y-13609184D02*
X7162641Y-13609184D01*
X7162641Y-13609184D02*
X7143594Y-13599660D01*
X7143594Y-13599660D02*
X7134070Y-13590137D01*
X7134070Y-13590137D02*
X7124546Y-13571089D01*
X7124546Y-13571089D02*
X7115022Y-13532994D01*
X7115022Y-13532994D02*
X7115022Y-13485375D01*
X7115022Y-13485375D02*
X7124546Y-13447279D01*
X7124546Y-13447279D02*
X7134070Y-13428232D01*
X7134070Y-13428232D02*
X7143594Y-13418708D01*
X7143594Y-13418708D02*
X7162641Y-13409184D01*
X7315022Y-13609184D02*
X7315022Y-13475851D01*
X7315022Y-13494898D02*
X7324546Y-13485375D01*
X7324546Y-13485375D02*
X7343594Y-13475851D01*
X7343594Y-13475851D02*
X7372165Y-13475851D01*
X7372165Y-13475851D02*
X7391213Y-13485375D01*
X7391213Y-13485375D02*
X7400737Y-13504422D01*
X7400737Y-13504422D02*
X7400737Y-13609184D01*
X7400737Y-13504422D02*
X7410261Y-13485375D01*
X7410261Y-13485375D02*
X7429308Y-13475851D01*
X7429308Y-13475851D02*
X7457880Y-13475851D01*
X7457880Y-13475851D02*
X7476927Y-13485375D01*
X7476927Y-13485375D02*
X7486451Y-13504422D01*
X7486451Y-13504422D02*
X7486451Y-13609184D01*
X7581689Y-13609184D02*
X7581689Y-13475851D01*
X7581689Y-13494898D02*
X7591213Y-13485375D01*
X7591213Y-13485375D02*
X7610261Y-13475851D01*
X7610261Y-13475851D02*
X7638832Y-13475851D01*
X7638832Y-13475851D02*
X7657880Y-13485375D01*
X7657880Y-13485375D02*
X7667403Y-13504422D01*
X7667403Y-13504422D02*
X7667403Y-13609184D01*
X7667403Y-13504422D02*
X7676927Y-13485375D01*
X7676927Y-13485375D02*
X7695975Y-13475851D01*
X7695975Y-13475851D02*
X7724546Y-13475851D01*
X7724546Y-13475851D02*
X7743594Y-13485375D01*
X7743594Y-13485375D02*
X7753118Y-13504422D01*
X7753118Y-13504422D02*
X7753118Y-13609184D01*
X8143594Y-13399660D02*
X7972165Y-13656803D01*
X8400737Y-13409184D02*
X8419785Y-13409184D01*
X8419785Y-13409184D02*
X8438832Y-13418708D01*
X8438832Y-13418708D02*
X8448356Y-13428232D01*
X8448356Y-13428232D02*
X8457880Y-13447279D01*
X8457880Y-13447279D02*
X8467404Y-13485375D01*
X8467404Y-13485375D02*
X8467404Y-13532994D01*
X8467404Y-13532994D02*
X8457880Y-13571089D01*
X8457880Y-13571089D02*
X8448356Y-13590137D01*
X8448356Y-13590137D02*
X8438832Y-13599660D01*
X8438832Y-13599660D02*
X8419785Y-13609184D01*
X8419785Y-13609184D02*
X8400737Y-13609184D01*
X8400737Y-13609184D02*
X8381689Y-13599660D01*
X8381689Y-13599660D02*
X8372165Y-13590137D01*
X8372165Y-13590137D02*
X8362642Y-13571089D01*
X8362642Y-13571089D02*
X8353118Y-13532994D01*
X8353118Y-13532994D02*
X8353118Y-13485375D01*
X8353118Y-13485375D02*
X8362642Y-13447279D01*
X8362642Y-13447279D02*
X8372165Y-13428232D01*
X8372165Y-13428232D02*
X8381689Y-13418708D01*
X8381689Y-13418708D02*
X8400737Y-13409184D01*
X8553118Y-13590137D02*
X8562642Y-13599660D01*
X8562642Y-13599660D02*
X8553118Y-13609184D01*
X8553118Y-13609184D02*
X8543594Y-13599660D01*
X8543594Y-13599660D02*
X8553118Y-13590137D01*
X8553118Y-13590137D02*
X8553118Y-13609184D01*
X8686451Y-13409184D02*
X8705499Y-13409184D01*
X8705499Y-13409184D02*
X8724547Y-13418708D01*
X8724547Y-13418708D02*
X8734070Y-13428232D01*
X8734070Y-13428232D02*
X8743594Y-13447279D01*
X8743594Y-13447279D02*
X8753118Y-13485375D01*
X8753118Y-13485375D02*
X8753118Y-13532994D01*
X8753118Y-13532994D02*
X8743594Y-13571089D01*
X8743594Y-13571089D02*
X8734070Y-13590137D01*
X8734070Y-13590137D02*
X8724547Y-13599660D01*
X8724547Y-13599660D02*
X8705499Y-13609184D01*
X8705499Y-13609184D02*
X8686451Y-13609184D01*
X8686451Y-13609184D02*
X8667404Y-13599660D01*
X8667404Y-13599660D02*
X8657880Y-13590137D01*
X8657880Y-13590137D02*
X8648356Y-13571089D01*
X8648356Y-13571089D02*
X8638832Y-13532994D01*
X8638832Y-13532994D02*
X8638832Y-13485375D01*
X8638832Y-13485375D02*
X8648356Y-13447279D01*
X8648356Y-13447279D02*
X8657880Y-13428232D01*
X8657880Y-13428232D02*
X8667404Y-13418708D01*
X8667404Y-13418708D02*
X8686451Y-13409184D01*
X8943594Y-13609184D02*
X8829308Y-13609184D01*
X8886451Y-13609184D02*
X8886451Y-13409184D01*
X8886451Y-13409184D02*
X8867404Y-13437756D01*
X8867404Y-13437756D02*
X8848356Y-13456803D01*
X8848356Y-13456803D02*
X8829308Y-13466327D01*
X9134070Y-13609184D02*
X9019785Y-13609184D01*
X9076927Y-13609184D02*
X9076927Y-13409184D01*
X9076927Y-13409184D02*
X9057880Y-13437756D01*
X9057880Y-13437756D02*
X9038832Y-13456803D01*
X9038832Y-13456803D02*
X9019785Y-13466327D01*
X9248356Y-13494898D02*
X9229308Y-13485375D01*
X9229308Y-13485375D02*
X9219785Y-13475851D01*
X9219785Y-13475851D02*
X9210261Y-13456803D01*
X9210261Y-13456803D02*
X9210261Y-13447279D01*
X9210261Y-13447279D02*
X9219785Y-13428232D01*
X9219785Y-13428232D02*
X9229308Y-13418708D01*
X9229308Y-13418708D02*
X9248356Y-13409184D01*
X9248356Y-13409184D02*
X9286451Y-13409184D01*
X9286451Y-13409184D02*
X9305499Y-13418708D01*
X9305499Y-13418708D02*
X9315023Y-13428232D01*
X9315023Y-13428232D02*
X9324547Y-13447279D01*
X9324547Y-13447279D02*
X9324547Y-13456803D01*
X9324547Y-13456803D02*
X9315023Y-13475851D01*
X9315023Y-13475851D02*
X9305499Y-13485375D01*
X9305499Y-13485375D02*
X9286451Y-13494898D01*
X9286451Y-13494898D02*
X9248356Y-13494898D01*
X9248356Y-13494898D02*
X9229308Y-13504422D01*
X9229308Y-13504422D02*
X9219785Y-13513946D01*
X9219785Y-13513946D02*
X9210261Y-13532994D01*
X9210261Y-13532994D02*
X9210261Y-13571089D01*
X9210261Y-13571089D02*
X9219785Y-13590137D01*
X9219785Y-13590137D02*
X9229308Y-13599660D01*
X9229308Y-13599660D02*
X9248356Y-13609184D01*
X9248356Y-13609184D02*
X9286451Y-13609184D01*
X9286451Y-13609184D02*
X9305499Y-13599660D01*
X9305499Y-13599660D02*
X9315023Y-13590137D01*
X9315023Y-13590137D02*
X9324547Y-13571089D01*
X9324547Y-13571089D02*
X9324547Y-13532994D01*
X9324547Y-13532994D02*
X9315023Y-13513946D01*
X9315023Y-13513946D02*
X9305499Y-13504422D01*
X9305499Y-13504422D02*
X9286451Y-13494898D01*
X9400737Y-13409184D02*
X9400737Y-13447279D01*
X9476928Y-13409184D02*
X9476928Y-13447279D01*
X9772166Y-13685375D02*
X9762642Y-13675851D01*
X9762642Y-13675851D02*
X9743594Y-13647279D01*
X9743594Y-13647279D02*
X9734070Y-13628232D01*
X9734070Y-13628232D02*
X9724547Y-13599660D01*
X9724547Y-13599660D02*
X9715023Y-13552041D01*
X9715023Y-13552041D02*
X9715023Y-13513946D01*
X9715023Y-13513946D02*
X9724547Y-13466327D01*
X9724547Y-13466327D02*
X9734070Y-13437756D01*
X9734070Y-13437756D02*
X9743594Y-13418708D01*
X9743594Y-13418708D02*
X9762642Y-13390137D01*
X9762642Y-13390137D02*
X9772166Y-13380613D01*
X9876928Y-13494898D02*
X9857880Y-13485375D01*
X9857880Y-13485375D02*
X9848356Y-13475851D01*
X9848356Y-13475851D02*
X9838832Y-13456803D01*
X9838832Y-13456803D02*
X9838832Y-13447279D01*
X9838832Y-13447279D02*
X9848356Y-13428232D01*
X9848356Y-13428232D02*
X9857880Y-13418708D01*
X9857880Y-13418708D02*
X9876928Y-13409184D01*
X9876928Y-13409184D02*
X9915023Y-13409184D01*
X9915023Y-13409184D02*
X9934070Y-13418708D01*
X9934070Y-13418708D02*
X9943594Y-13428232D01*
X9943594Y-13428232D02*
X9953118Y-13447279D01*
X9953118Y-13447279D02*
X9953118Y-13456803D01*
X9953118Y-13456803D02*
X9943594Y-13475851D01*
X9943594Y-13475851D02*
X9934070Y-13485375D01*
X9934070Y-13485375D02*
X9915023Y-13494898D01*
X9915023Y-13494898D02*
X9876928Y-13494898D01*
X9876928Y-13494898D02*
X9857880Y-13504422D01*
X9857880Y-13504422D02*
X9848356Y-13513946D01*
X9848356Y-13513946D02*
X9838832Y-13532994D01*
X9838832Y-13532994D02*
X9838832Y-13571089D01*
X9838832Y-13571089D02*
X9848356Y-13590137D01*
X9848356Y-13590137D02*
X9857880Y-13599660D01*
X9857880Y-13599660D02*
X9876928Y-13609184D01*
X9876928Y-13609184D02*
X9915023Y-13609184D01*
X9915023Y-13609184D02*
X9934070Y-13599660D01*
X9934070Y-13599660D02*
X9943594Y-13590137D01*
X9943594Y-13590137D02*
X9953118Y-13571089D01*
X9953118Y-13571089D02*
X9953118Y-13532994D01*
X9953118Y-13532994D02*
X9943594Y-13513946D01*
X9943594Y-13513946D02*
X9934070Y-13504422D01*
X9934070Y-13504422D02*
X9915023Y-13494898D01*
X10076928Y-13409184D02*
X10095975Y-13409184D01*
X10095975Y-13409184D02*
X10115023Y-13418708D01*
X10115023Y-13418708D02*
X10124547Y-13428232D01*
X10124547Y-13428232D02*
X10134070Y-13447279D01*
X10134070Y-13447279D02*
X10143594Y-13485375D01*
X10143594Y-13485375D02*
X10143594Y-13532994D01*
X10143594Y-13532994D02*
X10134070Y-13571089D01*
X10134070Y-13571089D02*
X10124547Y-13590137D01*
X10124547Y-13590137D02*
X10115023Y-13599660D01*
X10115023Y-13599660D02*
X10095975Y-13609184D01*
X10095975Y-13609184D02*
X10076928Y-13609184D01*
X10076928Y-13609184D02*
X10057880Y-13599660D01*
X10057880Y-13599660D02*
X10048356Y-13590137D01*
X10048356Y-13590137D02*
X10038832Y-13571089D01*
X10038832Y-13571089D02*
X10029309Y-13532994D01*
X10029309Y-13532994D02*
X10029309Y-13485375D01*
X10029309Y-13485375D02*
X10038832Y-13447279D01*
X10038832Y-13447279D02*
X10048356Y-13428232D01*
X10048356Y-13428232D02*
X10057880Y-13418708D01*
X10057880Y-13418708D02*
X10076928Y-13409184D01*
X10315023Y-13475851D02*
X10315023Y-13609184D01*
X10267404Y-13399660D02*
X10219785Y-13542518D01*
X10219785Y-13542518D02*
X10343594Y-13542518D01*
X10572166Y-13609184D02*
X10572166Y-13409184D01*
X10657880Y-13609184D02*
X10657880Y-13504422D01*
X10657880Y-13504422D02*
X10648356Y-13485375D01*
X10648356Y-13485375D02*
X10629309Y-13475851D01*
X10629309Y-13475851D02*
X10600737Y-13475851D01*
X10600737Y-13475851D02*
X10581690Y-13485375D01*
X10581690Y-13485375D02*
X10572166Y-13494898D01*
X10781690Y-13609184D02*
X10762642Y-13599660D01*
X10762642Y-13599660D02*
X10753118Y-13590137D01*
X10753118Y-13590137D02*
X10743594Y-13571089D01*
X10743594Y-13571089D02*
X10743594Y-13513946D01*
X10743594Y-13513946D02*
X10753118Y-13494898D01*
X10753118Y-13494898D02*
X10762642Y-13485375D01*
X10762642Y-13485375D02*
X10781690Y-13475851D01*
X10781690Y-13475851D02*
X10810261Y-13475851D01*
X10810261Y-13475851D02*
X10829309Y-13485375D01*
X10829309Y-13485375D02*
X10838832Y-13494898D01*
X10838832Y-13494898D02*
X10848356Y-13513946D01*
X10848356Y-13513946D02*
X10848356Y-13571089D01*
X10848356Y-13571089D02*
X10838832Y-13590137D01*
X10838832Y-13590137D02*
X10829309Y-13599660D01*
X10829309Y-13599660D02*
X10810261Y-13609184D01*
X10810261Y-13609184D02*
X10781690Y-13609184D01*
X10962642Y-13609184D02*
X10943594Y-13599660D01*
X10943594Y-13599660D02*
X10934071Y-13580613D01*
X10934071Y-13580613D02*
X10934071Y-13409184D01*
X11115023Y-13599660D02*
X11095975Y-13609184D01*
X11095975Y-13609184D02*
X11057880Y-13609184D01*
X11057880Y-13609184D02*
X11038832Y-13599660D01*
X11038832Y-13599660D02*
X11029309Y-13580613D01*
X11029309Y-13580613D02*
X11029309Y-13504422D01*
X11029309Y-13504422D02*
X11038832Y-13485375D01*
X11038832Y-13485375D02*
X11057880Y-13475851D01*
X11057880Y-13475851D02*
X11095975Y-13475851D01*
X11095975Y-13475851D02*
X11115023Y-13485375D01*
X11115023Y-13485375D02*
X11124547Y-13504422D01*
X11124547Y-13504422D02*
X11124547Y-13523470D01*
X11124547Y-13523470D02*
X11029309Y-13542518D01*
X11200737Y-13599660D02*
X11219785Y-13609184D01*
X11219785Y-13609184D02*
X11257880Y-13609184D01*
X11257880Y-13609184D02*
X11276928Y-13599660D01*
X11276928Y-13599660D02*
X11286451Y-13580613D01*
X11286451Y-13580613D02*
X11286451Y-13571089D01*
X11286451Y-13571089D02*
X11276928Y-13552041D01*
X11276928Y-13552041D02*
X11257880Y-13542518D01*
X11257880Y-13542518D02*
X11229309Y-13542518D01*
X11229309Y-13542518D02*
X11210261Y-13532994D01*
X11210261Y-13532994D02*
X11200737Y-13513946D01*
X11200737Y-13513946D02*
X11200737Y-13504422D01*
X11200737Y-13504422D02*
X11210261Y-13485375D01*
X11210261Y-13485375D02*
X11229309Y-13475851D01*
X11229309Y-13475851D02*
X11257880Y-13475851D01*
X11257880Y-13475851D02*
X11276928Y-13485375D01*
X11353118Y-13685375D02*
X11362642Y-13675851D01*
X11362642Y-13675851D02*
X11381690Y-13647279D01*
X11381690Y-13647279D02*
X11391213Y-13628232D01*
X11391213Y-13628232D02*
X11400737Y-13599660D01*
X11400737Y-13599660D02*
X11410261Y-13552041D01*
X11410261Y-13552041D02*
X11410261Y-13513946D01*
X11410261Y-13513946D02*
X11400737Y-13466327D01*
X11400737Y-13466327D02*
X11391213Y-13437756D01*
X11391213Y-13437756D02*
X11381690Y-13418708D01*
X11381690Y-13418708D02*
X11362642Y-13390137D01*
X11362642Y-13390137D02*
X11353118Y-13380613D01*
D12*
X6197103Y-13781700D02*
G75*
G02*
X6097103Y-13781700I-50000J0D01*
G01*
X6097103Y-13781700D02*
G75*
G02*
X6197103Y-13781700I50000J0D01*
G01*
D11*
X6562641Y-13873184D02*
X6448356Y-13873184D01*
X6505499Y-13873184D02*
X6505499Y-13673184D01*
X6505499Y-13673184D02*
X6486451Y-13701756D01*
X6486451Y-13701756D02*
X6467403Y-13720803D01*
X6467403Y-13720803D02*
X6448356Y-13730327D01*
X6648356Y-13854137D02*
X6657880Y-13863660D01*
X6657880Y-13863660D02*
X6648356Y-13873184D01*
X6648356Y-13873184D02*
X6638832Y-13863660D01*
X6638832Y-13863660D02*
X6648356Y-13854137D01*
X6648356Y-13854137D02*
X6648356Y-13873184D01*
X6781689Y-13673184D02*
X6800737Y-13673184D01*
X6800737Y-13673184D02*
X6819784Y-13682708D01*
X6819784Y-13682708D02*
X6829308Y-13692232D01*
X6829308Y-13692232D02*
X6838832Y-13711279D01*
X6838832Y-13711279D02*
X6848356Y-13749375D01*
X6848356Y-13749375D02*
X6848356Y-13796994D01*
X6848356Y-13796994D02*
X6838832Y-13835089D01*
X6838832Y-13835089D02*
X6829308Y-13854137D01*
X6829308Y-13854137D02*
X6819784Y-13863660D01*
X6819784Y-13863660D02*
X6800737Y-13873184D01*
X6800737Y-13873184D02*
X6781689Y-13873184D01*
X6781689Y-13873184D02*
X6762641Y-13863660D01*
X6762641Y-13863660D02*
X6753118Y-13854137D01*
X6753118Y-13854137D02*
X6743594Y-13835089D01*
X6743594Y-13835089D02*
X6734070Y-13796994D01*
X6734070Y-13796994D02*
X6734070Y-13749375D01*
X6734070Y-13749375D02*
X6743594Y-13711279D01*
X6743594Y-13711279D02*
X6753118Y-13692232D01*
X6753118Y-13692232D02*
X6762641Y-13682708D01*
X6762641Y-13682708D02*
X6781689Y-13673184D01*
X6972165Y-13673184D02*
X6991213Y-13673184D01*
X6991213Y-13673184D02*
X7010261Y-13682708D01*
X7010261Y-13682708D02*
X7019784Y-13692232D01*
X7019784Y-13692232D02*
X7029308Y-13711279D01*
X7029308Y-13711279D02*
X7038832Y-13749375D01*
X7038832Y-13749375D02*
X7038832Y-13796994D01*
X7038832Y-13796994D02*
X7029308Y-13835089D01*
X7029308Y-13835089D02*
X7019784Y-13854137D01*
X7019784Y-13854137D02*
X7010261Y-13863660D01*
X7010261Y-13863660D02*
X6991213Y-13873184D01*
X6991213Y-13873184D02*
X6972165Y-13873184D01*
X6972165Y-13873184D02*
X6953118Y-13863660D01*
X6953118Y-13863660D02*
X6943594Y-13854137D01*
X6943594Y-13854137D02*
X6934070Y-13835089D01*
X6934070Y-13835089D02*
X6924546Y-13796994D01*
X6924546Y-13796994D02*
X6924546Y-13749375D01*
X6924546Y-13749375D02*
X6934070Y-13711279D01*
X6934070Y-13711279D02*
X6943594Y-13692232D01*
X6943594Y-13692232D02*
X6953118Y-13682708D01*
X6953118Y-13682708D02*
X6972165Y-13673184D01*
X7162641Y-13673184D02*
X7181689Y-13673184D01*
X7181689Y-13673184D02*
X7200737Y-13682708D01*
X7200737Y-13682708D02*
X7210261Y-13692232D01*
X7210261Y-13692232D02*
X7219784Y-13711279D01*
X7219784Y-13711279D02*
X7229308Y-13749375D01*
X7229308Y-13749375D02*
X7229308Y-13796994D01*
X7229308Y-13796994D02*
X7219784Y-13835089D01*
X7219784Y-13835089D02*
X7210261Y-13854137D01*
X7210261Y-13854137D02*
X7200737Y-13863660D01*
X7200737Y-13863660D02*
X7181689Y-13873184D01*
X7181689Y-13873184D02*
X7162641Y-13873184D01*
X7162641Y-13873184D02*
X7143594Y-13863660D01*
X7143594Y-13863660D02*
X7134070Y-13854137D01*
X7134070Y-13854137D02*
X7124546Y-13835089D01*
X7124546Y-13835089D02*
X7115022Y-13796994D01*
X7115022Y-13796994D02*
X7115022Y-13749375D01*
X7115022Y-13749375D02*
X7124546Y-13711279D01*
X7124546Y-13711279D02*
X7134070Y-13692232D01*
X7134070Y-13692232D02*
X7143594Y-13682708D01*
X7143594Y-13682708D02*
X7162641Y-13673184D01*
X7315022Y-13873184D02*
X7315022Y-13739851D01*
X7315022Y-13758898D02*
X7324546Y-13749375D01*
X7324546Y-13749375D02*
X7343594Y-13739851D01*
X7343594Y-13739851D02*
X7372165Y-13739851D01*
X7372165Y-13739851D02*
X7391213Y-13749375D01*
X7391213Y-13749375D02*
X7400737Y-13768422D01*
X7400737Y-13768422D02*
X7400737Y-13873184D01*
X7400737Y-13768422D02*
X7410261Y-13749375D01*
X7410261Y-13749375D02*
X7429308Y-13739851D01*
X7429308Y-13739851D02*
X7457880Y-13739851D01*
X7457880Y-13739851D02*
X7476927Y-13749375D01*
X7476927Y-13749375D02*
X7486451Y-13768422D01*
X7486451Y-13768422D02*
X7486451Y-13873184D01*
X7581689Y-13873184D02*
X7581689Y-13739851D01*
X7581689Y-13758898D02*
X7591213Y-13749375D01*
X7591213Y-13749375D02*
X7610261Y-13739851D01*
X7610261Y-13739851D02*
X7638832Y-13739851D01*
X7638832Y-13739851D02*
X7657880Y-13749375D01*
X7657880Y-13749375D02*
X7667403Y-13768422D01*
X7667403Y-13768422D02*
X7667403Y-13873184D01*
X7667403Y-13768422D02*
X7676927Y-13749375D01*
X7676927Y-13749375D02*
X7695975Y-13739851D01*
X7695975Y-13739851D02*
X7724546Y-13739851D01*
X7724546Y-13739851D02*
X7743594Y-13749375D01*
X7743594Y-13749375D02*
X7753118Y-13768422D01*
X7753118Y-13768422D02*
X7753118Y-13873184D01*
X8143594Y-13663660D02*
X7972165Y-13920803D01*
X8400737Y-13673184D02*
X8419785Y-13673184D01*
X8419785Y-13673184D02*
X8438832Y-13682708D01*
X8438832Y-13682708D02*
X8448356Y-13692232D01*
X8448356Y-13692232D02*
X8457880Y-13711279D01*
X8457880Y-13711279D02*
X8467404Y-13749375D01*
X8467404Y-13749375D02*
X8467404Y-13796994D01*
X8467404Y-13796994D02*
X8457880Y-13835089D01*
X8457880Y-13835089D02*
X8448356Y-13854137D01*
X8448356Y-13854137D02*
X8438832Y-13863660D01*
X8438832Y-13863660D02*
X8419785Y-13873184D01*
X8419785Y-13873184D02*
X8400737Y-13873184D01*
X8400737Y-13873184D02*
X8381689Y-13863660D01*
X8381689Y-13863660D02*
X8372165Y-13854137D01*
X8372165Y-13854137D02*
X8362642Y-13835089D01*
X8362642Y-13835089D02*
X8353118Y-13796994D01*
X8353118Y-13796994D02*
X8353118Y-13749375D01*
X8353118Y-13749375D02*
X8362642Y-13711279D01*
X8362642Y-13711279D02*
X8372165Y-13692232D01*
X8372165Y-13692232D02*
X8381689Y-13682708D01*
X8381689Y-13682708D02*
X8400737Y-13673184D01*
X8553118Y-13854137D02*
X8562642Y-13863660D01*
X8562642Y-13863660D02*
X8553118Y-13873184D01*
X8553118Y-13873184D02*
X8543594Y-13863660D01*
X8543594Y-13863660D02*
X8553118Y-13854137D01*
X8553118Y-13854137D02*
X8553118Y-13873184D01*
X8686451Y-13673184D02*
X8705499Y-13673184D01*
X8705499Y-13673184D02*
X8724547Y-13682708D01*
X8724547Y-13682708D02*
X8734070Y-13692232D01*
X8734070Y-13692232D02*
X8743594Y-13711279D01*
X8743594Y-13711279D02*
X8753118Y-13749375D01*
X8753118Y-13749375D02*
X8753118Y-13796994D01*
X8753118Y-13796994D02*
X8743594Y-13835089D01*
X8743594Y-13835089D02*
X8734070Y-13854137D01*
X8734070Y-13854137D02*
X8724547Y-13863660D01*
X8724547Y-13863660D02*
X8705499Y-13873184D01*
X8705499Y-13873184D02*
X8686451Y-13873184D01*
X8686451Y-13873184D02*
X8667404Y-13863660D01*
X8667404Y-13863660D02*
X8657880Y-13854137D01*
X8657880Y-13854137D02*
X8648356Y-13835089D01*
X8648356Y-13835089D02*
X8638832Y-13796994D01*
X8638832Y-13796994D02*
X8638832Y-13749375D01*
X8638832Y-13749375D02*
X8648356Y-13711279D01*
X8648356Y-13711279D02*
X8657880Y-13692232D01*
X8657880Y-13692232D02*
X8667404Y-13682708D01*
X8667404Y-13682708D02*
X8686451Y-13673184D01*
X8819785Y-13673184D02*
X8943594Y-13673184D01*
X8943594Y-13673184D02*
X8876927Y-13749375D01*
X8876927Y-13749375D02*
X8905499Y-13749375D01*
X8905499Y-13749375D02*
X8924547Y-13758898D01*
X8924547Y-13758898D02*
X8934070Y-13768422D01*
X8934070Y-13768422D02*
X8943594Y-13787470D01*
X8943594Y-13787470D02*
X8943594Y-13835089D01*
X8943594Y-13835089D02*
X8934070Y-13854137D01*
X8934070Y-13854137D02*
X8924547Y-13863660D01*
X8924547Y-13863660D02*
X8905499Y-13873184D01*
X8905499Y-13873184D02*
X8848356Y-13873184D01*
X8848356Y-13873184D02*
X8829308Y-13863660D01*
X8829308Y-13863660D02*
X8819785Y-13854137D01*
X9038832Y-13873184D02*
X9076927Y-13873184D01*
X9076927Y-13873184D02*
X9095975Y-13863660D01*
X9095975Y-13863660D02*
X9105499Y-13854137D01*
X9105499Y-13854137D02*
X9124547Y-13825565D01*
X9124547Y-13825565D02*
X9134070Y-13787470D01*
X9134070Y-13787470D02*
X9134070Y-13711279D01*
X9134070Y-13711279D02*
X9124547Y-13692232D01*
X9124547Y-13692232D02*
X9115023Y-13682708D01*
X9115023Y-13682708D02*
X9095975Y-13673184D01*
X9095975Y-13673184D02*
X9057880Y-13673184D01*
X9057880Y-13673184D02*
X9038832Y-13682708D01*
X9038832Y-13682708D02*
X9029308Y-13692232D01*
X9029308Y-13692232D02*
X9019785Y-13711279D01*
X9019785Y-13711279D02*
X9019785Y-13758898D01*
X9019785Y-13758898D02*
X9029308Y-13777946D01*
X9029308Y-13777946D02*
X9038832Y-13787470D01*
X9038832Y-13787470D02*
X9057880Y-13796994D01*
X9057880Y-13796994D02*
X9095975Y-13796994D01*
X9095975Y-13796994D02*
X9115023Y-13787470D01*
X9115023Y-13787470D02*
X9124547Y-13777946D01*
X9124547Y-13777946D02*
X9134070Y-13758898D01*
X9305499Y-13739851D02*
X9305499Y-13873184D01*
X9257880Y-13663660D02*
X9210261Y-13806518D01*
X9210261Y-13806518D02*
X9334070Y-13806518D01*
X9400737Y-13673184D02*
X9400737Y-13711279D01*
X9476928Y-13673184D02*
X9476928Y-13711279D01*
X9772166Y-13949375D02*
X9762642Y-13939851D01*
X9762642Y-13939851D02*
X9743594Y-13911279D01*
X9743594Y-13911279D02*
X9734070Y-13892232D01*
X9734070Y-13892232D02*
X9724547Y-13863660D01*
X9724547Y-13863660D02*
X9715023Y-13816041D01*
X9715023Y-13816041D02*
X9715023Y-13777946D01*
X9715023Y-13777946D02*
X9724547Y-13730327D01*
X9724547Y-13730327D02*
X9734070Y-13701756D01*
X9734070Y-13701756D02*
X9743594Y-13682708D01*
X9743594Y-13682708D02*
X9762642Y-13654137D01*
X9762642Y-13654137D02*
X9772166Y-13644613D01*
X9838832Y-13692232D02*
X9848356Y-13682708D01*
X9848356Y-13682708D02*
X9867404Y-13673184D01*
X9867404Y-13673184D02*
X9915023Y-13673184D01*
X9915023Y-13673184D02*
X9934070Y-13682708D01*
X9934070Y-13682708D02*
X9943594Y-13692232D01*
X9943594Y-13692232D02*
X9953118Y-13711279D01*
X9953118Y-13711279D02*
X9953118Y-13730327D01*
X9953118Y-13730327D02*
X9943594Y-13758898D01*
X9943594Y-13758898D02*
X9829309Y-13873184D01*
X9829309Y-13873184D02*
X9953118Y-13873184D01*
X10019785Y-13673184D02*
X10143594Y-13673184D01*
X10143594Y-13673184D02*
X10076928Y-13749375D01*
X10076928Y-13749375D02*
X10105499Y-13749375D01*
X10105499Y-13749375D02*
X10124547Y-13758898D01*
X10124547Y-13758898D02*
X10134070Y-13768422D01*
X10134070Y-13768422D02*
X10143594Y-13787470D01*
X10143594Y-13787470D02*
X10143594Y-13835089D01*
X10143594Y-13835089D02*
X10134070Y-13854137D01*
X10134070Y-13854137D02*
X10124547Y-13863660D01*
X10124547Y-13863660D02*
X10105499Y-13873184D01*
X10105499Y-13873184D02*
X10048356Y-13873184D01*
X10048356Y-13873184D02*
X10029309Y-13863660D01*
X10029309Y-13863660D02*
X10019785Y-13854137D01*
X10381690Y-13873184D02*
X10381690Y-13673184D01*
X10467404Y-13873184D02*
X10467404Y-13768422D01*
X10467404Y-13768422D02*
X10457880Y-13749375D01*
X10457880Y-13749375D02*
X10438832Y-13739851D01*
X10438832Y-13739851D02*
X10410261Y-13739851D01*
X10410261Y-13739851D02*
X10391213Y-13749375D01*
X10391213Y-13749375D02*
X10381690Y-13758898D01*
X10591213Y-13873184D02*
X10572166Y-13863660D01*
X10572166Y-13863660D02*
X10562642Y-13854137D01*
X10562642Y-13854137D02*
X10553118Y-13835089D01*
X10553118Y-13835089D02*
X10553118Y-13777946D01*
X10553118Y-13777946D02*
X10562642Y-13758898D01*
X10562642Y-13758898D02*
X10572166Y-13749375D01*
X10572166Y-13749375D02*
X10591213Y-13739851D01*
X10591213Y-13739851D02*
X10619785Y-13739851D01*
X10619785Y-13739851D02*
X10638832Y-13749375D01*
X10638832Y-13749375D02*
X10648356Y-13758898D01*
X10648356Y-13758898D02*
X10657880Y-13777946D01*
X10657880Y-13777946D02*
X10657880Y-13835089D01*
X10657880Y-13835089D02*
X10648356Y-13854137D01*
X10648356Y-13854137D02*
X10638832Y-13863660D01*
X10638832Y-13863660D02*
X10619785Y-13873184D01*
X10619785Y-13873184D02*
X10591213Y-13873184D01*
X10772166Y-13873184D02*
X10753118Y-13863660D01*
X10753118Y-13863660D02*
X10743594Y-13844613D01*
X10743594Y-13844613D02*
X10743594Y-13673184D01*
X10924547Y-13863660D02*
X10905499Y-13873184D01*
X10905499Y-13873184D02*
X10867404Y-13873184D01*
X10867404Y-13873184D02*
X10848356Y-13863660D01*
X10848356Y-13863660D02*
X10838832Y-13844613D01*
X10838832Y-13844613D02*
X10838832Y-13768422D01*
X10838832Y-13768422D02*
X10848356Y-13749375D01*
X10848356Y-13749375D02*
X10867404Y-13739851D01*
X10867404Y-13739851D02*
X10905499Y-13739851D01*
X10905499Y-13739851D02*
X10924547Y-13749375D01*
X10924547Y-13749375D02*
X10934071Y-13768422D01*
X10934071Y-13768422D02*
X10934071Y-13787470D01*
X10934071Y-13787470D02*
X10838832Y-13806518D01*
X11010261Y-13863660D02*
X11029309Y-13873184D01*
X11029309Y-13873184D02*
X11067404Y-13873184D01*
X11067404Y-13873184D02*
X11086452Y-13863660D01*
X11086452Y-13863660D02*
X11095975Y-13844613D01*
X11095975Y-13844613D02*
X11095975Y-13835089D01*
X11095975Y-13835089D02*
X11086452Y-13816041D01*
X11086452Y-13816041D02*
X11067404Y-13806518D01*
X11067404Y-13806518D02*
X11038832Y-13806518D01*
X11038832Y-13806518D02*
X11019785Y-13796994D01*
X11019785Y-13796994D02*
X11010261Y-13777946D01*
X11010261Y-13777946D02*
X11010261Y-13768422D01*
X11010261Y-13768422D02*
X11019785Y-13749375D01*
X11019785Y-13749375D02*
X11038832Y-13739851D01*
X11038832Y-13739851D02*
X11067404Y-13739851D01*
X11067404Y-13739851D02*
X11086452Y-13749375D01*
X11162642Y-13949375D02*
X11172166Y-13939851D01*
X11172166Y-13939851D02*
X11191213Y-13911279D01*
X11191213Y-13911279D02*
X11200737Y-13892232D01*
X11200737Y-13892232D02*
X11210261Y-13863660D01*
X11210261Y-13863660D02*
X11219785Y-13816041D01*
X11219785Y-13816041D02*
X11219785Y-13777946D01*
X11219785Y-13777946D02*
X11210261Y-13730327D01*
X11210261Y-13730327D02*
X11200737Y-13701756D01*
X11200737Y-13701756D02*
X11191213Y-13682708D01*
X11191213Y-13682708D02*
X11172166Y-13654137D01*
X11172166Y-13654137D02*
X11162642Y-13644613D01*
D13*
X6127103Y-13975700D02*
X6127103Y-14115700D01*
X6057103Y-14045700D02*
X6197103Y-14045700D01*
D11*
X6562641Y-14137184D02*
X6448356Y-14137184D01*
X6505499Y-14137184D02*
X6505499Y-13937184D01*
X6505499Y-13937184D02*
X6486451Y-13965756D01*
X6486451Y-13965756D02*
X6467403Y-13984803D01*
X6467403Y-13984803D02*
X6448356Y-13994327D01*
X6648356Y-14118137D02*
X6657880Y-14127660D01*
X6657880Y-14127660D02*
X6648356Y-14137184D01*
X6648356Y-14137184D02*
X6638832Y-14127660D01*
X6638832Y-14127660D02*
X6648356Y-14118137D01*
X6648356Y-14118137D02*
X6648356Y-14137184D01*
X6829308Y-14003851D02*
X6829308Y-14137184D01*
X6781689Y-13927660D02*
X6734070Y-14070518D01*
X6734070Y-14070518D02*
X6857880Y-14070518D01*
X6972165Y-13937184D02*
X6991213Y-13937184D01*
X6991213Y-13937184D02*
X7010261Y-13946708D01*
X7010261Y-13946708D02*
X7019784Y-13956232D01*
X7019784Y-13956232D02*
X7029308Y-13975279D01*
X7029308Y-13975279D02*
X7038832Y-14013375D01*
X7038832Y-14013375D02*
X7038832Y-14060994D01*
X7038832Y-14060994D02*
X7029308Y-14099089D01*
X7029308Y-14099089D02*
X7019784Y-14118137D01*
X7019784Y-14118137D02*
X7010261Y-14127660D01*
X7010261Y-14127660D02*
X6991213Y-14137184D01*
X6991213Y-14137184D02*
X6972165Y-14137184D01*
X6972165Y-14137184D02*
X6953118Y-14127660D01*
X6953118Y-14127660D02*
X6943594Y-14118137D01*
X6943594Y-14118137D02*
X6934070Y-14099089D01*
X6934070Y-14099089D02*
X6924546Y-14060994D01*
X6924546Y-14060994D02*
X6924546Y-14013375D01*
X6924546Y-14013375D02*
X6934070Y-13975279D01*
X6934070Y-13975279D02*
X6943594Y-13956232D01*
X6943594Y-13956232D02*
X6953118Y-13946708D01*
X6953118Y-13946708D02*
X6972165Y-13937184D01*
X7162641Y-13937184D02*
X7181689Y-13937184D01*
X7181689Y-13937184D02*
X7200737Y-13946708D01*
X7200737Y-13946708D02*
X7210261Y-13956232D01*
X7210261Y-13956232D02*
X7219784Y-13975279D01*
X7219784Y-13975279D02*
X7229308Y-14013375D01*
X7229308Y-14013375D02*
X7229308Y-14060994D01*
X7229308Y-14060994D02*
X7219784Y-14099089D01*
X7219784Y-14099089D02*
X7210261Y-14118137D01*
X7210261Y-14118137D02*
X7200737Y-14127660D01*
X7200737Y-14127660D02*
X7181689Y-14137184D01*
X7181689Y-14137184D02*
X7162641Y-14137184D01*
X7162641Y-14137184D02*
X7143594Y-14127660D01*
X7143594Y-14127660D02*
X7134070Y-14118137D01*
X7134070Y-14118137D02*
X7124546Y-14099089D01*
X7124546Y-14099089D02*
X7115022Y-14060994D01*
X7115022Y-14060994D02*
X7115022Y-14013375D01*
X7115022Y-14013375D02*
X7124546Y-13975279D01*
X7124546Y-13975279D02*
X7134070Y-13956232D01*
X7134070Y-13956232D02*
X7143594Y-13946708D01*
X7143594Y-13946708D02*
X7162641Y-13937184D01*
X7315022Y-14137184D02*
X7315022Y-14003851D01*
X7315022Y-14022898D02*
X7324546Y-14013375D01*
X7324546Y-14013375D02*
X7343594Y-14003851D01*
X7343594Y-14003851D02*
X7372165Y-14003851D01*
X7372165Y-14003851D02*
X7391213Y-14013375D01*
X7391213Y-14013375D02*
X7400737Y-14032422D01*
X7400737Y-14032422D02*
X7400737Y-14137184D01*
X7400737Y-14032422D02*
X7410261Y-14013375D01*
X7410261Y-14013375D02*
X7429308Y-14003851D01*
X7429308Y-14003851D02*
X7457880Y-14003851D01*
X7457880Y-14003851D02*
X7476927Y-14013375D01*
X7476927Y-14013375D02*
X7486451Y-14032422D01*
X7486451Y-14032422D02*
X7486451Y-14137184D01*
X7581689Y-14137184D02*
X7581689Y-14003851D01*
X7581689Y-14022898D02*
X7591213Y-14013375D01*
X7591213Y-14013375D02*
X7610261Y-14003851D01*
X7610261Y-14003851D02*
X7638832Y-14003851D01*
X7638832Y-14003851D02*
X7657880Y-14013375D01*
X7657880Y-14013375D02*
X7667403Y-14032422D01*
X7667403Y-14032422D02*
X7667403Y-14137184D01*
X7667403Y-14032422D02*
X7676927Y-14013375D01*
X7676927Y-14013375D02*
X7695975Y-14003851D01*
X7695975Y-14003851D02*
X7724546Y-14003851D01*
X7724546Y-14003851D02*
X7743594Y-14013375D01*
X7743594Y-14013375D02*
X7753118Y-14032422D01*
X7753118Y-14032422D02*
X7753118Y-14137184D01*
X8143594Y-13927660D02*
X7972165Y-14184803D01*
X8400737Y-13937184D02*
X8419785Y-13937184D01*
X8419785Y-13937184D02*
X8438832Y-13946708D01*
X8438832Y-13946708D02*
X8448356Y-13956232D01*
X8448356Y-13956232D02*
X8457880Y-13975279D01*
X8457880Y-13975279D02*
X8467404Y-14013375D01*
X8467404Y-14013375D02*
X8467404Y-14060994D01*
X8467404Y-14060994D02*
X8457880Y-14099089D01*
X8457880Y-14099089D02*
X8448356Y-14118137D01*
X8448356Y-14118137D02*
X8438832Y-14127660D01*
X8438832Y-14127660D02*
X8419785Y-14137184D01*
X8419785Y-14137184D02*
X8400737Y-14137184D01*
X8400737Y-14137184D02*
X8381689Y-14127660D01*
X8381689Y-14127660D02*
X8372165Y-14118137D01*
X8372165Y-14118137D02*
X8362642Y-14099089D01*
X8362642Y-14099089D02*
X8353118Y-14060994D01*
X8353118Y-14060994D02*
X8353118Y-14013375D01*
X8353118Y-14013375D02*
X8362642Y-13975279D01*
X8362642Y-13975279D02*
X8372165Y-13956232D01*
X8372165Y-13956232D02*
X8381689Y-13946708D01*
X8381689Y-13946708D02*
X8400737Y-13937184D01*
X8553118Y-14118137D02*
X8562642Y-14127660D01*
X8562642Y-14127660D02*
X8553118Y-14137184D01*
X8553118Y-14137184D02*
X8543594Y-14127660D01*
X8543594Y-14127660D02*
X8553118Y-14118137D01*
X8553118Y-14118137D02*
X8553118Y-14137184D01*
X8686451Y-13937184D02*
X8705499Y-13937184D01*
X8705499Y-13937184D02*
X8724547Y-13946708D01*
X8724547Y-13946708D02*
X8734070Y-13956232D01*
X8734070Y-13956232D02*
X8743594Y-13975279D01*
X8743594Y-13975279D02*
X8753118Y-14013375D01*
X8753118Y-14013375D02*
X8753118Y-14060994D01*
X8753118Y-14060994D02*
X8743594Y-14099089D01*
X8743594Y-14099089D02*
X8734070Y-14118137D01*
X8734070Y-14118137D02*
X8724547Y-14127660D01*
X8724547Y-14127660D02*
X8705499Y-14137184D01*
X8705499Y-14137184D02*
X8686451Y-14137184D01*
X8686451Y-14137184D02*
X8667404Y-14127660D01*
X8667404Y-14127660D02*
X8657880Y-14118137D01*
X8657880Y-14118137D02*
X8648356Y-14099089D01*
X8648356Y-14099089D02*
X8638832Y-14060994D01*
X8638832Y-14060994D02*
X8638832Y-14013375D01*
X8638832Y-14013375D02*
X8648356Y-13975279D01*
X8648356Y-13975279D02*
X8657880Y-13956232D01*
X8657880Y-13956232D02*
X8667404Y-13946708D01*
X8667404Y-13946708D02*
X8686451Y-13937184D01*
X8934070Y-13937184D02*
X8838832Y-13937184D01*
X8838832Y-13937184D02*
X8829308Y-14032422D01*
X8829308Y-14032422D02*
X8838832Y-14022898D01*
X8838832Y-14022898D02*
X8857880Y-14013375D01*
X8857880Y-14013375D02*
X8905499Y-14013375D01*
X8905499Y-14013375D02*
X8924547Y-14022898D01*
X8924547Y-14022898D02*
X8934070Y-14032422D01*
X8934070Y-14032422D02*
X8943594Y-14051470D01*
X8943594Y-14051470D02*
X8943594Y-14099089D01*
X8943594Y-14099089D02*
X8934070Y-14118137D01*
X8934070Y-14118137D02*
X8924547Y-14127660D01*
X8924547Y-14127660D02*
X8905499Y-14137184D01*
X8905499Y-14137184D02*
X8857880Y-14137184D01*
X8857880Y-14137184D02*
X8838832Y-14127660D01*
X8838832Y-14127660D02*
X8829308Y-14118137D01*
X9124547Y-13937184D02*
X9029308Y-13937184D01*
X9029308Y-13937184D02*
X9019785Y-14032422D01*
X9019785Y-14032422D02*
X9029308Y-14022898D01*
X9029308Y-14022898D02*
X9048356Y-14013375D01*
X9048356Y-14013375D02*
X9095975Y-14013375D01*
X9095975Y-14013375D02*
X9115023Y-14022898D01*
X9115023Y-14022898D02*
X9124547Y-14032422D01*
X9124547Y-14032422D02*
X9134070Y-14051470D01*
X9134070Y-14051470D02*
X9134070Y-14099089D01*
X9134070Y-14099089D02*
X9124547Y-14118137D01*
X9124547Y-14118137D02*
X9115023Y-14127660D01*
X9115023Y-14127660D02*
X9095975Y-14137184D01*
X9095975Y-14137184D02*
X9048356Y-14137184D01*
X9048356Y-14137184D02*
X9029308Y-14127660D01*
X9029308Y-14127660D02*
X9019785Y-14118137D01*
X9324547Y-14137184D02*
X9210261Y-14137184D01*
X9267404Y-14137184D02*
X9267404Y-13937184D01*
X9267404Y-13937184D02*
X9248356Y-13965756D01*
X9248356Y-13965756D02*
X9229308Y-13984803D01*
X9229308Y-13984803D02*
X9210261Y-13994327D01*
X9400737Y-13937184D02*
X9400737Y-13975279D01*
X9476928Y-13937184D02*
X9476928Y-13975279D01*
X9772166Y-14213375D02*
X9762642Y-14203851D01*
X9762642Y-14203851D02*
X9743594Y-14175279D01*
X9743594Y-14175279D02*
X9734070Y-14156232D01*
X9734070Y-14156232D02*
X9724547Y-14127660D01*
X9724547Y-14127660D02*
X9715023Y-14080041D01*
X9715023Y-14080041D02*
X9715023Y-14041946D01*
X9715023Y-14041946D02*
X9724547Y-13994327D01*
X9724547Y-13994327D02*
X9734070Y-13965756D01*
X9734070Y-13965756D02*
X9743594Y-13946708D01*
X9743594Y-13946708D02*
X9762642Y-13918137D01*
X9762642Y-13918137D02*
X9772166Y-13908613D01*
X9934070Y-14003851D02*
X9934070Y-14137184D01*
X9886451Y-13927660D02*
X9838832Y-14070518D01*
X9838832Y-14070518D02*
X9962642Y-14070518D01*
X10191213Y-14137184D02*
X10191213Y-13937184D01*
X10276928Y-14137184D02*
X10276928Y-14032422D01*
X10276928Y-14032422D02*
X10267404Y-14013375D01*
X10267404Y-14013375D02*
X10248356Y-14003851D01*
X10248356Y-14003851D02*
X10219785Y-14003851D01*
X10219785Y-14003851D02*
X10200737Y-14013375D01*
X10200737Y-14013375D02*
X10191213Y-14022898D01*
X10400737Y-14137184D02*
X10381690Y-14127660D01*
X10381690Y-14127660D02*
X10372166Y-14118137D01*
X10372166Y-14118137D02*
X10362642Y-14099089D01*
X10362642Y-14099089D02*
X10362642Y-14041946D01*
X10362642Y-14041946D02*
X10372166Y-14022898D01*
X10372166Y-14022898D02*
X10381690Y-14013375D01*
X10381690Y-14013375D02*
X10400737Y-14003851D01*
X10400737Y-14003851D02*
X10429309Y-14003851D01*
X10429309Y-14003851D02*
X10448356Y-14013375D01*
X10448356Y-14013375D02*
X10457880Y-14022898D01*
X10457880Y-14022898D02*
X10467404Y-14041946D01*
X10467404Y-14041946D02*
X10467404Y-14099089D01*
X10467404Y-14099089D02*
X10457880Y-14118137D01*
X10457880Y-14118137D02*
X10448356Y-14127660D01*
X10448356Y-14127660D02*
X10429309Y-14137184D01*
X10429309Y-14137184D02*
X10400737Y-14137184D01*
X10581690Y-14137184D02*
X10562642Y-14127660D01*
X10562642Y-14127660D02*
X10553118Y-14108613D01*
X10553118Y-14108613D02*
X10553118Y-13937184D01*
X10734071Y-14127660D02*
X10715023Y-14137184D01*
X10715023Y-14137184D02*
X10676928Y-14137184D01*
X10676928Y-14137184D02*
X10657880Y-14127660D01*
X10657880Y-14127660D02*
X10648356Y-14108613D01*
X10648356Y-14108613D02*
X10648356Y-14032422D01*
X10648356Y-14032422D02*
X10657880Y-14013375D01*
X10657880Y-14013375D02*
X10676928Y-14003851D01*
X10676928Y-14003851D02*
X10715023Y-14003851D01*
X10715023Y-14003851D02*
X10734071Y-14013375D01*
X10734071Y-14013375D02*
X10743594Y-14032422D01*
X10743594Y-14032422D02*
X10743594Y-14051470D01*
X10743594Y-14051470D02*
X10648356Y-14070518D01*
X10819785Y-14127660D02*
X10838832Y-14137184D01*
X10838832Y-14137184D02*
X10876928Y-14137184D01*
X10876928Y-14137184D02*
X10895975Y-14127660D01*
X10895975Y-14127660D02*
X10905499Y-14108613D01*
X10905499Y-14108613D02*
X10905499Y-14099089D01*
X10905499Y-14099089D02*
X10895975Y-14080041D01*
X10895975Y-14080041D02*
X10876928Y-14070518D01*
X10876928Y-14070518D02*
X10848356Y-14070518D01*
X10848356Y-14070518D02*
X10829309Y-14060994D01*
X10829309Y-14060994D02*
X10819785Y-14041946D01*
X10819785Y-14041946D02*
X10819785Y-14032422D01*
X10819785Y-14032422D02*
X10829309Y-14013375D01*
X10829309Y-14013375D02*
X10848356Y-14003851D01*
X10848356Y-14003851D02*
X10876928Y-14003851D01*
X10876928Y-14003851D02*
X10895975Y-14013375D01*
X10972166Y-14213375D02*
X10981690Y-14203851D01*
X10981690Y-14203851D02*
X11000737Y-14175279D01*
X11000737Y-14175279D02*
X11010261Y-14156232D01*
X11010261Y-14156232D02*
X11019785Y-14127660D01*
X11019785Y-14127660D02*
X11029309Y-14080041D01*
X11029309Y-14080041D02*
X11029309Y-14041946D01*
X11029309Y-14041946D02*
X11019785Y-13994327D01*
X11019785Y-13994327D02*
X11010261Y-13965756D01*
X11010261Y-13965756D02*
X11000737Y-13946708D01*
X11000737Y-13946708D02*
X10981690Y-13918137D01*
X10981690Y-13918137D02*
X10972166Y-13908613D01*
M02*
