G04 #@! TF.GenerationSoftware,KiCad,Pcbnew,8.0.5*
G04 #@! TF.CreationDate,2024-10-30T13:21:30-05:00*
G04 #@! TF.ProjectId,bidirectional_load_switch,62696469-7265-4637-9469-6f6e616c5f6c,0.2.0*
G04 #@! TF.SameCoordinates,Original*
G04 #@! TF.FileFunction,Paste,Top*
G04 #@! TF.FilePolarity,Positive*
%FSLAX46Y46*%
G04 Gerber Fmt 4.6, Leading zero omitted, Abs format (unit mm)*
G04 Created by KiCad (PCBNEW 8.0.5) date 2024-10-30 13:21:30*
%MOMM*%
%LPD*%
G01*
G04 APERTURE LIST*
G04 Aperture macros list*
%AMRoundRect*
0 Rectangle with rounded corners*
0 $1 Rounding radius*
0 $2 $3 $4 $5 $6 $7 $8 $9 X,Y pos of 4 corners*
0 Add a 4 corners polygon primitive as box body*
4,1,4,$2,$3,$4,$5,$6,$7,$8,$9,$2,$3,0*
0 Add four circle primitives for the rounded corners*
1,1,$1+$1,$2,$3*
1,1,$1+$1,$4,$5*
1,1,$1+$1,$6,$7*
1,1,$1+$1,$8,$9*
0 Add four rect primitives between the rounded corners*
20,1,$1+$1,$2,$3,$4,$5,0*
20,1,$1+$1,$4,$5,$6,$7,0*
20,1,$1+$1,$6,$7,$8,$9,0*
20,1,$1+$1,$8,$9,$2,$3,0*%
G04 Aperture macros list end*
%ADD10RoundRect,0.200000X0.200000X0.275000X-0.200000X0.275000X-0.200000X-0.275000X0.200000X-0.275000X0*%
%ADD11R,0.558800X1.701800*%
%ADD12R,0.355600X1.168400*%
%ADD13RoundRect,0.250000X0.325000X0.650000X-0.325000X0.650000X-0.325000X-0.650000X0.325000X-0.650000X0*%
%ADD14RoundRect,0.250000X-1.425000X0.362500X-1.425000X-0.362500X1.425000X-0.362500X1.425000X0.362500X0*%
%ADD15RoundRect,0.225000X0.225000X0.250000X-0.225000X0.250000X-0.225000X-0.250000X0.225000X-0.250000X0*%
%ADD16RoundRect,0.250000X-0.325000X-0.650000X0.325000X-0.650000X0.325000X0.650000X-0.325000X0.650000X0*%
%ADD17R,1.500000X2.900000*%
%ADD18R,0.457200X0.812800*%
%ADD19RoundRect,0.200000X-0.275000X0.200000X-0.275000X-0.200000X0.275000X-0.200000X0.275000X0.200000X0*%
%ADD20R,0.533400X1.574800*%
%ADD21RoundRect,0.250000X-0.262500X-0.450000X0.262500X-0.450000X0.262500X0.450000X-0.262500X0.450000X0*%
%ADD22RoundRect,0.200000X-0.200000X-0.275000X0.200000X-0.275000X0.200000X0.275000X-0.200000X0.275000X0*%
%ADD23RoundRect,0.225000X-0.225000X-0.250000X0.225000X-0.250000X0.225000X0.250000X-0.225000X0.250000X0*%
%ADD24RoundRect,0.250000X0.262500X0.450000X-0.262500X0.450000X-0.262500X-0.450000X0.262500X-0.450000X0*%
%ADD25R,0.952500X0.558800*%
%ADD26R,0.450800X1.111200*%
%ADD27R,0.558800X1.460500*%
%ADD28RoundRect,0.225000X-0.250000X0.225000X-0.250000X-0.225000X0.250000X-0.225000X0.250000X0.225000X0*%
%ADD29R,1.111200X0.450800*%
%ADD30R,0.549999X0.800001*%
%ADD31RoundRect,0.250000X-0.650000X0.325000X-0.650000X-0.325000X0.650000X-0.325000X0.650000X0.325000X0*%
G04 APERTURE END LIST*
G36*
X117950000Y-78000000D02*
G01*
X120300000Y-78000000D01*
X120300000Y-80450000D01*
X117950000Y-80450000D01*
X117950000Y-78000000D01*
G37*
G36*
X117950000Y-81450000D02*
G01*
X120300000Y-81450000D01*
X120300000Y-83900000D01*
X117950000Y-83900000D01*
X117950000Y-81450000D01*
G37*
G36*
X121300000Y-78000000D02*
G01*
X123650000Y-78000000D01*
X123650000Y-80450000D01*
X121300000Y-80450000D01*
X121300000Y-78000000D01*
G37*
G36*
X121300000Y-81450000D02*
G01*
X123650000Y-81450000D01*
X123650000Y-83900000D01*
X121300000Y-83900000D01*
X121300000Y-81450000D01*
G37*
G36*
X191950000Y-78000000D02*
G01*
X194300000Y-78000000D01*
X194300000Y-80450000D01*
X191950000Y-80450000D01*
X191950000Y-78000000D01*
G37*
G36*
X191950000Y-81450000D02*
G01*
X194300000Y-81450000D01*
X194300000Y-83900000D01*
X191950000Y-83900000D01*
X191950000Y-81450000D01*
G37*
G36*
X195300000Y-78000000D02*
G01*
X197650000Y-78000000D01*
X197650000Y-80450000D01*
X195300000Y-80450000D01*
X195300000Y-78000000D01*
G37*
G36*
X195300000Y-81450000D02*
G01*
X197650000Y-81450000D01*
X197650000Y-83900000D01*
X195300000Y-83900000D01*
X195300000Y-81450000D01*
G37*
G36*
X164200000Y-78050000D02*
G01*
X166550000Y-78050000D01*
X166550000Y-80500000D01*
X164200000Y-80500000D01*
X164200000Y-78050000D01*
G37*
G36*
X164200000Y-81500000D02*
G01*
X166550000Y-81500000D01*
X166550000Y-83950000D01*
X164200000Y-83950000D01*
X164200000Y-81500000D01*
G37*
G36*
X167550000Y-78050000D02*
G01*
X169900000Y-78050000D01*
X169900000Y-80500000D01*
X167550000Y-80500000D01*
X167550000Y-78050000D01*
G37*
G36*
X167550000Y-81500000D02*
G01*
X169900000Y-81500000D01*
X169900000Y-83950000D01*
X167550000Y-83950000D01*
X167550000Y-81500000D01*
G37*
G36*
X219700000Y-78050000D02*
G01*
X222050000Y-78050000D01*
X222050000Y-80500000D01*
X219700000Y-80500000D01*
X219700000Y-78050000D01*
G37*
G36*
X219700000Y-81500000D02*
G01*
X222050000Y-81500000D01*
X222050000Y-83950000D01*
X219700000Y-83950000D01*
X219700000Y-81500000D01*
G37*
G36*
X223050000Y-78050000D02*
G01*
X225400000Y-78050000D01*
X225400000Y-80500000D01*
X223050000Y-80500000D01*
X223050000Y-78050000D01*
G37*
G36*
X223050000Y-81500000D02*
G01*
X225400000Y-81500000D01*
X225400000Y-83950000D01*
X223050000Y-83950000D01*
X223050000Y-81500000D01*
G37*
G36*
X145700000Y-78050000D02*
G01*
X148050000Y-78050000D01*
X148050000Y-80500000D01*
X145700000Y-80500000D01*
X145700000Y-78050000D01*
G37*
G36*
X145700000Y-81500000D02*
G01*
X148050000Y-81500000D01*
X148050000Y-83950000D01*
X145700000Y-83950000D01*
X145700000Y-81500000D01*
G37*
G36*
X149050000Y-78050000D02*
G01*
X151400000Y-78050000D01*
X151400000Y-80500000D01*
X149050000Y-80500000D01*
X149050000Y-78050000D01*
G37*
G36*
X149050000Y-81500000D02*
G01*
X151400000Y-81500000D01*
X151400000Y-83950000D01*
X149050000Y-83950000D01*
X149050000Y-81500000D01*
G37*
G36*
X136450000Y-78000000D02*
G01*
X138800000Y-78000000D01*
X138800000Y-80450000D01*
X136450000Y-80450000D01*
X136450000Y-78000000D01*
G37*
G36*
X136450000Y-81450000D02*
G01*
X138800000Y-81450000D01*
X138800000Y-83900000D01*
X136450000Y-83900000D01*
X136450000Y-81450000D01*
G37*
G36*
X139800000Y-78000000D02*
G01*
X142150000Y-78000000D01*
X142150000Y-80450000D01*
X139800000Y-80450000D01*
X139800000Y-78000000D01*
G37*
G36*
X139800000Y-81450000D02*
G01*
X142150000Y-81450000D01*
X142150000Y-83900000D01*
X139800000Y-83900000D01*
X139800000Y-81450000D01*
G37*
G36*
X173450000Y-78000000D02*
G01*
X175800000Y-78000000D01*
X175800000Y-80450000D01*
X173450000Y-80450000D01*
X173450000Y-78000000D01*
G37*
G36*
X173450000Y-81450000D02*
G01*
X175800000Y-81450000D01*
X175800000Y-83900000D01*
X173450000Y-83900000D01*
X173450000Y-81450000D01*
G37*
G36*
X176800000Y-78000000D02*
G01*
X179150000Y-78000000D01*
X179150000Y-80450000D01*
X176800000Y-80450000D01*
X176800000Y-78000000D01*
G37*
G36*
X176800000Y-81450000D02*
G01*
X179150000Y-81450000D01*
X179150000Y-83900000D01*
X176800000Y-83900000D01*
X176800000Y-81450000D01*
G37*
G36*
X127200000Y-78050000D02*
G01*
X129550000Y-78050000D01*
X129550000Y-80500000D01*
X127200000Y-80500000D01*
X127200000Y-78050000D01*
G37*
G36*
X127200000Y-81500000D02*
G01*
X129550000Y-81500000D01*
X129550000Y-83950000D01*
X127200000Y-83950000D01*
X127200000Y-81500000D01*
G37*
G36*
X130550000Y-78050000D02*
G01*
X132900000Y-78050000D01*
X132900000Y-80500000D01*
X130550000Y-80500000D01*
X130550000Y-78050000D01*
G37*
G36*
X130550000Y-81500000D02*
G01*
X132900000Y-81500000D01*
X132900000Y-83950000D01*
X130550000Y-83950000D01*
X130550000Y-81500000D01*
G37*
G36*
X182700000Y-78050000D02*
G01*
X185050000Y-78050000D01*
X185050000Y-80500000D01*
X182700000Y-80500000D01*
X182700000Y-78050000D01*
G37*
G36*
X182700000Y-81500000D02*
G01*
X185050000Y-81500000D01*
X185050000Y-83950000D01*
X182700000Y-83950000D01*
X182700000Y-81500000D01*
G37*
G36*
X186050000Y-78050000D02*
G01*
X188400000Y-78050000D01*
X188400000Y-80500000D01*
X186050000Y-80500000D01*
X186050000Y-78050000D01*
G37*
G36*
X186050000Y-81500000D02*
G01*
X188400000Y-81500000D01*
X188400000Y-83950000D01*
X186050000Y-83950000D01*
X186050000Y-81500000D01*
G37*
G36*
X228950000Y-78000000D02*
G01*
X231300000Y-78000000D01*
X231300000Y-80450000D01*
X228950000Y-80450000D01*
X228950000Y-78000000D01*
G37*
G36*
X228950000Y-81450000D02*
G01*
X231300000Y-81450000D01*
X231300000Y-83900000D01*
X228950000Y-83900000D01*
X228950000Y-81450000D01*
G37*
G36*
X232300000Y-78000000D02*
G01*
X234650000Y-78000000D01*
X234650000Y-80450000D01*
X232300000Y-80450000D01*
X232300000Y-78000000D01*
G37*
G36*
X232300000Y-81450000D02*
G01*
X234650000Y-81450000D01*
X234650000Y-83900000D01*
X232300000Y-83900000D01*
X232300000Y-81450000D01*
G37*
G36*
X201200000Y-78050000D02*
G01*
X203550000Y-78050000D01*
X203550000Y-80500000D01*
X201200000Y-80500000D01*
X201200000Y-78050000D01*
G37*
G36*
X201200000Y-81500000D02*
G01*
X203550000Y-81500000D01*
X203550000Y-83950000D01*
X201200000Y-83950000D01*
X201200000Y-81500000D01*
G37*
G36*
X204550000Y-78050000D02*
G01*
X206900000Y-78050000D01*
X206900000Y-80500000D01*
X204550000Y-80500000D01*
X204550000Y-78050000D01*
G37*
G36*
X204550000Y-81500000D02*
G01*
X206900000Y-81500000D01*
X206900000Y-83950000D01*
X204550000Y-83950000D01*
X204550000Y-81500000D01*
G37*
G36*
X210450000Y-78000000D02*
G01*
X212800000Y-78000000D01*
X212800000Y-80450000D01*
X210450000Y-80450000D01*
X210450000Y-78000000D01*
G37*
G36*
X210450000Y-81450000D02*
G01*
X212800000Y-81450000D01*
X212800000Y-83900000D01*
X210450000Y-83900000D01*
X210450000Y-81450000D01*
G37*
G36*
X213800000Y-78000000D02*
G01*
X216150000Y-78000000D01*
X216150000Y-80450000D01*
X213800000Y-80450000D01*
X213800000Y-78000000D01*
G37*
G36*
X213800000Y-81450000D02*
G01*
X216150000Y-81450000D01*
X216150000Y-83900000D01*
X213800000Y-83900000D01*
X213800000Y-81450000D01*
G37*
G36*
X154950000Y-78000000D02*
G01*
X157300000Y-78000000D01*
X157300000Y-80450000D01*
X154950000Y-80450000D01*
X154950000Y-78000000D01*
G37*
G36*
X154950000Y-81450000D02*
G01*
X157300000Y-81450000D01*
X157300000Y-83900000D01*
X154950000Y-83900000D01*
X154950000Y-81450000D01*
G37*
G36*
X158300000Y-78000000D02*
G01*
X160650000Y-78000000D01*
X160650000Y-80450000D01*
X158300000Y-80450000D01*
X158300000Y-78000000D01*
G37*
G36*
X158300000Y-81450000D02*
G01*
X160650000Y-81450000D01*
X160650000Y-83900000D01*
X158300000Y-83900000D01*
X158300000Y-81450000D01*
G37*
G36*
X108700000Y-78050000D02*
G01*
X111050000Y-78050000D01*
X111050000Y-80500000D01*
X108700000Y-80500000D01*
X108700000Y-78050000D01*
G37*
G36*
X108700000Y-81500000D02*
G01*
X111050000Y-81500000D01*
X111050000Y-83950000D01*
X108700000Y-83950000D01*
X108700000Y-81500000D01*
G37*
G36*
X112050000Y-78050000D02*
G01*
X114400000Y-78050000D01*
X114400000Y-80500000D01*
X112050000Y-80500000D01*
X112050000Y-78050000D01*
G37*
G36*
X112050000Y-81500000D02*
G01*
X114400000Y-81500000D01*
X114400000Y-83950000D01*
X112050000Y-83950000D01*
X112050000Y-81500000D01*
G37*
G36*
X99450000Y-78000000D02*
G01*
X101800000Y-78000000D01*
X101800000Y-80450000D01*
X99450000Y-80450000D01*
X99450000Y-78000000D01*
G37*
G36*
X99450000Y-81450000D02*
G01*
X101800000Y-81450000D01*
X101800000Y-83900000D01*
X99450000Y-83900000D01*
X99450000Y-81450000D01*
G37*
G36*
X102800000Y-78000000D02*
G01*
X105150000Y-78000000D01*
X105150000Y-80450000D01*
X102800000Y-80450000D01*
X102800000Y-78000000D01*
G37*
G36*
X102800000Y-81450000D02*
G01*
X105150000Y-81450000D01*
X105150000Y-83900000D01*
X102800000Y-83900000D01*
X102800000Y-81450000D01*
G37*
G36*
X90200000Y-78050000D02*
G01*
X92550000Y-78050000D01*
X92550000Y-80500000D01*
X90200000Y-80500000D01*
X90200000Y-78050000D01*
G37*
G36*
X90200000Y-81500000D02*
G01*
X92550000Y-81500000D01*
X92550000Y-83950000D01*
X90200000Y-83950000D01*
X90200000Y-81500000D01*
G37*
G36*
X93550000Y-78050000D02*
G01*
X95900000Y-78050000D01*
X95900000Y-80500000D01*
X93550000Y-80500000D01*
X93550000Y-78050000D01*
G37*
G36*
X93550000Y-81500000D02*
G01*
X95900000Y-81500000D01*
X95900000Y-83950000D01*
X93550000Y-83950000D01*
X93550000Y-81500000D01*
G37*
D10*
X100475000Y-111800000D03*
X98825000Y-111800000D03*
X152625000Y-111800000D03*
X150975000Y-111800000D03*
D11*
X206030000Y-109184800D03*
X207300000Y-109184800D03*
X208570000Y-109184800D03*
X208570000Y-98415200D03*
X207300000Y-98415200D03*
X206030000Y-98415200D03*
D12*
X225150001Y-115541400D03*
X225800000Y-115541400D03*
X226449999Y-115541400D03*
X226449999Y-113458600D03*
X225150001Y-113458600D03*
D13*
X87524998Y-110275001D03*
X84574998Y-110275001D03*
D14*
X148550000Y-62837500D03*
X148550000Y-68762500D03*
D15*
X186525000Y-113400000D03*
X184975000Y-113400000D03*
D16*
X224325000Y-93800000D03*
X227275000Y-93800000D03*
D17*
X118514000Y-87450000D03*
X123086000Y-87450000D03*
D18*
X229721500Y-114950000D03*
X228578500Y-114950000D03*
D17*
X192514000Y-87450000D03*
X197086000Y-87450000D03*
D15*
X112525000Y-113400000D03*
X110975000Y-113400000D03*
D19*
X76950000Y-95275000D03*
X76950000Y-96925000D03*
D20*
X76955000Y-103854300D03*
X75685000Y-103854300D03*
X74415000Y-103854300D03*
X73145000Y-103854300D03*
X73145000Y-111245700D03*
X74415000Y-111245700D03*
X75685000Y-111245700D03*
X76955000Y-111245700D03*
D21*
X227137500Y-91050000D03*
X228962500Y-91050000D03*
X153137500Y-91050000D03*
X154962500Y-91050000D03*
D22*
X172825000Y-113400000D03*
X174475000Y-113400000D03*
D18*
X155721500Y-114950000D03*
X154578500Y-114950000D03*
D23*
X169525000Y-96050000D03*
X171075000Y-96050000D03*
D21*
X171637500Y-91050000D03*
X173462500Y-91050000D03*
D22*
X228325000Y-113400000D03*
X229975000Y-113400000D03*
D10*
X189625000Y-111800000D03*
X187975000Y-111800000D03*
D23*
X225025000Y-96050000D03*
X226575000Y-96050000D03*
D10*
X226625000Y-111800000D03*
X224975000Y-111800000D03*
D23*
X151025000Y-96050000D03*
X152575000Y-96050000D03*
D16*
X187325000Y-93800000D03*
X190275000Y-93800000D03*
D15*
X131025000Y-113400000D03*
X129475000Y-113400000D03*
X94025000Y-111800000D03*
X92475000Y-111800000D03*
D14*
X93050000Y-62837500D03*
X93050000Y-68762500D03*
D10*
X208125000Y-111800000D03*
X206475000Y-111800000D03*
D16*
X205825000Y-93800000D03*
X208775000Y-93800000D03*
D21*
X208637500Y-91050000D03*
X210462500Y-91050000D03*
D17*
X164764000Y-87500000D03*
X169336000Y-87500000D03*
X220264000Y-87500000D03*
X224836000Y-87500000D03*
D21*
X116137500Y-91050000D03*
X117962500Y-91050000D03*
D22*
X117325000Y-113400000D03*
X118975000Y-113400000D03*
D24*
X206462500Y-91050000D03*
X204637500Y-91050000D03*
D18*
X192721500Y-114950000D03*
X191578500Y-114950000D03*
D11*
X95030000Y-109184800D03*
X96300000Y-109184800D03*
X97570000Y-109184800D03*
X97570000Y-98415200D03*
X96300000Y-98415200D03*
X95030000Y-98415200D03*
D15*
X223525000Y-111800000D03*
X221975000Y-111800000D03*
D11*
X113530000Y-109184800D03*
X114800000Y-109184800D03*
X116070000Y-109184800D03*
X116070000Y-98415200D03*
X114800000Y-98415200D03*
X113530000Y-98415200D03*
D15*
X149525000Y-111800000D03*
X147975000Y-111800000D03*
D22*
X154325000Y-113400000D03*
X155975000Y-113400000D03*
D24*
X187962500Y-91050000D03*
X186137500Y-91050000D03*
D11*
X169030000Y-109184800D03*
X170300000Y-109184800D03*
X171570000Y-109184800D03*
X171570000Y-98415200D03*
X170300000Y-98415200D03*
X169030000Y-98415200D03*
D10*
X78875000Y-101300000D03*
X77225000Y-101300000D03*
X211475000Y-111800000D03*
X209825000Y-111800000D03*
D25*
X64618650Y-78445800D03*
X64618650Y-82154200D03*
X70981350Y-82154200D03*
X70981350Y-78445800D03*
D17*
X146264000Y-87500000D03*
X150836000Y-87500000D03*
D23*
X188025000Y-96050000D03*
X189575000Y-96050000D03*
D14*
X111550000Y-62837500D03*
X111550000Y-68762500D03*
D22*
X135825000Y-113400000D03*
X137475000Y-113400000D03*
D10*
X171125000Y-111800000D03*
X169475000Y-111800000D03*
D24*
X132462500Y-91050000D03*
X130637500Y-91050000D03*
D17*
X137014000Y-87450000D03*
X141586000Y-87450000D03*
D14*
X185550000Y-62837500D03*
X185550000Y-68762500D03*
D21*
X190137500Y-91050000D03*
X191962500Y-91050000D03*
D26*
X74150000Y-95550000D03*
X74150000Y-93250000D03*
D18*
X118721500Y-114950000D03*
X117578500Y-114950000D03*
D10*
X192975000Y-111800000D03*
X191325000Y-111800000D03*
X229975000Y-111800000D03*
X228325000Y-111800000D03*
D11*
X150530000Y-109184800D03*
X151800000Y-109184800D03*
X153070000Y-109184800D03*
X153070000Y-98415200D03*
X151800000Y-98415200D03*
X150530000Y-98415200D03*
D15*
X149525000Y-113400000D03*
X147975000Y-113400000D03*
D17*
X174014000Y-87450000D03*
X178586000Y-87450000D03*
D21*
X97637500Y-91050000D03*
X99462500Y-91050000D03*
D17*
X127764000Y-87500000D03*
X132336000Y-87500000D03*
D15*
X131025000Y-111800000D03*
X129475000Y-111800000D03*
D27*
X80605000Y-86825850D03*
X79335000Y-86825850D03*
X78065000Y-86825850D03*
X76795000Y-86825850D03*
X76795000Y-92274150D03*
X78065000Y-92274150D03*
X79335000Y-92274150D03*
X80605000Y-92274150D03*
D22*
X98825000Y-113400000D03*
X100475000Y-113400000D03*
D28*
X83299998Y-104800001D03*
X83299998Y-106350001D03*
D23*
X206525000Y-96050000D03*
X208075000Y-96050000D03*
D12*
X169650001Y-115541400D03*
X170300000Y-115541400D03*
X170949999Y-115541400D03*
X170949999Y-113458600D03*
X169650001Y-113458600D03*
D17*
X183264000Y-87500000D03*
X187836000Y-87500000D03*
D15*
X168025000Y-111800000D03*
X166475000Y-111800000D03*
D21*
X134637500Y-91050000D03*
X136462500Y-91050000D03*
D23*
X81025000Y-94450000D03*
X82575000Y-94450000D03*
D17*
X229514000Y-87450000D03*
X234086000Y-87450000D03*
D24*
X95462500Y-91050000D03*
X93637500Y-91050000D03*
D11*
X132030000Y-109184800D03*
X133300000Y-109184800D03*
X134570000Y-109184800D03*
X134570000Y-98415200D03*
X133300000Y-98415200D03*
X132030000Y-98415200D03*
D17*
X201764000Y-87500000D03*
X206336000Y-87500000D03*
D10*
X174475000Y-111800000D03*
X172825000Y-111800000D03*
X97125000Y-111800000D03*
X95475000Y-111800000D03*
X115625000Y-111800000D03*
X113975000Y-111800000D03*
D29*
X89350000Y-112900000D03*
X87050000Y-112900000D03*
D11*
X187530000Y-109184800D03*
X188800000Y-109184800D03*
X190070000Y-109184800D03*
X190070000Y-98415200D03*
X188800000Y-98415200D03*
X187530000Y-98415200D03*
D18*
X174221500Y-114950000D03*
X173078500Y-114950000D03*
D15*
X205025000Y-113400000D03*
X203475000Y-113400000D03*
D24*
X169462500Y-91050000D03*
X167637500Y-91050000D03*
D12*
X114150001Y-115541400D03*
X114800000Y-115541400D03*
X115449999Y-115541400D03*
X115449999Y-113458600D03*
X114150001Y-113458600D03*
D18*
X211221500Y-114950000D03*
X210078500Y-114950000D03*
D22*
X209825000Y-113400000D03*
X211475000Y-113400000D03*
D14*
X130050000Y-62837500D03*
X130050000Y-68762500D03*
D10*
X118975000Y-111800000D03*
X117325000Y-111800000D03*
D12*
X95650001Y-115541400D03*
X96300000Y-115541400D03*
X96949999Y-115541400D03*
X96949999Y-113458600D03*
X95650001Y-113458600D03*
D11*
X224530000Y-109184800D03*
X225800000Y-109184800D03*
X227070000Y-109184800D03*
X227070000Y-98415200D03*
X225800000Y-98415200D03*
X224530000Y-98415200D03*
D22*
X191325000Y-113400000D03*
X192975000Y-113400000D03*
D15*
X205025000Y-111800000D03*
X203475000Y-111800000D03*
D16*
X150325000Y-93800000D03*
X153275000Y-93800000D03*
D17*
X211014000Y-87450000D03*
X215586000Y-87450000D03*
D16*
X113325000Y-93800000D03*
X116275000Y-93800000D03*
D12*
X206650001Y-115541400D03*
X207300000Y-115541400D03*
X207949999Y-115541400D03*
X207949999Y-113458600D03*
X206650001Y-113458600D03*
D15*
X112525000Y-111800000D03*
X110975000Y-111800000D03*
D23*
X77275000Y-99300000D03*
X78825000Y-99300000D03*
D30*
X85349999Y-106825001D03*
X86300000Y-106825001D03*
X87249998Y-106825001D03*
X87249998Y-104275001D03*
X85349999Y-104275001D03*
D12*
X188150001Y-115541400D03*
X188800000Y-115541400D03*
X189449999Y-115541400D03*
X189449999Y-113458600D03*
X188150001Y-113458600D03*
D10*
X137475000Y-111800000D03*
X135825000Y-111800000D03*
D16*
X131825000Y-93800000D03*
X134775000Y-93800000D03*
D15*
X87074998Y-108275001D03*
X85524998Y-108275001D03*
X223525000Y-113400000D03*
X221975000Y-113400000D03*
X168025000Y-113400000D03*
X166475000Y-113400000D03*
D12*
X151150001Y-115541400D03*
X151800000Y-115541400D03*
X152449999Y-115541400D03*
X152449999Y-113458600D03*
X151150001Y-113458600D03*
D16*
X94825000Y-93800000D03*
X97775000Y-93800000D03*
D10*
X155975000Y-111800000D03*
X154325000Y-111800000D03*
D24*
X224962500Y-91050000D03*
X223137500Y-91050000D03*
D26*
X89549998Y-106725001D03*
X89549998Y-104425001D03*
D16*
X168825000Y-93800000D03*
X171775000Y-93800000D03*
D14*
X167050000Y-62837500D03*
X167050000Y-68762500D03*
D10*
X134125000Y-111800000D03*
X132475000Y-111800000D03*
D17*
X155514000Y-87450000D03*
X160086000Y-87450000D03*
D31*
X80799998Y-104100001D03*
X80799998Y-107050001D03*
D18*
X137221500Y-114950000D03*
X136078500Y-114950000D03*
D14*
X204050000Y-62837500D03*
X204050000Y-68762500D03*
D15*
X94025000Y-113400000D03*
X92475000Y-113400000D03*
D24*
X150962500Y-91050000D03*
X149137500Y-91050000D03*
D23*
X95525000Y-96050000D03*
X97075000Y-96050000D03*
D17*
X109264000Y-87500000D03*
X113836000Y-87500000D03*
D12*
X132650001Y-115541400D03*
X133300000Y-115541400D03*
X133949999Y-115541400D03*
X133949999Y-113458600D03*
X132650001Y-113458600D03*
D14*
X222550000Y-62837500D03*
X222550000Y-68762500D03*
D15*
X186525000Y-111800000D03*
X184975000Y-111800000D03*
D23*
X132525000Y-96050000D03*
X134075000Y-96050000D03*
D24*
X113962500Y-91050000D03*
X112137500Y-91050000D03*
D18*
X100221500Y-114950000D03*
X99078500Y-114950000D03*
D23*
X78625000Y-111450000D03*
X80175000Y-111450000D03*
X114025000Y-96050000D03*
X115575000Y-96050000D03*
D17*
X100014000Y-87450000D03*
X104586000Y-87450000D03*
X90764000Y-87500000D03*
X95336000Y-87500000D03*
M02*
