M48
; DRILL file {KiCad 8.0.5} date 2024-10-14T14:14:46-0500
; FORMAT={-:-/ absolute / metric / decimal}
; #@! TF.CreationDate,2024-10-14T14:14:46-05:00
; #@! TF.GenerationSoftware,Kicad,Pcbnew,8.0.5
; #@! TF.FileFunction,Plated,1,2,PTH
FMAT,2
METRIC
; #@! TA.AperFunction,Plated,PTH,ViaDrill
T1C0.300
; #@! TA.AperFunction,Plated,PTH,ComponentDrill
T2C1.000
; #@! TA.AperFunction,Plated,PTH,ComponentDrill
T3C1.400
%
G90
G05
T1
X67.55Y-78.446
X68.254Y-78.446
X70.599Y-91.034
X71.943Y-89.69
X72.35Y-102.55
X72.35Y-103.3
X72.35Y-104.05
X73.1Y-102.55
X76.05Y-92.15
X76.05Y-92.9
X76.05Y-93.65
X76.8Y-93.65
X78.5Y-98.25
X79.2Y-98.25
X80.242Y-109.142
X81.192Y-109.142
X81.192Y-110.542
X81.2Y-111.95
X81.2Y-113.35
X82.142Y-109.142
X82.142Y-110.542
X82.142Y-111.942
X82.142Y-113.342
X82.15Y-114.75
X82.25Y-93.35
X82.95Y-93.35
X83.092Y-109.142
X83.092Y-110.542
X83.092Y-111.942
X83.092Y-113.342
X83.092Y-114.742
X84.042Y-109.142
X84.042Y-113.342
X84.042Y-114.742
X84.992Y-113.342
X84.992Y-114.742
X90.5Y-113.3
X90.5Y-114.3
X90.5Y-115.3
X90.5Y-116.3
X90.5Y-117.3
X90.5Y-118.25
X90.5Y-119.3
X90.55Y-97.9
X90.55Y-98.75
X90.95Y-108.75
X90.95Y-109.75
X91.4Y-97.9
X91.4Y-98.75
X91.95Y-108.75
X91.95Y-109.75
X92.25Y-97.9
X92.25Y-98.75
X92.95Y-108.75
X92.95Y-109.75
X93.1Y-97.9
X93.1Y-98.75
X93.95Y-97.9
X93.95Y-98.75
X93.95Y-108.75
X93.95Y-109.75
X96.75Y-86.45
X96.75Y-87.2
X96.75Y-87.95
X96.75Y-88.7
X96.95Y-121.9
X97.5Y-86.45
X97.5Y-87.2
X97.5Y-87.95
X97.5Y-88.7
X97.55Y-120.85
X97.55Y-121.5
X98.05Y-115.4
X98.2Y-114.65
X98.3Y-113.9
X98.4Y-113.15
X98.95Y-112.65
X99.3Y-93.3
X99.3Y-94.8
X99.3Y-96.3
X99.7Y-112.65
X100.0Y-70.8
X100.0Y-71.9
X100.0Y-73.0
X100.0Y-74.1
X100.0Y-75.25
X100.0Y-76.35
X100.7Y-93.3
X100.7Y-94.8
X100.7Y-96.3
X101.15Y-70.8
X101.15Y-71.9
X101.15Y-73.0
X101.15Y-74.1
X101.15Y-75.25
X101.15Y-76.35
X102.0Y-91.8
X102.05Y-90.3
X102.1Y-93.3
X102.1Y-94.8
X102.1Y-96.3
X102.3Y-70.8
X102.3Y-71.9
X102.3Y-73.0
X102.3Y-74.1
X102.3Y-75.25
X102.3Y-76.35
X102.85Y-88.9
X103.45Y-70.8
X103.45Y-71.9
X103.45Y-73.0
X103.45Y-74.1
X103.45Y-75.25
X103.45Y-76.35
X103.5Y-93.3
X103.5Y-94.8
X103.5Y-96.3
X103.55Y-90.3
X103.55Y-91.8
X104.6Y-70.8
X104.6Y-71.9
X104.6Y-73.0
X104.6Y-74.1
X104.6Y-75.25
X104.6Y-76.35
X104.9Y-93.3
X104.9Y-94.8
X104.9Y-96.3
X104.95Y-90.3
X104.95Y-91.8
X106.3Y-87.3
X106.3Y-88.8
X106.3Y-90.3
X106.3Y-91.8
X106.3Y-93.3
X106.3Y-94.8
X106.3Y-96.3
X109.0Y-113.3
X109.0Y-114.3
X109.0Y-115.3
X109.0Y-116.3
X109.0Y-117.3
X109.0Y-118.25
X109.0Y-119.3
X109.05Y-97.9
X109.05Y-98.75
X109.1Y-109.3
X109.7Y-108.75
X109.7Y-109.85
X109.9Y-97.9
X109.9Y-98.75
X110.25Y-109.3
X110.75Y-97.9
X110.75Y-98.75
X110.8Y-108.75
X110.8Y-109.85
X111.35Y-109.3
X111.6Y-97.9
X111.6Y-98.75
X111.9Y-108.75
X111.9Y-109.85
X112.45Y-97.9
X112.45Y-98.75
X115.25Y-86.45
X115.25Y-87.2
X115.25Y-87.95
X115.25Y-88.7
X115.45Y-121.9
X116.0Y-86.45
X116.0Y-87.2
X116.0Y-87.95
X116.0Y-88.7
X116.05Y-120.85
X116.05Y-121.5
X116.55Y-115.4
X116.7Y-114.65
X116.8Y-113.9
X116.9Y-113.15
X117.45Y-112.65
X117.8Y-93.3
X117.8Y-94.8
X117.8Y-96.3
X118.2Y-112.65
X118.5Y-70.8
X118.5Y-71.9
X118.5Y-73.0
X118.5Y-74.1
X118.5Y-75.25
X118.5Y-76.35
X119.2Y-93.3
X119.2Y-94.8
X119.2Y-96.3
X119.65Y-70.8
X119.65Y-71.9
X119.65Y-73.0
X119.65Y-74.1
X119.65Y-75.25
X119.65Y-76.35
X120.5Y-91.8
X120.55Y-90.3
X120.6Y-93.3
X120.6Y-94.8
X120.6Y-96.3
X120.8Y-70.8
X120.8Y-71.9
X120.8Y-73.0
X120.8Y-74.1
X120.8Y-75.25
X120.8Y-76.35
X121.35Y-88.9
X121.95Y-70.8
X121.95Y-71.9
X121.95Y-73.0
X121.95Y-74.1
X121.95Y-75.25
X121.95Y-76.35
X122.0Y-93.3
X122.0Y-94.8
X122.0Y-96.3
X122.05Y-90.3
X122.05Y-91.8
X123.1Y-70.8
X123.1Y-71.9
X123.1Y-73.0
X123.1Y-74.1
X123.1Y-75.25
X123.1Y-76.35
X123.4Y-93.3
X123.4Y-94.8
X123.4Y-96.3
X123.45Y-90.3
X123.45Y-91.8
X124.8Y-87.3
X124.8Y-88.8
X124.8Y-90.3
X124.8Y-91.8
X124.8Y-93.3
X124.8Y-94.8
X124.8Y-96.3
X127.5Y-113.3
X127.5Y-114.3
X127.5Y-115.3
X127.5Y-116.3
X127.5Y-117.3
X127.5Y-118.25
X127.5Y-119.3
X127.55Y-97.9
X127.55Y-98.75
X127.6Y-109.3
X128.2Y-108.75
X128.2Y-109.85
X128.4Y-97.9
X128.4Y-98.75
X128.75Y-109.3
X129.25Y-97.9
X129.25Y-98.75
X129.3Y-108.75
X129.3Y-109.85
X129.85Y-109.3
X130.1Y-97.9
X130.1Y-98.75
X130.4Y-108.75
X130.4Y-109.85
X130.95Y-97.9
X130.95Y-98.75
X133.75Y-86.45
X133.75Y-87.2
X133.75Y-87.95
X133.75Y-88.7
X133.95Y-121.9
X134.5Y-86.45
X134.5Y-87.2
X134.5Y-87.95
X134.5Y-88.7
X134.55Y-120.85
X134.55Y-121.5
X135.05Y-115.4
X135.2Y-114.65
X135.3Y-113.9
X135.4Y-113.15
X135.95Y-112.65
X136.3Y-93.3
X136.3Y-94.8
X136.3Y-96.3
X136.7Y-112.65
X137.0Y-70.8
X137.0Y-71.9
X137.0Y-73.0
X137.0Y-74.1
X137.0Y-75.25
X137.0Y-76.35
X137.7Y-93.3
X137.7Y-94.8
X137.7Y-96.3
X138.15Y-70.8
X138.15Y-71.9
X138.15Y-73.0
X138.15Y-74.1
X138.15Y-75.25
X138.15Y-76.35
X139.0Y-91.8
X139.05Y-90.3
X139.1Y-93.3
X139.1Y-94.8
X139.1Y-96.3
X139.3Y-70.8
X139.3Y-71.9
X139.3Y-73.0
X139.3Y-74.1
X139.3Y-75.25
X139.3Y-76.35
X139.85Y-88.9
X140.45Y-70.8
X140.45Y-71.9
X140.45Y-73.0
X140.45Y-74.1
X140.45Y-75.25
X140.45Y-76.35
X140.5Y-93.3
X140.5Y-94.8
X140.5Y-96.3
X140.55Y-90.3
X140.55Y-91.8
X141.6Y-70.8
X141.6Y-71.9
X141.6Y-73.0
X141.6Y-74.1
X141.6Y-75.25
X141.6Y-76.35
X141.9Y-93.3
X141.9Y-94.8
X141.9Y-96.3
X141.95Y-90.3
X141.95Y-91.8
X143.3Y-87.3
X143.3Y-88.8
X143.3Y-90.3
X143.3Y-91.8
X143.3Y-93.3
X143.3Y-94.8
X143.3Y-96.3
X146.0Y-113.3
X146.0Y-114.3
X146.0Y-115.3
X146.0Y-116.3
X146.0Y-117.3
X146.0Y-118.25
X146.0Y-119.3
X146.05Y-97.9
X146.05Y-98.75
X146.1Y-109.3
X146.7Y-108.75
X146.7Y-109.85
X146.9Y-97.9
X146.9Y-98.75
X147.25Y-109.3
X147.75Y-97.9
X147.75Y-98.75
X147.8Y-108.75
X147.8Y-109.85
X148.35Y-109.3
X148.6Y-97.9
X148.6Y-98.75
X148.9Y-108.75
X148.9Y-109.85
X149.45Y-97.9
X149.45Y-98.75
X152.25Y-86.45
X152.25Y-87.2
X152.25Y-87.95
X152.25Y-88.7
X152.45Y-121.9
X153.0Y-86.45
X153.0Y-87.2
X153.0Y-87.95
X153.0Y-88.7
X153.05Y-120.85
X153.05Y-121.5
X153.55Y-115.4
X153.7Y-114.65
X153.8Y-113.9
X153.9Y-113.15
X154.45Y-112.65
X154.8Y-93.3
X154.8Y-94.8
X154.8Y-96.3
X155.2Y-112.65
X155.5Y-70.8
X155.5Y-71.9
X155.5Y-73.0
X155.5Y-74.1
X155.5Y-75.25
X155.5Y-76.35
X156.2Y-93.3
X156.2Y-94.8
X156.2Y-96.3
X156.65Y-70.8
X156.65Y-71.9
X156.65Y-73.0
X156.65Y-74.1
X156.65Y-75.25
X156.65Y-76.35
X157.5Y-91.8
X157.55Y-90.3
X157.6Y-93.3
X157.6Y-94.8
X157.6Y-96.3
X157.8Y-70.8
X157.8Y-71.9
X157.8Y-73.0
X157.8Y-74.1
X157.8Y-75.25
X157.8Y-76.35
X158.35Y-88.9
X158.95Y-70.8
X158.95Y-71.9
X158.95Y-73.0
X158.95Y-74.1
X158.95Y-75.25
X158.95Y-76.35
X159.0Y-93.3
X159.0Y-94.8
X159.0Y-96.3
X159.05Y-90.3
X159.05Y-91.8
X160.1Y-70.8
X160.1Y-71.9
X160.1Y-73.0
X160.1Y-74.1
X160.1Y-75.25
X160.1Y-76.35
X160.4Y-93.3
X160.4Y-94.8
X160.4Y-96.3
X160.45Y-90.3
X160.45Y-91.8
X161.8Y-87.3
X161.8Y-88.8
X161.8Y-90.3
X161.8Y-91.8
X161.8Y-93.3
X161.8Y-94.8
X161.8Y-96.3
X164.5Y-113.3
X164.5Y-114.3
X164.5Y-115.3
X164.5Y-116.3
X164.5Y-117.3
X164.5Y-118.25
X164.5Y-119.3
X164.55Y-97.9
X164.55Y-98.75
X164.6Y-109.3
X165.2Y-108.75
X165.2Y-109.85
X165.4Y-97.9
X165.4Y-98.75
X165.75Y-109.3
X166.25Y-97.9
X166.25Y-98.75
X166.3Y-108.75
X166.3Y-109.85
X166.85Y-109.3
X167.1Y-97.9
X167.1Y-98.75
X167.4Y-108.75
X167.4Y-109.85
X167.95Y-97.9
X167.95Y-98.75
X170.75Y-86.45
X170.75Y-87.2
X170.75Y-87.95
X170.75Y-88.7
X170.95Y-121.9
X171.5Y-86.45
X171.5Y-87.2
X171.5Y-87.95
X171.5Y-88.7
X171.55Y-120.85
X171.55Y-121.5
X172.05Y-115.4
X172.2Y-114.65
X172.3Y-113.9
X172.4Y-113.15
X172.95Y-112.65
X173.3Y-93.3
X173.3Y-94.8
X173.3Y-96.3
X173.7Y-112.65
X174.0Y-70.8
X174.0Y-71.9
X174.0Y-73.0
X174.0Y-74.1
X174.0Y-75.25
X174.0Y-76.35
X174.7Y-93.3
X174.7Y-94.8
X174.7Y-96.3
X175.15Y-70.8
X175.15Y-71.9
X175.15Y-73.0
X175.15Y-74.1
X175.15Y-75.25
X175.15Y-76.35
X176.0Y-91.8
X176.05Y-90.3
X176.1Y-93.3
X176.1Y-94.8
X176.1Y-96.3
X176.3Y-70.8
X176.3Y-71.9
X176.3Y-73.0
X176.3Y-74.1
X176.3Y-75.25
X176.3Y-76.35
X176.85Y-88.9
X177.45Y-70.8
X177.45Y-71.9
X177.45Y-73.0
X177.45Y-74.1
X177.45Y-75.25
X177.45Y-76.35
X177.5Y-93.3
X177.5Y-94.8
X177.5Y-96.3
X177.55Y-90.3
X177.55Y-91.8
X178.6Y-70.8
X178.6Y-71.9
X178.6Y-73.0
X178.6Y-74.1
X178.6Y-75.25
X178.6Y-76.35
X178.9Y-93.3
X178.9Y-94.8
X178.9Y-96.3
X178.95Y-90.3
X178.95Y-91.8
X180.25Y-87.3
X180.25Y-88.8
X180.25Y-90.3
X180.25Y-91.8
X180.25Y-93.3
X180.25Y-94.8
X180.25Y-96.3
X183.0Y-113.3
X183.0Y-114.3
X183.0Y-115.3
X183.0Y-116.3
X183.0Y-117.3
X183.0Y-118.25
X183.0Y-119.3
X183.05Y-97.9
X183.05Y-98.75
X183.1Y-109.3
X183.7Y-108.75
X183.7Y-109.85
X183.9Y-97.9
X183.9Y-98.75
X184.25Y-109.3
X184.75Y-97.9
X184.75Y-98.75
X184.8Y-108.75
X184.8Y-109.85
X185.35Y-109.3
X185.6Y-97.9
X185.6Y-98.75
X185.9Y-108.75
X185.9Y-109.85
X186.45Y-97.9
X186.45Y-98.75
X189.25Y-86.45
X189.25Y-87.2
X189.25Y-87.95
X189.25Y-88.7
X189.45Y-121.9
X190.0Y-86.45
X190.0Y-87.2
X190.0Y-87.95
X190.0Y-88.7
X190.05Y-120.85
X190.05Y-121.5
X190.55Y-115.4
X190.7Y-114.65
X190.8Y-113.9
X190.9Y-113.15
X191.45Y-112.65
X191.8Y-93.3
X191.8Y-94.8
X191.8Y-96.3
X192.2Y-112.65
X192.5Y-70.8
X192.5Y-71.9
X192.5Y-73.0
X192.5Y-74.1
X192.5Y-75.25
X192.5Y-76.35
X193.2Y-93.3
X193.2Y-94.8
X193.2Y-96.3
X193.65Y-70.8
X193.65Y-71.9
X193.65Y-73.0
X193.65Y-74.1
X193.65Y-75.25
X193.65Y-76.35
X194.5Y-91.8
X194.55Y-90.3
X194.6Y-93.3
X194.6Y-94.8
X194.6Y-96.3
X194.8Y-70.8
X194.8Y-71.9
X194.8Y-73.0
X194.8Y-74.1
X194.8Y-75.25
X194.8Y-76.35
X195.35Y-88.9
X195.95Y-70.8
X195.95Y-71.9
X195.95Y-73.0
X195.95Y-74.1
X195.95Y-75.25
X195.95Y-76.35
X196.0Y-93.3
X196.0Y-94.8
X196.0Y-96.3
X196.05Y-90.3
X196.05Y-91.8
X197.1Y-70.8
X197.1Y-71.9
X197.1Y-73.0
X197.1Y-74.1
X197.1Y-75.25
X197.1Y-76.35
X197.4Y-93.3
X197.4Y-94.8
X197.4Y-96.3
X197.45Y-90.3
X197.45Y-91.8
X198.8Y-87.3
X198.8Y-88.8
X198.8Y-90.3
X198.8Y-91.8
X198.8Y-93.3
X198.8Y-94.8
X198.8Y-96.3
X201.5Y-113.3
X201.5Y-114.3
X201.5Y-115.3
X201.5Y-116.3
X201.5Y-117.3
X201.5Y-118.25
X201.5Y-119.3
X201.55Y-97.9
X201.55Y-98.75
X201.6Y-109.3
X202.2Y-108.75
X202.2Y-109.85
X202.4Y-97.9
X202.4Y-98.75
X202.75Y-109.3
X203.25Y-97.9
X203.25Y-98.75
X203.3Y-108.75
X203.3Y-109.85
X203.85Y-109.3
X204.1Y-97.9
X204.1Y-98.75
X204.4Y-108.75
X204.4Y-109.85
X204.95Y-97.9
X204.95Y-98.75
X207.75Y-86.45
X207.75Y-87.2
X207.75Y-87.95
X207.75Y-88.7
X207.95Y-121.9
X208.5Y-86.45
X208.5Y-87.2
X208.5Y-87.95
X208.5Y-88.7
X208.55Y-120.85
X208.55Y-121.5
X209.05Y-115.4
X209.2Y-114.65
X209.3Y-113.9
X209.4Y-113.15
X209.95Y-112.65
X210.3Y-93.3
X210.3Y-94.8
X210.3Y-96.3
X210.7Y-112.65
X211.0Y-70.8
X211.0Y-71.9
X211.0Y-73.0
X211.0Y-74.1
X211.0Y-75.25
X211.0Y-76.35
X211.7Y-93.3
X211.7Y-94.8
X211.7Y-96.3
X212.15Y-70.8
X212.15Y-71.9
X212.15Y-73.0
X212.15Y-74.1
X212.15Y-75.25
X212.15Y-76.35
X213.0Y-91.8
X213.05Y-90.3
X213.1Y-93.3
X213.1Y-94.8
X213.1Y-96.3
X213.3Y-70.8
X213.3Y-71.9
X213.3Y-73.0
X213.3Y-74.1
X213.3Y-75.25
X213.3Y-76.35
X213.85Y-88.9
X214.45Y-70.8
X214.45Y-71.9
X214.45Y-73.0
X214.45Y-74.1
X214.45Y-75.25
X214.45Y-76.35
X214.5Y-93.3
X214.5Y-94.8
X214.5Y-96.3
X214.55Y-90.3
X214.55Y-91.8
X215.6Y-70.8
X215.6Y-71.9
X215.6Y-73.0
X215.6Y-74.1
X215.6Y-75.25
X215.6Y-76.35
X215.9Y-93.3
X215.9Y-94.8
X215.9Y-96.3
X215.95Y-90.3
X215.95Y-91.8
X217.3Y-87.3
X217.3Y-88.8
X217.3Y-90.3
X217.3Y-91.8
X217.3Y-93.3
X217.3Y-94.8
X217.3Y-96.3
X220.0Y-113.3
X220.0Y-114.3
X220.0Y-115.3
X220.0Y-116.3
X220.0Y-117.3
X220.0Y-118.25
X220.0Y-119.3
X220.05Y-97.9
X220.05Y-98.75
X220.1Y-109.3
X220.7Y-108.75
X220.7Y-109.85
X220.9Y-97.9
X220.9Y-98.75
X221.25Y-109.3
X221.75Y-97.9
X221.75Y-98.75
X221.8Y-108.75
X221.8Y-109.85
X222.35Y-109.3
X222.6Y-97.9
X222.6Y-98.75
X222.9Y-108.75
X222.9Y-109.85
X223.45Y-97.9
X223.45Y-98.75
X226.25Y-86.45
X226.25Y-87.2
X226.25Y-87.95
X226.25Y-88.7
X226.45Y-121.9
X227.0Y-86.45
X227.0Y-87.2
X227.0Y-87.95
X227.0Y-88.7
X227.05Y-120.85
X227.05Y-121.5
X227.55Y-115.4
X227.7Y-114.65
X227.8Y-113.9
X227.9Y-113.15
X228.45Y-112.65
X228.8Y-93.3
X228.8Y-94.8
X228.8Y-96.3
X229.2Y-112.65
X229.5Y-70.8
X229.5Y-71.9
X229.5Y-73.0
X229.5Y-74.1
X229.5Y-75.25
X229.5Y-76.35
X230.2Y-93.3
X230.2Y-94.8
X230.2Y-96.3
X230.65Y-70.8
X230.65Y-71.9
X230.65Y-73.0
X230.65Y-74.1
X230.65Y-75.25
X230.65Y-76.35
X231.5Y-91.8
X231.55Y-90.3
X231.6Y-93.3
X231.6Y-94.8
X231.6Y-96.3
X231.8Y-70.8
X231.8Y-71.9
X231.8Y-73.0
X231.8Y-74.1
X231.8Y-75.25
X231.8Y-76.35
X232.35Y-88.9
X232.95Y-70.8
X232.95Y-71.9
X232.95Y-73.0
X232.95Y-74.1
X232.95Y-75.25
X232.95Y-76.35
X233.0Y-93.3
X233.0Y-94.8
X233.0Y-96.3
X233.05Y-90.3
X233.05Y-91.8
X234.1Y-70.8
X234.1Y-71.9
X234.1Y-73.0
X234.1Y-74.1
X234.1Y-75.25
X234.1Y-76.35
X234.4Y-93.3
X234.4Y-94.8
X234.4Y-96.3
X234.45Y-90.3
X234.45Y-91.8
X235.9Y-87.3
X235.9Y-88.8
X235.9Y-90.3
X235.9Y-91.8
X235.9Y-93.3
X235.9Y-94.8
X235.9Y-96.3
T2
X66.263Y-90.015
X66.263Y-92.555
X66.263Y-95.095
X66.86Y-124.1
X67.3Y-104.26
X67.3Y-106.8
X67.3Y-113.26
X67.3Y-115.8
X68.802Y-90.015
X68.802Y-92.555
X68.802Y-95.095
X69.4Y-124.1
X71.94Y-124.1
X74.48Y-124.1
X77.02Y-124.1
X79.56Y-124.1
X82.1Y-124.1
X84.55Y-116.55
X84.64Y-124.1
X87.09Y-116.55
X87.18Y-124.1
X89.05Y-95.76
X89.05Y-98.3
T3
X80.76Y-69.337
X80.76Y-78.037
X85.84Y-69.337
X85.84Y-78.037
M30
