%TF.GenerationSoftware,KiCad,Pcbnew,8.0.5*%
%TF.CreationDate,2024-10-04T12:38:31-05:00*%
%TF.ProjectId,bidirectional_load_switch,62696469-7265-4637-9469-6f6e616c5f6c,rev?*%
%TF.SameCoordinates,Original*%
%TF.FileFunction,Copper,L2,Bot*%
%TF.FilePolarity,Positive*%
%FSLAX46Y46*%
G04 Gerber Fmt 4.6, Leading zero omitted, Abs format (unit mm)*
G04 Created by KiCad (PCBNEW 8.0.5) date 2024-10-04 12:38:31*
%MOMM*%
%LPD*%
G01*
G04 APERTURE LIST*
%TA.AperFunction,ComponentPad*%
%ADD10C,1.727200*%
%TD*%
%TA.AperFunction,ComponentPad*%
%ADD11R,1.700000X1.700000*%
%TD*%
%TA.AperFunction,ComponentPad*%
%ADD12O,1.700000X1.700000*%
%TD*%
%TA.AperFunction,ViaPad*%
%ADD13C,0.600000*%
%TD*%
G04 APERTURE END LIST*
D10*
%TO.P,J101,1,1*%
%TO.N,/AC_in*%
X168550000Y-38150000D03*
%TO.P,J101,2,2*%
%TO.N,Earth*%
X158550000Y-38150000D03*
%TD*%
D11*
%TO.P,J102,1,Pin_1*%
%TO.N,15V_isolated*%
X148275000Y-41150000D03*
D12*
%TO.P,J102,2,Pin_2*%
%TO.N,GNDPWR*%
X150815000Y-41150000D03*
%TD*%
D11*
%TO.P,J104,1,Pin_1*%
%TO.N,5V*%
X133275000Y-41150000D03*
D12*
%TO.P,J104,2,Pin_2*%
%TO.N,GND*%
X135815000Y-41150000D03*
%TD*%
D11*
%TO.P,J103,1,Pin_1*%
%TO.N,/PWM1*%
X120300000Y-41150000D03*
D12*
%TO.P,J103,2,Pin_2*%
%TO.N,/PWM2*%
X120300000Y-43690000D03*
%TO.P,J103,3,Pin_3*%
%TO.N,/PWM3*%
X120300000Y-46230000D03*
%TO.P,J103,4,Pin_4*%
%TO.N,/PWM4*%
X120300000Y-48770000D03*
%TO.P,J103,5,Pin_5*%
%TO.N,/PWM5*%
X120300000Y-51310000D03*
%TO.P,J103,6,Pin_6*%
%TO.N,/PWM6*%
X120300000Y-53850000D03*
%TO.P,J103,7,Pin_7*%
%TO.N,/PWM7*%
X120300000Y-56390000D03*
%TO.P,J103,8,Pin_8*%
%TO.N,/PWM8*%
X120300000Y-58930000D03*
%TO.P,J103,9,Pin_9*%
%TO.N,GND*%
X120300000Y-61470000D03*
%TD*%
D13*
%TO.N,GND*%
X132200000Y-53400000D03*
X126350000Y-155000000D03*
X127300000Y-82500000D03*
X127300000Y-139850000D03*
X126350000Y-96350000D03*
X126350000Y-68000000D03*
X126350000Y-81850000D03*
X132900000Y-53400000D03*
X127300000Y-155000000D03*
X131500000Y-125900000D03*
X126350000Y-82500000D03*
X127300000Y-53500000D03*
X126350000Y-125350000D03*
X126350000Y-67350000D03*
X131500000Y-111400000D03*
X132900000Y-82400000D03*
X127300000Y-68000000D03*
X126350000Y-97000000D03*
X127300000Y-97000000D03*
X132900000Y-154900000D03*
X128200000Y-139850000D03*
X132200000Y-111400000D03*
X130000000Y-43100000D03*
X126350000Y-53500000D03*
X132900000Y-67900000D03*
X131500000Y-154900000D03*
X130000000Y-43750000D03*
X132900000Y-125900000D03*
X132900000Y-111400000D03*
X126350000Y-52850000D03*
X127300000Y-125350000D03*
X128200000Y-68000000D03*
X127300000Y-111500000D03*
X128600000Y-43750000D03*
X132200000Y-125900000D03*
X128200000Y-52850000D03*
X132200000Y-67900000D03*
X127300000Y-81850000D03*
X131500000Y-96900000D03*
X131500000Y-67900000D03*
X128200000Y-140500000D03*
X127300000Y-154350000D03*
X126350000Y-139850000D03*
X127300000Y-96350000D03*
X131500000Y-53400000D03*
X126350000Y-110850000D03*
X128200000Y-96350000D03*
X126350000Y-140500000D03*
X126350000Y-154350000D03*
X126350000Y-126000000D03*
X128600000Y-43100000D03*
X128200000Y-53500000D03*
X128200000Y-67350000D03*
X126350000Y-111500000D03*
X129300000Y-43750000D03*
X132200000Y-82400000D03*
X127300000Y-110850000D03*
X128200000Y-155000000D03*
X131500000Y-82400000D03*
X128200000Y-97000000D03*
X128200000Y-126000000D03*
X128200000Y-111500000D03*
X128200000Y-82500000D03*
X132200000Y-140400000D03*
X127300000Y-140500000D03*
X132200000Y-154900000D03*
X129300000Y-43100000D03*
X132900000Y-96900000D03*
X127300000Y-126000000D03*
X132900000Y-140400000D03*
X127300000Y-52850000D03*
X127300000Y-67350000D03*
X132200000Y-96900000D03*
X131500000Y-140400000D03*
X128200000Y-110850000D03*
X128200000Y-154350000D03*
X128200000Y-125350000D03*
X128200000Y-81850000D03*
%TO.N,GNDPWR*%
X148900000Y-139850000D03*
X154950000Y-109700000D03*
X156300000Y-66500000D03*
X148900000Y-127300000D03*
X151700000Y-62750000D03*
X152400000Y-91100000D03*
X152400000Y-77250000D03*
X153100000Y-89800000D03*
X154950000Y-123550000D03*
X151700000Y-106250000D03*
X153800000Y-47600000D03*
X155600000Y-110000000D03*
X153100000Y-75950000D03*
X149600000Y-127300000D03*
X153100000Y-149100000D03*
X153800000Y-120100000D03*
X153800000Y-77250000D03*
X151700000Y-91750000D03*
X156300000Y-109350000D03*
X157000000Y-80350000D03*
X148900000Y-54800000D03*
X154250000Y-152550000D03*
X157000000Y-109350000D03*
X153100000Y-77250000D03*
X154950000Y-94550000D03*
X156300000Y-52000000D03*
X150300000Y-141800000D03*
X154250000Y-123550000D03*
X150300000Y-156300000D03*
X152400000Y-149100000D03*
X153100000Y-62100000D03*
X154250000Y-138050000D03*
X148900000Y-83150000D03*
X148900000Y-110850000D03*
X153800000Y-61450000D03*
X155600000Y-81000000D03*
X154250000Y-94550000D03*
X154950000Y-124200000D03*
X148900000Y-140500000D03*
X153800000Y-105600000D03*
X153100000Y-135250000D03*
X152400000Y-62100000D03*
X153100000Y-120100000D03*
X155600000Y-52000000D03*
X148900000Y-97650000D03*
X153800000Y-148450000D03*
X148900000Y-126000000D03*
X153800000Y-62100000D03*
X153100000Y-76600000D03*
X156300000Y-123850000D03*
X150300000Y-68650000D03*
X156300000Y-152850000D03*
X153100000Y-47600000D03*
X156300000Y-65850000D03*
X153100000Y-119450000D03*
X148900000Y-81850000D03*
X149600000Y-68650000D03*
X152400000Y-134600000D03*
X153100000Y-148450000D03*
X149600000Y-68000000D03*
X157000000Y-51350000D03*
X148900000Y-53500000D03*
X148900000Y-96350000D03*
X153800000Y-75950000D03*
X152400000Y-135250000D03*
X154950000Y-153200000D03*
X155600000Y-124500000D03*
X152400000Y-106250000D03*
X151700000Y-48250000D03*
X154950000Y-65550000D03*
X157000000Y-123850000D03*
X151700000Y-62100000D03*
X150300000Y-69300000D03*
X153100000Y-106250000D03*
X154250000Y-109050000D03*
X153100000Y-133300000D03*
X150300000Y-98300000D03*
X154950000Y-66200000D03*
X156300000Y-110000000D03*
X149600000Y-69300000D03*
X148900000Y-54150000D03*
X151700000Y-77250000D03*
X152400000Y-120750000D03*
X149600000Y-54800000D03*
X153800000Y-48250000D03*
X149600000Y-126000000D03*
X156300000Y-51350000D03*
X155600000Y-153500000D03*
X151700000Y-120750000D03*
X157000000Y-152850000D03*
X155600000Y-51350000D03*
X153800000Y-104950000D03*
X155600000Y-139000000D03*
X148900000Y-155000000D03*
X155600000Y-95500000D03*
X156300000Y-94850000D03*
X149600000Y-156300000D03*
X152400000Y-48250000D03*
X155600000Y-152850000D03*
X153100000Y-118800000D03*
X149600000Y-141150000D03*
X148900000Y-67350000D03*
X154250000Y-80050000D03*
X152400000Y-120100000D03*
X148900000Y-141800000D03*
X149600000Y-140500000D03*
X148900000Y-154350000D03*
X151700000Y-149750000D03*
X149600000Y-53500000D03*
X153100000Y-90450000D03*
X153100000Y-91750000D03*
X153100000Y-62750000D03*
X155600000Y-138350000D03*
X153800000Y-149100000D03*
X156300000Y-153500000D03*
X153100000Y-61450000D03*
X153100000Y-46950000D03*
X148900000Y-112800000D03*
X152400000Y-105600000D03*
X155600000Y-109350000D03*
X157000000Y-138350000D03*
X154250000Y-65550000D03*
X156300000Y-80350000D03*
X153800000Y-91750000D03*
X150300000Y-54800000D03*
X154950000Y-152550000D03*
X153100000Y-104300000D03*
X154950000Y-95200000D03*
X153100000Y-48250000D03*
X153100000Y-60800000D03*
X153100000Y-105600000D03*
X150300000Y-155650000D03*
X148900000Y-111500000D03*
X150300000Y-127300000D03*
X154950000Y-51700000D03*
X148900000Y-156300000D03*
X157000000Y-94850000D03*
X156300000Y-138350000D03*
X153100000Y-120750000D03*
X156300000Y-81000000D03*
X152400000Y-91750000D03*
X149600000Y-112150000D03*
X155600000Y-123850000D03*
X148900000Y-97000000D03*
X156300000Y-124500000D03*
X151700000Y-134600000D03*
X154250000Y-51050000D03*
X154950000Y-80050000D03*
X149600000Y-126650000D03*
X153800000Y-46950000D03*
X150300000Y-54150000D03*
X151700000Y-105600000D03*
X148900000Y-141150000D03*
X149600000Y-98300000D03*
X155600000Y-66500000D03*
X151700000Y-120100000D03*
X148900000Y-126650000D03*
X149600000Y-97650000D03*
X148900000Y-112150000D03*
X149600000Y-155650000D03*
X149600000Y-54150000D03*
X148900000Y-68000000D03*
X150300000Y-126650000D03*
X151700000Y-149100000D03*
X153100000Y-147800000D03*
X157000000Y-65850000D03*
X157000000Y-110000000D03*
X156300000Y-95500000D03*
X153800000Y-119450000D03*
X150300000Y-112800000D03*
X153800000Y-149750000D03*
X153800000Y-120750000D03*
X153800000Y-90450000D03*
X151700000Y-47600000D03*
X157000000Y-139000000D03*
X157000000Y-95500000D03*
X154950000Y-138700000D03*
X157000000Y-52000000D03*
X153800000Y-62750000D03*
X152400000Y-76600000D03*
X153100000Y-149750000D03*
X155600000Y-80350000D03*
X148900000Y-155650000D03*
X150300000Y-83800000D03*
X153800000Y-106250000D03*
X149600000Y-112800000D03*
X153100000Y-134600000D03*
X148900000Y-69300000D03*
X149600000Y-155000000D03*
X153100000Y-75300000D03*
X153100000Y-91100000D03*
X151700000Y-135250000D03*
X153800000Y-135250000D03*
X153800000Y-133950000D03*
X150300000Y-97650000D03*
X157000000Y-66500000D03*
X151700000Y-91100000D03*
X153100000Y-46300000D03*
X157000000Y-153500000D03*
X149600000Y-83150000D03*
X155600000Y-65850000D03*
X150300000Y-141150000D03*
X148900000Y-68650000D03*
X155600000Y-94850000D03*
X150300000Y-112150000D03*
X149600000Y-97000000D03*
X148900000Y-82500000D03*
X154950000Y-109050000D03*
X148900000Y-52850000D03*
X149600000Y-82500000D03*
X152400000Y-62750000D03*
X149600000Y-111500000D03*
X157000000Y-81000000D03*
X153100000Y-104950000D03*
X148900000Y-98300000D03*
X152400000Y-47600000D03*
X153800000Y-134600000D03*
X157000000Y-124500000D03*
X153800000Y-76600000D03*
X154950000Y-80700000D03*
X148900000Y-83800000D03*
X153800000Y-91100000D03*
X148900000Y-125350000D03*
X151700000Y-76600000D03*
X149600000Y-141800000D03*
X149600000Y-83800000D03*
X150300000Y-83150000D03*
X156300000Y-139000000D03*
X153100000Y-133950000D03*
X154950000Y-138050000D03*
X154950000Y-51050000D03*
X152400000Y-149750000D03*
%TO.N,15V_isolated*%
X147100000Y-121200000D03*
X147800000Y-92200000D03*
X147100000Y-133100000D03*
X147100000Y-132450000D03*
X147100000Y-47400000D03*
X147100000Y-90900000D03*
X147800000Y-135700000D03*
X147100000Y-76400000D03*
X147100000Y-60600000D03*
X147100000Y-74450000D03*
X147100000Y-77700000D03*
X147100000Y-91550000D03*
X147100000Y-106050000D03*
X147100000Y-119250000D03*
X147100000Y-61250000D03*
X147100000Y-120550000D03*
X147800000Y-149550000D03*
X147100000Y-48700000D03*
X147100000Y-135050000D03*
X147800000Y-77050000D03*
X147100000Y-146950000D03*
X147100000Y-48050000D03*
X147800000Y-106050000D03*
X147800000Y-120550000D03*
X147100000Y-45450000D03*
X147100000Y-118600000D03*
X147800000Y-48050000D03*
X147100000Y-75100000D03*
X147800000Y-91550000D03*
X147100000Y-104100000D03*
X147100000Y-62550000D03*
X147100000Y-104750000D03*
X147800000Y-121200000D03*
X147100000Y-119900000D03*
X147100000Y-150200000D03*
X147100000Y-149550000D03*
X147800000Y-63200000D03*
X147100000Y-88950000D03*
X147100000Y-63200000D03*
X147100000Y-75750000D03*
X147800000Y-150200000D03*
X147100000Y-133750000D03*
X147100000Y-92200000D03*
X147100000Y-117950000D03*
X147100000Y-46750000D03*
X147100000Y-103450000D03*
X147100000Y-46100000D03*
X147800000Y-62550000D03*
X147100000Y-59950000D03*
X147100000Y-61900000D03*
X147800000Y-77700000D03*
X147100000Y-135700000D03*
X147100000Y-90250000D03*
X147800000Y-106700000D03*
X147100000Y-105400000D03*
X147100000Y-134400000D03*
X147100000Y-89600000D03*
X147100000Y-147600000D03*
X147800000Y-135050000D03*
X147100000Y-148250000D03*
X147100000Y-77050000D03*
X147800000Y-48700000D03*
X147100000Y-148900000D03*
X147100000Y-106700000D03*
%TO.N,Earth*%
X159350000Y-98950000D03*
X158650000Y-83100000D03*
X158650000Y-53450000D03*
X159350000Y-70550000D03*
X159350000Y-155000000D03*
X159350000Y-69250000D03*
X160050000Y-81800000D03*
X159350000Y-69900000D03*
X160050000Y-69900000D03*
X158650000Y-126000000D03*
X160050000Y-113450000D03*
X160050000Y-54100000D03*
X159350000Y-141800000D03*
X158650000Y-156300000D03*
X158650000Y-110850000D03*
X158650000Y-141150000D03*
X158650000Y-69900000D03*
X158650000Y-98950000D03*
X160050000Y-139850000D03*
X158650000Y-155000000D03*
X159350000Y-139850000D03*
X158650000Y-114100000D03*
X160050000Y-68600000D03*
X159350000Y-52800000D03*
X160050000Y-154350000D03*
X160050000Y-127300000D03*
X158650000Y-154350000D03*
X158650000Y-99600000D03*
X158650000Y-156950000D03*
X160050000Y-112800000D03*
X158650000Y-112150000D03*
X158650000Y-56050000D03*
X160050000Y-67300000D03*
X159350000Y-56050000D03*
X160050000Y-111500000D03*
X159350000Y-81800000D03*
X158650000Y-67950000D03*
X158650000Y-111500000D03*
X160050000Y-55400000D03*
X159350000Y-55400000D03*
X160050000Y-125350000D03*
X160050000Y-83100000D03*
X160050000Y-54750000D03*
X159350000Y-84400000D03*
X158650000Y-67300000D03*
X159350000Y-127950000D03*
X160050000Y-156300000D03*
X159350000Y-53450000D03*
X159350000Y-127300000D03*
X160050000Y-98950000D03*
X159350000Y-140500000D03*
X160050000Y-82450000D03*
X159350000Y-111500000D03*
X159350000Y-85050000D03*
X158650000Y-97650000D03*
X160050000Y-85050000D03*
X160050000Y-56050000D03*
X160050000Y-97650000D03*
X158650000Y-81800000D03*
X159350000Y-125350000D03*
X160050000Y-140500000D03*
X159350000Y-99600000D03*
X158650000Y-54750000D03*
X159350000Y-154350000D03*
X158650000Y-68600000D03*
X158650000Y-126650000D03*
X159350000Y-83100000D03*
X160050000Y-96350000D03*
X158650000Y-84400000D03*
X158650000Y-113450000D03*
X158650000Y-55400000D03*
X158650000Y-157600000D03*
X159350000Y-156300000D03*
X158650000Y-85050000D03*
X160050000Y-114100000D03*
X158650000Y-97000000D03*
X158650000Y-82450000D03*
X160050000Y-83750000D03*
X160050000Y-110850000D03*
X160050000Y-112150000D03*
X159350000Y-113450000D03*
X160050000Y-52800000D03*
X158650000Y-125350000D03*
X160050000Y-127950000D03*
X158650000Y-83750000D03*
X159350000Y-97000000D03*
X160050000Y-53450000D03*
X158650000Y-98300000D03*
X158650000Y-69250000D03*
X158650000Y-155650000D03*
X160050000Y-143100000D03*
X160050000Y-156950000D03*
X159350000Y-126650000D03*
X159350000Y-126000000D03*
X160050000Y-67950000D03*
X158650000Y-139850000D03*
X159350000Y-110850000D03*
X159350000Y-67300000D03*
X159350000Y-156950000D03*
X160050000Y-155650000D03*
X160050000Y-99600000D03*
X159350000Y-155650000D03*
X159350000Y-142450000D03*
X159350000Y-128600000D03*
X158650000Y-96350000D03*
X160050000Y-155000000D03*
X159350000Y-98300000D03*
X160050000Y-126650000D03*
X158650000Y-52800000D03*
X159350000Y-54100000D03*
X160050000Y-128600000D03*
X158650000Y-70550000D03*
X159350000Y-112150000D03*
X159350000Y-68600000D03*
X159350000Y-97650000D03*
X158650000Y-140500000D03*
X159350000Y-114100000D03*
X158650000Y-112800000D03*
X159350000Y-54750000D03*
X160050000Y-97000000D03*
X158650000Y-143100000D03*
X158650000Y-127300000D03*
X158650000Y-141800000D03*
X160050000Y-141150000D03*
X160050000Y-69250000D03*
X160050000Y-157600000D03*
X160050000Y-70550000D03*
X159350000Y-157600000D03*
X160050000Y-98300000D03*
X160050000Y-142450000D03*
X158650000Y-128600000D03*
X159350000Y-67950000D03*
X158650000Y-127950000D03*
X160050000Y-141800000D03*
X160050000Y-84400000D03*
X159350000Y-96350000D03*
X158650000Y-54100000D03*
X159350000Y-143100000D03*
X159350000Y-83750000D03*
X160050000Y-126000000D03*
X159350000Y-82450000D03*
X158650000Y-142450000D03*
X159350000Y-112800000D03*
X159350000Y-141150000D03*
%TD*%
%TA.AperFunction,Conductor*%
%TO.N,GNDPWR*%
G36*
X155050000Y-137650000D02*
G01*
X157276000Y-137650000D01*
X157343039Y-137669685D01*
X157388794Y-137722489D01*
X157400000Y-137774000D01*
X157400000Y-140126000D01*
X157380315Y-140193039D01*
X157327511Y-140238794D01*
X157276000Y-140250000D01*
X153550000Y-140250000D01*
X153550000Y-143650000D01*
X148450000Y-143650000D01*
X148450000Y-136750000D01*
X148450000Y-136300000D01*
X148450000Y-132050000D01*
X155050000Y-132050000D01*
X155050000Y-137650000D01*
G37*
%TD.AperFunction*%
%TD*%
%TA.AperFunction,Conductor*%
%TO.N,Earth*%
G36*
X161493039Y-33670185D02*
G01*
X161538794Y-33722989D01*
X161550000Y-33774500D01*
X161550000Y-42550000D01*
X155600000Y-42550000D01*
X155600000Y-33774500D01*
X155619685Y-33707461D01*
X155672489Y-33661706D01*
X155724000Y-33650500D01*
X161426000Y-33650500D01*
X161493039Y-33670185D01*
G37*
%TD.AperFunction*%
%TD*%
%TA.AperFunction,Conductor*%
%TO.N,GND*%
G36*
X138693039Y-33919685D02*
G01*
X138738794Y-33972489D01*
X138750000Y-34024000D01*
X138750000Y-158025500D01*
X138730315Y-158092539D01*
X138677511Y-158138294D01*
X138626000Y-158149500D01*
X118524500Y-158149500D01*
X118457461Y-158129815D01*
X118411706Y-158077011D01*
X118400500Y-158025500D01*
X118400500Y-58930000D01*
X119244417Y-58930000D01*
X119264699Y-59135932D01*
X119264700Y-59135934D01*
X119324768Y-59333954D01*
X119422315Y-59516450D01*
X119422317Y-59516452D01*
X119553589Y-59676410D01*
X119650209Y-59755702D01*
X119713550Y-59807685D01*
X119896046Y-59905232D01*
X120094066Y-59965300D01*
X120094065Y-59965300D01*
X120112529Y-59967118D01*
X120300000Y-59985583D01*
X120505934Y-59965300D01*
X120703954Y-59905232D01*
X120886450Y-59807685D01*
X121046410Y-59676410D01*
X121177685Y-59516450D01*
X121275232Y-59333954D01*
X121335300Y-59135934D01*
X121355583Y-58930000D01*
X121335300Y-58724066D01*
X121275232Y-58526046D01*
X121177685Y-58343550D01*
X121125702Y-58280209D01*
X121046410Y-58183589D01*
X120886452Y-58052317D01*
X120886453Y-58052317D01*
X120886450Y-58052315D01*
X120703954Y-57954768D01*
X120505934Y-57894700D01*
X120505932Y-57894699D01*
X120505934Y-57894699D01*
X120300000Y-57874417D01*
X120094067Y-57894699D01*
X119896043Y-57954769D01*
X119785898Y-58013643D01*
X119713550Y-58052315D01*
X119713548Y-58052316D01*
X119713547Y-58052317D01*
X119553589Y-58183589D01*
X119422317Y-58343547D01*
X119324769Y-58526043D01*
X119264699Y-58724067D01*
X119244417Y-58930000D01*
X118400500Y-58930000D01*
X118400500Y-56390000D01*
X119244417Y-56390000D01*
X119264699Y-56595932D01*
X119264700Y-56595934D01*
X119324768Y-56793954D01*
X119422315Y-56976450D01*
X119422317Y-56976452D01*
X119553589Y-57136410D01*
X119650209Y-57215702D01*
X119713550Y-57267685D01*
X119896046Y-57365232D01*
X120094066Y-57425300D01*
X120094065Y-57425300D01*
X120112529Y-57427118D01*
X120300000Y-57445583D01*
X120505934Y-57425300D01*
X120703954Y-57365232D01*
X120886450Y-57267685D01*
X121046410Y-57136410D01*
X121177685Y-56976450D01*
X121275232Y-56793954D01*
X121335300Y-56595934D01*
X121355583Y-56390000D01*
X121335300Y-56184066D01*
X121275232Y-55986046D01*
X121177685Y-55803550D01*
X121125702Y-55740209D01*
X121046410Y-55643589D01*
X120886452Y-55512317D01*
X120886453Y-55512317D01*
X120886450Y-55512315D01*
X120703954Y-55414768D01*
X120505934Y-55354700D01*
X120505932Y-55354699D01*
X120505934Y-55354699D01*
X120300000Y-55334417D01*
X120094067Y-55354699D01*
X119896043Y-55414769D01*
X119785898Y-55473643D01*
X119713550Y-55512315D01*
X119713548Y-55512316D01*
X119713547Y-55512317D01*
X119553589Y-55643589D01*
X119422317Y-55803547D01*
X119324769Y-55986043D01*
X119264699Y-56184067D01*
X119244417Y-56390000D01*
X118400500Y-56390000D01*
X118400500Y-53850000D01*
X119244417Y-53850000D01*
X119264699Y-54055932D01*
X119264700Y-54055934D01*
X119324768Y-54253954D01*
X119422315Y-54436450D01*
X119422317Y-54436452D01*
X119553589Y-54596410D01*
X119650209Y-54675702D01*
X119713550Y-54727685D01*
X119896046Y-54825232D01*
X120094066Y-54885300D01*
X120094065Y-54885300D01*
X120112529Y-54887118D01*
X120300000Y-54905583D01*
X120505934Y-54885300D01*
X120703954Y-54825232D01*
X120886450Y-54727685D01*
X121046410Y-54596410D01*
X121177685Y-54436450D01*
X121275232Y-54253954D01*
X121335300Y-54055934D01*
X121355583Y-53850000D01*
X121335300Y-53644066D01*
X121275232Y-53446046D01*
X121177685Y-53263550D01*
X121125702Y-53200209D01*
X121046410Y-53103589D01*
X120886452Y-52972317D01*
X120886453Y-52972317D01*
X120886450Y-52972315D01*
X120703954Y-52874768D01*
X120505934Y-52814700D01*
X120505932Y-52814699D01*
X120505934Y-52814699D01*
X120300000Y-52794417D01*
X120094067Y-52814699D01*
X119896043Y-52874769D01*
X119785898Y-52933643D01*
X119713550Y-52972315D01*
X119713548Y-52972316D01*
X119713547Y-52972317D01*
X119553589Y-53103589D01*
X119422317Y-53263547D01*
X119324769Y-53446043D01*
X119264699Y-53644067D01*
X119244417Y-53850000D01*
X118400500Y-53850000D01*
X118400500Y-51310000D01*
X119244417Y-51310000D01*
X119264699Y-51515932D01*
X119264700Y-51515934D01*
X119324768Y-51713954D01*
X119422315Y-51896450D01*
X119422317Y-51896452D01*
X119553589Y-52056410D01*
X119650209Y-52135702D01*
X119713550Y-52187685D01*
X119896046Y-52285232D01*
X120094066Y-52345300D01*
X120094065Y-52345300D01*
X120112529Y-52347118D01*
X120300000Y-52365583D01*
X120505934Y-52345300D01*
X120703954Y-52285232D01*
X120886450Y-52187685D01*
X121046410Y-52056410D01*
X121177685Y-51896450D01*
X121275232Y-51713954D01*
X121335300Y-51515934D01*
X121355583Y-51310000D01*
X121335300Y-51104066D01*
X121275232Y-50906046D01*
X121177685Y-50723550D01*
X121125702Y-50660209D01*
X121046410Y-50563589D01*
X120886452Y-50432317D01*
X120886453Y-50432317D01*
X120886450Y-50432315D01*
X120703954Y-50334768D01*
X120505934Y-50274700D01*
X120505932Y-50274699D01*
X120505934Y-50274699D01*
X120300000Y-50254417D01*
X120094067Y-50274699D01*
X119896043Y-50334769D01*
X119785898Y-50393643D01*
X119713550Y-50432315D01*
X119713548Y-50432316D01*
X119713547Y-50432317D01*
X119553589Y-50563589D01*
X119422317Y-50723547D01*
X119324769Y-50906043D01*
X119264699Y-51104067D01*
X119244417Y-51310000D01*
X118400500Y-51310000D01*
X118400500Y-48770000D01*
X119244417Y-48770000D01*
X119264699Y-48975932D01*
X119264700Y-48975934D01*
X119324768Y-49173954D01*
X119422315Y-49356450D01*
X119422317Y-49356452D01*
X119553589Y-49516410D01*
X119650209Y-49595702D01*
X119713550Y-49647685D01*
X119896046Y-49745232D01*
X120094066Y-49805300D01*
X120094065Y-49805300D01*
X120112529Y-49807118D01*
X120300000Y-49825583D01*
X120505934Y-49805300D01*
X120703954Y-49745232D01*
X120886450Y-49647685D01*
X121046410Y-49516410D01*
X121177685Y-49356450D01*
X121275232Y-49173954D01*
X121335300Y-48975934D01*
X121355583Y-48770000D01*
X121335300Y-48564066D01*
X121275232Y-48366046D01*
X121177685Y-48183550D01*
X121125702Y-48120209D01*
X121046410Y-48023589D01*
X120886452Y-47892317D01*
X120886453Y-47892317D01*
X120886450Y-47892315D01*
X120703954Y-47794768D01*
X120505934Y-47734700D01*
X120505932Y-47734699D01*
X120505934Y-47734699D01*
X120300000Y-47714417D01*
X120094067Y-47734699D01*
X119896043Y-47794769D01*
X119785898Y-47853643D01*
X119713550Y-47892315D01*
X119713548Y-47892316D01*
X119713547Y-47892317D01*
X119553589Y-48023589D01*
X119422317Y-48183547D01*
X119324769Y-48366043D01*
X119264699Y-48564067D01*
X119244417Y-48770000D01*
X118400500Y-48770000D01*
X118400500Y-46230000D01*
X119244417Y-46230000D01*
X119264699Y-46435932D01*
X119264700Y-46435934D01*
X119324768Y-46633954D01*
X119422315Y-46816450D01*
X119422317Y-46816452D01*
X119553589Y-46976410D01*
X119650209Y-47055702D01*
X119713550Y-47107685D01*
X119896046Y-47205232D01*
X120094066Y-47265300D01*
X120094065Y-47265300D01*
X120112529Y-47267118D01*
X120300000Y-47285583D01*
X120505934Y-47265300D01*
X120703954Y-47205232D01*
X120886450Y-47107685D01*
X121046410Y-46976410D01*
X121177685Y-46816450D01*
X121275232Y-46633954D01*
X121335300Y-46435934D01*
X121355583Y-46230000D01*
X121335300Y-46024066D01*
X121275232Y-45826046D01*
X121177685Y-45643550D01*
X121125702Y-45580209D01*
X121046410Y-45483589D01*
X120886452Y-45352317D01*
X120886453Y-45352317D01*
X120886450Y-45352315D01*
X120703954Y-45254768D01*
X120505934Y-45194700D01*
X120505932Y-45194699D01*
X120505934Y-45194699D01*
X120300000Y-45174417D01*
X120094067Y-45194699D01*
X119896043Y-45254769D01*
X119785898Y-45313643D01*
X119713550Y-45352315D01*
X119713548Y-45352316D01*
X119713547Y-45352317D01*
X119553589Y-45483589D01*
X119422317Y-45643547D01*
X119324769Y-45826043D01*
X119264699Y-46024067D01*
X119244417Y-46230000D01*
X118400500Y-46230000D01*
X118400500Y-43690000D01*
X119244417Y-43690000D01*
X119264699Y-43895932D01*
X119264700Y-43895934D01*
X119324768Y-44093954D01*
X119422315Y-44276450D01*
X119422317Y-44276452D01*
X119553589Y-44436410D01*
X119650209Y-44515702D01*
X119713550Y-44567685D01*
X119896046Y-44665232D01*
X120094066Y-44725300D01*
X120094065Y-44725300D01*
X120112529Y-44727118D01*
X120300000Y-44745583D01*
X120505934Y-44725300D01*
X120703954Y-44665232D01*
X120886450Y-44567685D01*
X121046410Y-44436410D01*
X121177685Y-44276450D01*
X121275232Y-44093954D01*
X121335300Y-43895934D01*
X121355583Y-43690000D01*
X121335300Y-43484066D01*
X121275232Y-43286046D01*
X121177685Y-43103550D01*
X121125702Y-43040209D01*
X121046410Y-42943589D01*
X120886452Y-42812317D01*
X120886453Y-42812317D01*
X120886450Y-42812315D01*
X120703954Y-42714768D01*
X120505934Y-42654700D01*
X120505932Y-42654699D01*
X120505934Y-42654699D01*
X120300000Y-42634417D01*
X120094067Y-42654699D01*
X119896043Y-42714769D01*
X119785898Y-42773643D01*
X119713550Y-42812315D01*
X119713548Y-42812316D01*
X119713547Y-42812317D01*
X119553589Y-42943589D01*
X119422317Y-43103547D01*
X119324769Y-43286043D01*
X119264699Y-43484067D01*
X119244417Y-43690000D01*
X118400500Y-43690000D01*
X118400500Y-40280247D01*
X119249500Y-40280247D01*
X119249500Y-42019752D01*
X119261131Y-42078229D01*
X119261132Y-42078230D01*
X119305447Y-42144552D01*
X119371769Y-42188867D01*
X119371770Y-42188868D01*
X119430247Y-42200499D01*
X119430250Y-42200500D01*
X119430252Y-42200500D01*
X121169750Y-42200500D01*
X121169751Y-42200499D01*
X121184568Y-42197552D01*
X121228229Y-42188868D01*
X121228229Y-42188867D01*
X121228231Y-42188867D01*
X121294552Y-42144552D01*
X121338867Y-42078231D01*
X121338867Y-42078229D01*
X121338868Y-42078229D01*
X121350499Y-42019752D01*
X121350500Y-42019750D01*
X121350500Y-40280249D01*
X121350499Y-40280247D01*
X132224500Y-40280247D01*
X132224500Y-42019752D01*
X132236131Y-42078229D01*
X132236132Y-42078230D01*
X132280447Y-42144552D01*
X132346769Y-42188867D01*
X132346770Y-42188868D01*
X132405247Y-42200499D01*
X132405250Y-42200500D01*
X132405252Y-42200500D01*
X134144750Y-42200500D01*
X134144751Y-42200499D01*
X134159568Y-42197552D01*
X134203229Y-42188868D01*
X134203229Y-42188867D01*
X134203231Y-42188867D01*
X134269552Y-42144552D01*
X134313867Y-42078231D01*
X134313867Y-42078229D01*
X134313868Y-42078229D01*
X134325499Y-42019752D01*
X134325500Y-42019750D01*
X134325500Y-40280249D01*
X134325499Y-40280247D01*
X134313868Y-40221770D01*
X134313867Y-40221769D01*
X134269552Y-40155447D01*
X134203230Y-40111132D01*
X134203229Y-40111131D01*
X134144752Y-40099500D01*
X134144748Y-40099500D01*
X132405252Y-40099500D01*
X132405247Y-40099500D01*
X132346770Y-40111131D01*
X132346769Y-40111132D01*
X132280447Y-40155447D01*
X132236132Y-40221769D01*
X132236131Y-40221770D01*
X132224500Y-40280247D01*
X121350499Y-40280247D01*
X121338868Y-40221770D01*
X121338867Y-40221769D01*
X121294552Y-40155447D01*
X121228230Y-40111132D01*
X121228229Y-40111131D01*
X121169752Y-40099500D01*
X121169748Y-40099500D01*
X119430252Y-40099500D01*
X119430247Y-40099500D01*
X119371770Y-40111131D01*
X119371769Y-40111132D01*
X119305447Y-40155447D01*
X119261132Y-40221769D01*
X119261131Y-40221770D01*
X119249500Y-40280247D01*
X118400500Y-40280247D01*
X118400500Y-34024000D01*
X118420185Y-33956961D01*
X118472989Y-33911206D01*
X118524500Y-33900000D01*
X138626000Y-33900000D01*
X138693039Y-33919685D01*
G37*
%TD.AperFunction*%
%TD*%
%TA.AperFunction,Conductor*%
%TO.N,GNDPWR*%
G36*
X153550000Y-115250000D02*
G01*
X154926000Y-115250000D01*
X154993039Y-115269685D01*
X155038794Y-115322489D01*
X155050000Y-115374000D01*
X155050000Y-117550000D01*
X148450000Y-117550000D01*
X148450000Y-114650000D01*
X153550000Y-114650000D01*
X153550000Y-115250000D01*
G37*
%TD.AperFunction*%
%TD*%
%TA.AperFunction,Conductor*%
%TO.N,GNDPWR*%
G36*
X153550000Y-144250000D02*
G01*
X154926000Y-144250000D01*
X154993039Y-144269685D01*
X155038794Y-144322489D01*
X155050000Y-144374000D01*
X155050000Y-146550000D01*
X148450000Y-146550000D01*
X148450000Y-143650000D01*
X153550000Y-143650000D01*
X153550000Y-144250000D01*
G37*
%TD.AperFunction*%
%TD*%
%TA.AperFunction,Conductor*%
%TO.N,Earth*%
G36*
X172049500Y-158025500D02*
G01*
X172029815Y-158092539D01*
X171977011Y-158138294D01*
X171925500Y-158149500D01*
X154274000Y-158149500D01*
X154206961Y-158129815D01*
X154161206Y-158077011D01*
X154150000Y-158025500D01*
X154150000Y-155474000D01*
X154169685Y-155406961D01*
X154222489Y-155361206D01*
X154274000Y-155350000D01*
X157950000Y-155350000D01*
X157950000Y-151600000D01*
X155724000Y-151600000D01*
X155656961Y-151580315D01*
X155611206Y-151527511D01*
X155600000Y-151476000D01*
X155600000Y-143650000D01*
X155600000Y-143550000D01*
X172049500Y-143550000D01*
X172049500Y-158025500D01*
G37*
%TD.AperFunction*%
%TD*%
%TA.AperFunction,Conductor*%
%TO.N,GNDPWR*%
G36*
X155050000Y-79650000D02*
G01*
X157276000Y-79650000D01*
X157343039Y-79669685D01*
X157388794Y-79722489D01*
X157400000Y-79774000D01*
X157400000Y-82126000D01*
X157380315Y-82193039D01*
X157327511Y-82238794D01*
X157276000Y-82250000D01*
X153550000Y-82250000D01*
X153550000Y-85650000D01*
X148450000Y-85650000D01*
X148450000Y-78750000D01*
X148450000Y-78300000D01*
X148450000Y-74050000D01*
X155050000Y-74050000D01*
X155050000Y-79650000D01*
G37*
%TD.AperFunction*%
%TD*%
%TA.AperFunction,Conductor*%
%TO.N,15V_isolated*%
G36*
X148050000Y-63550000D02*
G01*
X148050000Y-64050000D01*
X148050000Y-74150000D01*
X146550000Y-74150000D01*
X146550000Y-59550000D01*
X148050000Y-59550000D01*
X148050000Y-63550000D01*
G37*
%TD.AperFunction*%
%TD*%
%TA.AperFunction,Conductor*%
%TO.N,GNDPWR*%
G36*
X155050000Y-152150000D02*
G01*
X157276000Y-152150000D01*
X157343039Y-152169685D01*
X157388794Y-152222489D01*
X157400000Y-152274000D01*
X157400000Y-154626000D01*
X157380315Y-154693039D01*
X157327511Y-154738794D01*
X157276000Y-154750000D01*
X153550000Y-154750000D01*
X153550000Y-158025500D01*
X153530315Y-158092539D01*
X153477511Y-158138294D01*
X153426000Y-158149500D01*
X148574000Y-158149500D01*
X148506961Y-158129815D01*
X148461206Y-158077011D01*
X148450000Y-158025500D01*
X148450000Y-146550000D01*
X155050000Y-146550000D01*
X155050000Y-152150000D01*
G37*
%TD.AperFunction*%
%TD*%
%TA.AperFunction,Conductor*%
%TO.N,Earth*%
G36*
X172049500Y-71150000D02*
G01*
X154274000Y-71150000D01*
X154206961Y-71130315D01*
X154161206Y-71077511D01*
X154150000Y-71026000D01*
X154150000Y-68474000D01*
X154169685Y-68406961D01*
X154222489Y-68361206D01*
X154274000Y-68350000D01*
X157950000Y-68350000D01*
X157950000Y-64600000D01*
X155724000Y-64600000D01*
X155656961Y-64580315D01*
X155611206Y-64527511D01*
X155600000Y-64476000D01*
X155600000Y-56650000D01*
X155600000Y-56550000D01*
X172049500Y-56550000D01*
X172049500Y-71150000D01*
G37*
%TD.AperFunction*%
%TD*%
%TA.AperFunction,Conductor*%
%TO.N,15V_isolated*%
G36*
X148050000Y-136050000D02*
G01*
X148050000Y-136550000D01*
X148050000Y-146650000D01*
X146550000Y-146650000D01*
X146550000Y-132050000D01*
X148050000Y-132050000D01*
X148050000Y-136050000D01*
G37*
%TD.AperFunction*%
%TD*%
%TA.AperFunction,Conductor*%
%TO.N,GNDPWR*%
G36*
X155050000Y-94150000D02*
G01*
X157276000Y-94150000D01*
X157343039Y-94169685D01*
X157388794Y-94222489D01*
X157400000Y-94274000D01*
X157400000Y-96626000D01*
X157380315Y-96693039D01*
X157327511Y-96738794D01*
X157276000Y-96750000D01*
X153550000Y-96750000D01*
X153550000Y-100150000D01*
X148450000Y-100150000D01*
X148450000Y-93250000D01*
X148450000Y-92800000D01*
X148450000Y-88550000D01*
X155050000Y-88550000D01*
X155050000Y-94150000D01*
G37*
%TD.AperFunction*%
%TD*%
%TA.AperFunction,Conductor*%
%TO.N,15V_isolated*%
G36*
X149193039Y-40169685D02*
G01*
X149238794Y-40222489D01*
X149250000Y-40274000D01*
X149250000Y-42125357D01*
X149240578Y-42172769D01*
X148050000Y-45050000D01*
X146552007Y-45050000D01*
X146553950Y-45034726D01*
X147300000Y-42150000D01*
X147300000Y-40274000D01*
X147319685Y-40206961D01*
X147372489Y-40161206D01*
X147424000Y-40150000D01*
X149126000Y-40150000D01*
X149193039Y-40169685D01*
G37*
%TD.AperFunction*%
%TD*%
%TA.AperFunction,Conductor*%
%TO.N,GNDPWR*%
G36*
X155050000Y-108650000D02*
G01*
X157276000Y-108650000D01*
X157343039Y-108669685D01*
X157388794Y-108722489D01*
X157400000Y-108774000D01*
X157400000Y-111126000D01*
X157380315Y-111193039D01*
X157327511Y-111238794D01*
X157276000Y-111250000D01*
X153550000Y-111250000D01*
X153550000Y-114650000D01*
X148450000Y-114650000D01*
X148450000Y-107750000D01*
X148450000Y-107300000D01*
X148450000Y-103050000D01*
X155050000Y-103050000D01*
X155050000Y-108650000D01*
G37*
%TD.AperFunction*%
%TD*%
%TA.AperFunction,Conductor*%
%TO.N,15V_isolated*%
G36*
X148050000Y-78050000D02*
G01*
X148050000Y-78550000D01*
X148050000Y-88650000D01*
X146550000Y-88650000D01*
X146550000Y-74050000D01*
X148050000Y-74050000D01*
X148050000Y-78050000D01*
G37*
%TD.AperFunction*%
%TD*%
%TA.AperFunction,Conductor*%
%TO.N,Earth*%
G36*
X172049500Y-143650000D02*
G01*
X154274000Y-143650000D01*
X154206961Y-143630315D01*
X154161206Y-143577511D01*
X154150000Y-143526000D01*
X154150000Y-140974000D01*
X154169685Y-140906961D01*
X154222489Y-140861206D01*
X154274000Y-140850000D01*
X157950000Y-140850000D01*
X157950000Y-137100000D01*
X155724000Y-137100000D01*
X155656961Y-137080315D01*
X155611206Y-137027511D01*
X155600000Y-136976000D01*
X155600000Y-129150000D01*
X155600000Y-129050000D01*
X172049500Y-129050000D01*
X172049500Y-143650000D01*
G37*
%TD.AperFunction*%
%TD*%
%TA.AperFunction,Conductor*%
%TO.N,Earth*%
G36*
X172049500Y-114650000D02*
G01*
X154274000Y-114650000D01*
X154206961Y-114630315D01*
X154161206Y-114577511D01*
X154150000Y-114526000D01*
X154150000Y-111974000D01*
X154169685Y-111906961D01*
X154222489Y-111861206D01*
X154274000Y-111850000D01*
X157950000Y-111850000D01*
X157950000Y-108100000D01*
X155724000Y-108100000D01*
X155656961Y-108080315D01*
X155611206Y-108027511D01*
X155600000Y-107976000D01*
X155600000Y-100150000D01*
X155600000Y-100050000D01*
X172049500Y-100050000D01*
X172049500Y-114650000D01*
G37*
%TD.AperFunction*%
%TD*%
%TA.AperFunction,Conductor*%
%TO.N,GNDPWR*%
G36*
X151743039Y-40169685D02*
G01*
X151788794Y-40222489D01*
X151800000Y-40274000D01*
X151800000Y-42149998D01*
X151800000Y-42150000D01*
X155008559Y-45013022D01*
X155031570Y-45050000D01*
X148456488Y-45050000D01*
X148462332Y-45024455D01*
X149850000Y-42150001D01*
X149850000Y-40274000D01*
X149869685Y-40206961D01*
X149922489Y-40161206D01*
X149974000Y-40150000D01*
X151676000Y-40150000D01*
X151743039Y-40169685D01*
G37*
%TD.AperFunction*%
%TD*%
%TA.AperFunction,Conductor*%
%TO.N,Earth*%
G36*
X171992539Y-42569685D02*
G01*
X172038294Y-42622489D01*
X172049500Y-42674000D01*
X172049500Y-56650000D01*
X154274000Y-56650000D01*
X154206961Y-56630315D01*
X154161206Y-56577511D01*
X154150000Y-56526000D01*
X154150000Y-53974000D01*
X154169685Y-53906961D01*
X154222489Y-53861206D01*
X154274000Y-53850000D01*
X157950000Y-53850000D01*
X157950000Y-50100000D01*
X155724000Y-50100000D01*
X155656961Y-50080315D01*
X155611206Y-50027511D01*
X155600000Y-49976000D01*
X155600000Y-42550000D01*
X161550000Y-42550000D01*
X171925500Y-42550000D01*
X171992539Y-42569685D01*
G37*
%TD.AperFunction*%
%TD*%
%TA.AperFunction,Conductor*%
%TO.N,GNDPWR*%
G36*
X155050000Y-65150000D02*
G01*
X157276000Y-65150000D01*
X157343039Y-65169685D01*
X157388794Y-65222489D01*
X157400000Y-65274000D01*
X157400000Y-67626000D01*
X157380315Y-67693039D01*
X157327511Y-67738794D01*
X157276000Y-67750000D01*
X153550000Y-67750000D01*
X153550000Y-71150000D01*
X148450000Y-71150000D01*
X148450000Y-64250000D01*
X148450000Y-63800000D01*
X148450000Y-59550000D01*
X155050000Y-59550000D01*
X155050000Y-65150000D01*
G37*
%TD.AperFunction*%
%TD*%
%TA.AperFunction,Conductor*%
%TO.N,15V_isolated*%
G36*
X148050000Y-107050000D02*
G01*
X148050000Y-107550000D01*
X148050000Y-117650000D01*
X146550000Y-117650000D01*
X146550000Y-103050000D01*
X148050000Y-103050000D01*
X148050000Y-107050000D01*
G37*
%TD.AperFunction*%
%TD*%
%TA.AperFunction,Conductor*%
%TO.N,GNDPWR*%
G36*
X153550000Y-86250000D02*
G01*
X154926000Y-86250000D01*
X154993039Y-86269685D01*
X155038794Y-86322489D01*
X155050000Y-86374000D01*
X155050000Y-88550000D01*
X148450000Y-88550000D01*
X148450000Y-85650000D01*
X153550000Y-85650000D01*
X153550000Y-86250000D01*
G37*
%TD.AperFunction*%
%TD*%
%TA.AperFunction,Conductor*%
%TO.N,GNDPWR*%
G36*
X153550000Y-100750000D02*
G01*
X154926000Y-100750000D01*
X154993039Y-100769685D01*
X155038794Y-100822489D01*
X155050000Y-100874000D01*
X155050000Y-103050000D01*
X148450000Y-103050000D01*
X148450000Y-100150000D01*
X153550000Y-100150000D01*
X153550000Y-100750000D01*
G37*
%TD.AperFunction*%
%TD*%
%TA.AperFunction,Conductor*%
%TO.N,GNDPWR*%
G36*
X155050000Y-123150000D02*
G01*
X157276000Y-123150000D01*
X157343039Y-123169685D01*
X157388794Y-123222489D01*
X157400000Y-123274000D01*
X157400000Y-125626000D01*
X157380315Y-125693039D01*
X157327511Y-125738794D01*
X157276000Y-125750000D01*
X153550000Y-125750000D01*
X153550000Y-129150000D01*
X148450000Y-129150000D01*
X148450000Y-122250000D01*
X148450000Y-121800000D01*
X148450000Y-117550000D01*
X155050000Y-117550000D01*
X155050000Y-123150000D01*
G37*
%TD.AperFunction*%
%TD*%
%TA.AperFunction,Conductor*%
%TO.N,Earth*%
G36*
X172049500Y-129150000D02*
G01*
X154274000Y-129150000D01*
X154206961Y-129130315D01*
X154161206Y-129077511D01*
X154150000Y-129026000D01*
X154150000Y-126474000D01*
X154169685Y-126406961D01*
X154222489Y-126361206D01*
X154274000Y-126350000D01*
X157950000Y-126350000D01*
X157950000Y-122600000D01*
X155724000Y-122600000D01*
X155656961Y-122580315D01*
X155611206Y-122527511D01*
X155600000Y-122476000D01*
X155600000Y-114650000D01*
X155600000Y-114550000D01*
X172049500Y-114550000D01*
X172049500Y-129150000D01*
G37*
%TD.AperFunction*%
%TD*%
%TA.AperFunction,Conductor*%
%TO.N,GNDPWR*%
G36*
X153550000Y-71750000D02*
G01*
X154926000Y-71750000D01*
X154993039Y-71769685D01*
X155038794Y-71822489D01*
X155050000Y-71874000D01*
X155050000Y-74050000D01*
X148450000Y-74050000D01*
X148450000Y-71150000D01*
X153550000Y-71150000D01*
X153550000Y-71750000D01*
G37*
%TD.AperFunction*%
%TD*%
%TA.AperFunction,Conductor*%
%TO.N,15V_isolated*%
G36*
X148050000Y-158025500D02*
G01*
X148030315Y-158092539D01*
X147977511Y-158138294D01*
X147926000Y-158149500D01*
X146674000Y-158149500D01*
X146606961Y-158129815D01*
X146561206Y-158077011D01*
X146550000Y-158025500D01*
X146550000Y-146550000D01*
X148050000Y-146550000D01*
X148050000Y-158025500D01*
G37*
%TD.AperFunction*%
%TD*%
%TA.AperFunction,Conductor*%
%TO.N,Earth*%
G36*
X172049500Y-85650000D02*
G01*
X154274000Y-85650000D01*
X154206961Y-85630315D01*
X154161206Y-85577511D01*
X154150000Y-85526000D01*
X154150000Y-82974000D01*
X154169685Y-82906961D01*
X154222489Y-82861206D01*
X154274000Y-82850000D01*
X157950000Y-82850000D01*
X157950000Y-79100000D01*
X155724000Y-79100000D01*
X155656961Y-79080315D01*
X155611206Y-79027511D01*
X155600000Y-78976000D01*
X155600000Y-71150000D01*
X155600000Y-71050000D01*
X172049500Y-71050000D01*
X172049500Y-85650000D01*
G37*
%TD.AperFunction*%
%TD*%
%TA.AperFunction,Conductor*%
%TO.N,15V_isolated*%
G36*
X148050000Y-49050000D02*
G01*
X148050000Y-49550000D01*
X148050000Y-59650000D01*
X146550000Y-59650000D01*
X146550000Y-45065773D01*
X146552007Y-45050000D01*
X148050000Y-45050000D01*
X148050000Y-49050000D01*
G37*
%TD.AperFunction*%
%TD*%
%TA.AperFunction,Conductor*%
%TO.N,GNDPWR*%
G36*
X153550000Y-129750000D02*
G01*
X154926000Y-129750000D01*
X154993039Y-129769685D01*
X155038794Y-129822489D01*
X155050000Y-129874000D01*
X155050000Y-132050000D01*
X148450000Y-132050000D01*
X148450000Y-129150000D01*
X153550000Y-129150000D01*
X153550000Y-129750000D01*
G37*
%TD.AperFunction*%
%TD*%
%TA.AperFunction,Conductor*%
%TO.N,Earth*%
G36*
X172049500Y-100150000D02*
G01*
X154274000Y-100150000D01*
X154206961Y-100130315D01*
X154161206Y-100077511D01*
X154150000Y-100026000D01*
X154150000Y-97474000D01*
X154169685Y-97406961D01*
X154222489Y-97361206D01*
X154274000Y-97350000D01*
X157950000Y-97350000D01*
X157950000Y-93600000D01*
X155724000Y-93600000D01*
X155656961Y-93580315D01*
X155611206Y-93527511D01*
X155600000Y-93476000D01*
X155600000Y-85650000D01*
X155600000Y-85550000D01*
X172049500Y-85550000D01*
X172049500Y-100150000D01*
G37*
%TD.AperFunction*%
%TD*%
%TA.AperFunction,Conductor*%
%TO.N,15V_isolated*%
G36*
X148050000Y-92550000D02*
G01*
X148050000Y-93050000D01*
X148050000Y-103150000D01*
X146550000Y-103150000D01*
X146550000Y-88550000D01*
X148050000Y-88550000D01*
X148050000Y-92550000D01*
G37*
%TD.AperFunction*%
%TD*%
%TA.AperFunction,Conductor*%
%TO.N,15V_isolated*%
G36*
X148050000Y-121550000D02*
G01*
X148050000Y-122050000D01*
X148050000Y-132150000D01*
X146550000Y-132150000D01*
X146550000Y-117550000D01*
X148050000Y-117550000D01*
X148050000Y-121550000D01*
G37*
%TD.AperFunction*%
%TD*%
%TA.AperFunction,Conductor*%
%TO.N,GNDPWR*%
G36*
X153550000Y-57250000D02*
G01*
X154926000Y-57250000D01*
X154993039Y-57269685D01*
X155038794Y-57322489D01*
X155050000Y-57374000D01*
X155050000Y-59550000D01*
X148450000Y-59550000D01*
X148450000Y-56650000D01*
X153550000Y-56650000D01*
X153550000Y-57250000D01*
G37*
%TD.AperFunction*%
%TD*%
%TA.AperFunction,Conductor*%
%TO.N,GNDPWR*%
G36*
X155045473Y-45072341D02*
G01*
X155050000Y-45105541D01*
X155050000Y-50650000D01*
X157276000Y-50650000D01*
X157343039Y-50669685D01*
X157388794Y-50722489D01*
X157400000Y-50774000D01*
X157400000Y-53126000D01*
X157380315Y-53193039D01*
X157327511Y-53238794D01*
X157276000Y-53250000D01*
X153550000Y-53250000D01*
X153550000Y-56650000D01*
X148450000Y-56650000D01*
X148450000Y-49750000D01*
X148450000Y-49300000D01*
X148450000Y-45078364D01*
X148456488Y-45050000D01*
X155031570Y-45050000D01*
X155045473Y-45072341D01*
G37*
%TD.AperFunction*%
%TD*%
M02*
