M48
; DRILL file {KiCad 8.0.5} date 2024-10-14T01:07:58-0500
; FORMAT={-:-/ absolute / inch / decimal}
; #@! TF.CreationDate,2024-10-14T01:07:58-05:00
; #@! TF.GenerationSoftware,Kicad,Pcbnew,8.0.5
; #@! TF.FileFunction,Plated,1,2,PTH
FMAT,2
INCH
; #@! TA.AperFunction,Plated,PTH,ViaDrill
T1C0.0118
; #@! TA.AperFunction,Plated,PTH,ComponentDrill
T2C0.0394
; #@! TA.AperFunction,Plated,PTH,ComponentDrill
T3C0.0551
%
G90
G05
T1
X2.6594Y-3.0884
X2.6872Y-3.0884
X2.7795Y-3.584
X2.8324Y-3.5311
X2.8484Y-4.0374
X2.8484Y-4.0669
X2.8484Y-4.0965
X2.878Y-4.0374
X2.9941Y-3.628
X2.9941Y-3.6575
X2.9941Y-3.687
X3.0236Y-3.687
X3.0906Y-3.8681
X3.1181Y-3.8681
X3.1591Y-4.2969
X3.1965Y-4.2969
X3.1965Y-4.352
X3.1969Y-4.4075
X3.1969Y-4.4626
X3.2339Y-4.2969
X3.2339Y-4.352
X3.2339Y-4.4071
X3.2339Y-4.4623
X3.2343Y-4.5177
X3.2382Y-3.6752
X3.2657Y-3.6752
X3.2713Y-4.2969
X3.2713Y-4.352
X3.2713Y-4.4071
X3.2713Y-4.4623
X3.2713Y-4.5174
X3.3087Y-4.2969
X3.3087Y-4.4623
X3.3087Y-4.5174
X3.3461Y-4.4623
X3.3461Y-4.5174
X3.563Y-4.4606
X3.563Y-4.5
X3.563Y-4.5394
X3.563Y-4.5787
X3.563Y-4.6181
X3.563Y-4.6555
X3.563Y-4.6969
X3.565Y-3.8543
X3.565Y-3.8878
X3.5807Y-4.2815
X3.5807Y-4.3209
X3.5984Y-3.8543
X3.5984Y-3.8878
X3.6201Y-4.2815
X3.6201Y-4.3209
X3.6319Y-3.8543
X3.6319Y-3.8878
X3.6594Y-4.2815
X3.6594Y-4.3209
X3.6654Y-3.8543
X3.6654Y-3.8878
X3.6988Y-3.8543
X3.6988Y-3.8878
X3.6988Y-4.2815
X3.6988Y-4.3209
X3.8091Y-3.4035
X3.8091Y-3.4331
X3.8091Y-3.4626
X3.8091Y-3.4921
X3.8169Y-4.7992
X3.8386Y-3.4035
X3.8386Y-3.4331
X3.8386Y-3.4626
X3.8386Y-3.4921
X3.8406Y-4.7579
X3.8406Y-4.7835
X3.8602Y-4.5433
X3.8661Y-4.5138
X3.8701Y-4.4843
X3.874Y-4.4547
X3.8957Y-4.435
X3.9094Y-3.6732
X3.9094Y-3.7323
X3.9094Y-3.7913
X3.9252Y-4.435
X3.937Y-2.7874
X3.937Y-2.8307
X3.937Y-2.874
X3.937Y-2.9173
X3.937Y-2.9626
X3.937Y-3.0059
X3.9646Y-3.6732
X3.9646Y-3.7323
X3.9646Y-3.7913
X3.9823Y-2.7874
X3.9823Y-2.8307
X3.9823Y-2.874
X3.9823Y-2.9173
X3.9823Y-2.9626
X3.9823Y-3.0059
X4.0157Y-3.6142
X4.0177Y-3.5551
X4.0197Y-3.6732
X4.0197Y-3.7323
X4.0197Y-3.7913
X4.0276Y-2.7874
X4.0276Y-2.8307
X4.0276Y-2.874
X4.0276Y-2.9173
X4.0276Y-2.9626
X4.0276Y-3.0059
X4.0492Y-3.5
X4.0728Y-2.7874
X4.0728Y-2.8307
X4.0728Y-2.874
X4.0728Y-2.9173
X4.0728Y-2.9626
X4.0728Y-3.0059
X4.0748Y-3.6732
X4.0748Y-3.7323
X4.0748Y-3.7913
X4.0768Y-3.5551
X4.0768Y-3.6142
X4.1181Y-2.7874
X4.1181Y-2.8307
X4.1181Y-2.874
X4.1181Y-2.9173
X4.1181Y-2.9626
X4.1181Y-3.0059
X4.1299Y-3.6732
X4.1299Y-3.7323
X4.1299Y-3.7913
X4.1319Y-3.5551
X4.1319Y-3.6142
X4.185Y-3.437
X4.185Y-3.4961
X4.185Y-3.5551
X4.185Y-3.6142
X4.185Y-3.6732
X4.185Y-3.7323
X4.185Y-3.7913
X4.2913Y-4.4606
X4.2913Y-4.5
X4.2913Y-4.5394
X4.2913Y-4.5787
X4.2913Y-4.6181
X4.2913Y-4.6555
X4.2913Y-4.6969
X4.2933Y-3.8543
X4.2933Y-3.8878
X4.2953Y-4.3031
X4.3189Y-4.2815
X4.3189Y-4.3248
X4.3268Y-3.8543
X4.3268Y-3.8878
X4.3406Y-4.3031
X4.3602Y-3.8543
X4.3602Y-3.8878
X4.3622Y-4.2815
X4.3622Y-4.3248
X4.3839Y-4.3031
X4.3937Y-3.8543
X4.3937Y-3.8878
X4.4055Y-4.2815
X4.4055Y-4.3248
X4.4272Y-3.8543
X4.4272Y-3.8878
X4.5374Y-3.4035
X4.5374Y-3.4331
X4.5374Y-3.4626
X4.5374Y-3.4921
X4.5453Y-4.7992
X4.5669Y-3.4035
X4.5669Y-3.4331
X4.5669Y-3.4626
X4.5669Y-3.4921
X4.5689Y-4.7579
X4.5689Y-4.7835
X4.5886Y-4.5433
X4.5945Y-4.5138
X4.5984Y-4.4843
X4.6024Y-4.4547
X4.624Y-4.435
X4.6378Y-3.6732
X4.6378Y-3.7323
X4.6378Y-3.7913
X4.6535Y-4.435
X4.6654Y-2.7874
X4.6654Y-2.8307
X4.6654Y-2.874
X4.6654Y-2.9173
X4.6654Y-2.9626
X4.6654Y-3.0059
X4.6929Y-3.6732
X4.6929Y-3.7323
X4.6929Y-3.7913
X4.7106Y-2.7874
X4.7106Y-2.8307
X4.7106Y-2.874
X4.7106Y-2.9173
X4.7106Y-2.9626
X4.7106Y-3.0059
X4.7441Y-3.6142
X4.7461Y-3.5551
X4.748Y-3.6732
X4.748Y-3.7323
X4.748Y-3.7913
X4.7559Y-2.7874
X4.7559Y-2.8307
X4.7559Y-2.874
X4.7559Y-2.9173
X4.7559Y-2.9626
X4.7559Y-3.0059
X4.7776Y-3.5
X4.8012Y-2.7874
X4.8012Y-2.8307
X4.8012Y-2.874
X4.8012Y-2.9173
X4.8012Y-2.9626
X4.8012Y-3.0059
X4.8031Y-3.6732
X4.8031Y-3.7323
X4.8031Y-3.7913
X4.8051Y-3.5551
X4.8051Y-3.6142
X4.8465Y-2.7874
X4.8465Y-2.8307
X4.8465Y-2.874
X4.8465Y-2.9173
X4.8465Y-2.9626
X4.8465Y-3.0059
X4.8583Y-3.6732
X4.8583Y-3.7323
X4.8583Y-3.7913
X4.8602Y-3.5551
X4.8602Y-3.6142
X4.9134Y-3.437
X4.9134Y-3.4961
X4.9134Y-3.5551
X4.9134Y-3.6142
X4.9134Y-3.6732
X4.9134Y-3.7323
X4.9134Y-3.7913
X5.0197Y-4.4606
X5.0197Y-4.5
X5.0197Y-4.5394
X5.0197Y-4.5787
X5.0197Y-4.6181
X5.0197Y-4.6555
X5.0197Y-4.6969
X5.0217Y-3.8543
X5.0217Y-3.8878
X5.0236Y-4.3031
X5.0472Y-4.2815
X5.0472Y-4.3248
X5.0551Y-3.8543
X5.0551Y-3.8878
X5.0689Y-4.3031
X5.0886Y-3.8543
X5.0886Y-3.8878
X5.0906Y-4.2815
X5.0906Y-4.3248
X5.1122Y-4.3031
X5.122Y-3.8543
X5.122Y-3.8878
X5.1339Y-4.2815
X5.1339Y-4.3248
X5.1555Y-3.8543
X5.1555Y-3.8878
X5.2657Y-3.4035
X5.2657Y-3.4331
X5.2657Y-3.4626
X5.2657Y-3.4921
X5.2736Y-4.7992
X5.2953Y-3.4035
X5.2953Y-3.4331
X5.2953Y-3.4626
X5.2953Y-3.4921
X5.2972Y-4.7579
X5.2972Y-4.7835
X5.3169Y-4.5433
X5.3228Y-4.5138
X5.3268Y-4.4843
X5.3307Y-4.4547
X5.3524Y-4.435
X5.3661Y-3.6732
X5.3661Y-3.7323
X5.3661Y-3.7913
X5.3819Y-4.435
X5.3937Y-2.7874
X5.3937Y-2.8307
X5.3937Y-2.874
X5.3937Y-2.9173
X5.3937Y-2.9626
X5.3937Y-3.0059
X5.4213Y-3.6732
X5.4213Y-3.7323
X5.4213Y-3.7913
X5.439Y-2.7874
X5.439Y-2.8307
X5.439Y-2.874
X5.439Y-2.9173
X5.439Y-2.9626
X5.439Y-3.0059
X5.4724Y-3.6142
X5.4744Y-3.5551
X5.4764Y-3.6732
X5.4764Y-3.7323
X5.4764Y-3.7913
X5.4843Y-2.7874
X5.4843Y-2.8307
X5.4843Y-2.874
X5.4843Y-2.9173
X5.4843Y-2.9626
X5.4843Y-3.0059
X5.5059Y-3.5
X5.5295Y-2.7874
X5.5295Y-2.8307
X5.5295Y-2.874
X5.5295Y-2.9173
X5.5295Y-2.9626
X5.5295Y-3.0059
X5.5315Y-3.6732
X5.5315Y-3.7323
X5.5315Y-3.7913
X5.5335Y-3.5551
X5.5335Y-3.6142
X5.5748Y-2.7874
X5.5748Y-2.8307
X5.5748Y-2.874
X5.5748Y-2.9173
X5.5748Y-2.9626
X5.5748Y-3.0059
X5.5866Y-3.6732
X5.5866Y-3.7323
X5.5866Y-3.7913
X5.5886Y-3.5551
X5.5886Y-3.6142
X5.6417Y-3.437
X5.6417Y-3.4961
X5.6417Y-3.5551
X5.6417Y-3.6142
X5.6417Y-3.6732
X5.6417Y-3.7323
X5.6417Y-3.7913
X5.748Y-4.4606
X5.748Y-4.5
X5.748Y-4.5394
X5.748Y-4.5787
X5.748Y-4.6181
X5.748Y-4.6555
X5.748Y-4.6969
X5.75Y-3.8543
X5.75Y-3.8878
X5.752Y-4.3031
X5.7756Y-4.2815
X5.7756Y-4.3248
X5.7835Y-3.8543
X5.7835Y-3.8878
X5.7972Y-4.3031
X5.8169Y-3.8543
X5.8169Y-3.8878
X5.8189Y-4.2815
X5.8189Y-4.3248
X5.8406Y-4.3031
X5.8504Y-3.8543
X5.8504Y-3.8878
X5.8622Y-4.2815
X5.8622Y-4.3248
X5.8839Y-3.8543
X5.8839Y-3.8878
X5.9941Y-3.4035
X5.9941Y-3.4331
X5.9941Y-3.4626
X5.9941Y-3.4921
X6.002Y-4.7992
X6.0236Y-3.4035
X6.0236Y-3.4331
X6.0236Y-3.4626
X6.0236Y-3.4921
X6.0256Y-4.7579
X6.0256Y-4.7835
X6.0453Y-4.5433
X6.0512Y-4.5138
X6.0551Y-4.4843
X6.0591Y-4.4547
X6.0807Y-4.435
X6.0945Y-3.6732
X6.0945Y-3.7323
X6.0945Y-3.7913
X6.1102Y-4.435
X6.122Y-2.7874
X6.122Y-2.8307
X6.122Y-2.874
X6.122Y-2.9173
X6.122Y-2.9626
X6.122Y-3.0059
X6.1496Y-3.6732
X6.1496Y-3.7323
X6.1496Y-3.7913
X6.1673Y-2.7874
X6.1673Y-2.8307
X6.1673Y-2.874
X6.1673Y-2.9173
X6.1673Y-2.9626
X6.1673Y-3.0059
X6.2008Y-3.6142
X6.2028Y-3.5551
X6.2047Y-3.6732
X6.2047Y-3.7323
X6.2047Y-3.7913
X6.2126Y-2.7874
X6.2126Y-2.8307
X6.2126Y-2.874
X6.2126Y-2.9173
X6.2126Y-2.9626
X6.2126Y-3.0059
X6.2343Y-3.5
X6.2579Y-2.7874
X6.2579Y-2.8307
X6.2579Y-2.874
X6.2579Y-2.9173
X6.2579Y-2.9626
X6.2579Y-3.0059
X6.2598Y-3.6732
X6.2598Y-3.7323
X6.2598Y-3.7913
X6.2618Y-3.5551
X6.2618Y-3.6142
X6.3031Y-2.7874
X6.3031Y-2.8307
X6.3031Y-2.874
X6.3031Y-2.9173
X6.3031Y-2.9626
X6.3031Y-3.0059
X6.315Y-3.6732
X6.315Y-3.7323
X6.315Y-3.7913
X6.3169Y-3.5551
X6.3169Y-3.6142
X6.3701Y-3.437
X6.3701Y-3.4961
X6.3701Y-3.5551
X6.3701Y-3.6142
X6.3701Y-3.6732
X6.3701Y-3.7323
X6.3701Y-3.7913
X6.4764Y-4.4606
X6.4764Y-4.5
X6.4764Y-4.5394
X6.4764Y-4.5787
X6.4764Y-4.6181
X6.4764Y-4.6555
X6.4764Y-4.6969
X6.4783Y-3.8543
X6.4783Y-3.8878
X6.4803Y-4.3031
X6.5039Y-4.2815
X6.5039Y-4.3248
X6.5118Y-3.8543
X6.5118Y-3.8878
X6.5256Y-4.3031
X6.5453Y-3.8543
X6.5453Y-3.8878
X6.5472Y-4.2815
X6.5472Y-4.3248
X6.5689Y-4.3031
X6.5787Y-3.8543
X6.5787Y-3.8878
X6.5906Y-4.2815
X6.5906Y-4.3248
X6.6122Y-3.8543
X6.6122Y-3.8878
X6.7224Y-3.4035
X6.7224Y-3.4331
X6.7224Y-3.4626
X6.7224Y-3.4921
X6.7303Y-4.7992
X6.752Y-3.4035
X6.752Y-3.4331
X6.752Y-3.4626
X6.752Y-3.4921
X6.7539Y-4.7579
X6.7539Y-4.7835
X6.7736Y-4.5433
X6.7795Y-4.5138
X6.7835Y-4.4843
X6.7874Y-4.4547
X6.8091Y-4.435
X6.8228Y-3.6732
X6.8228Y-3.7323
X6.8228Y-3.7913
X6.8386Y-4.435
X6.8504Y-2.7874
X6.8504Y-2.8307
X6.8504Y-2.874
X6.8504Y-2.9173
X6.8504Y-2.9626
X6.8504Y-3.0059
X6.878Y-3.6732
X6.878Y-3.7323
X6.878Y-3.7913
X6.8957Y-2.7874
X6.8957Y-2.8307
X6.8957Y-2.874
X6.8957Y-2.9173
X6.8957Y-2.9626
X6.8957Y-3.0059
X6.9291Y-3.6142
X6.9311Y-3.5551
X6.9331Y-3.6732
X6.9331Y-3.7323
X6.9331Y-3.7913
X6.9409Y-2.7874
X6.9409Y-2.8307
X6.9409Y-2.874
X6.9409Y-2.9173
X6.9409Y-2.9626
X6.9409Y-3.0059
X6.9626Y-3.5
X6.9862Y-2.7874
X6.9862Y-2.8307
X6.9862Y-2.874
X6.9862Y-2.9173
X6.9862Y-2.9626
X6.9862Y-3.0059
X6.9882Y-3.6732
X6.9882Y-3.7323
X6.9882Y-3.7913
X6.9902Y-3.5551
X6.9902Y-3.6142
X7.0315Y-2.7874
X7.0315Y-2.8307
X7.0315Y-2.874
X7.0315Y-2.9173
X7.0315Y-2.9626
X7.0315Y-3.0059
X7.0433Y-3.6732
X7.0433Y-3.7323
X7.0433Y-3.7913
X7.0453Y-3.5551
X7.0453Y-3.6142
X7.0965Y-3.437
X7.0965Y-3.4961
X7.0965Y-3.5551
X7.0965Y-3.6142
X7.0965Y-3.6732
X7.0965Y-3.7323
X7.0965Y-3.7913
X7.2047Y-4.4606
X7.2047Y-4.5
X7.2047Y-4.5394
X7.2047Y-4.5787
X7.2047Y-4.6181
X7.2047Y-4.6555
X7.2047Y-4.6969
X7.2067Y-3.8543
X7.2067Y-3.8878
X7.2087Y-4.3031
X7.2323Y-4.2815
X7.2323Y-4.3248
X7.2402Y-3.8543
X7.2402Y-3.8878
X7.2539Y-4.3031
X7.2736Y-3.8543
X7.2736Y-3.8878
X7.2756Y-4.2815
X7.2756Y-4.3248
X7.2972Y-4.3031
X7.3071Y-3.8543
X7.3071Y-3.8878
X7.3189Y-4.2815
X7.3189Y-4.3248
X7.3406Y-3.8543
X7.3406Y-3.8878
X7.4508Y-3.4035
X7.4508Y-3.4331
X7.4508Y-3.4626
X7.4508Y-3.4921
X7.4587Y-4.7992
X7.4803Y-3.4035
X7.4803Y-3.4331
X7.4803Y-3.4626
X7.4803Y-3.4921
X7.4823Y-4.7579
X7.4823Y-4.7835
X7.502Y-4.5433
X7.5079Y-4.5138
X7.5118Y-4.4843
X7.5157Y-4.4547
X7.5374Y-4.435
X7.5512Y-3.6732
X7.5512Y-3.7323
X7.5512Y-3.7913
X7.5669Y-4.435
X7.5787Y-2.7874
X7.5787Y-2.8307
X7.5787Y-2.874
X7.5787Y-2.9173
X7.5787Y-2.9626
X7.5787Y-3.0059
X7.6063Y-3.6732
X7.6063Y-3.7323
X7.6063Y-3.7913
X7.624Y-2.7874
X7.624Y-2.8307
X7.624Y-2.874
X7.624Y-2.9173
X7.624Y-2.9626
X7.624Y-3.0059
X7.6575Y-3.6142
X7.6594Y-3.5551
X7.6614Y-3.6732
X7.6614Y-3.7323
X7.6614Y-3.7913
X7.6693Y-2.7874
X7.6693Y-2.8307
X7.6693Y-2.874
X7.6693Y-2.9173
X7.6693Y-2.9626
X7.6693Y-3.0059
X7.6909Y-3.5
X7.7146Y-2.7874
X7.7146Y-2.8307
X7.7146Y-2.874
X7.7146Y-2.9173
X7.7146Y-2.9626
X7.7146Y-3.0059
X7.7165Y-3.6732
X7.7165Y-3.7323
X7.7165Y-3.7913
X7.7185Y-3.5551
X7.7185Y-3.6142
X7.7598Y-2.7874
X7.7598Y-2.8307
X7.7598Y-2.874
X7.7598Y-2.9173
X7.7598Y-2.9626
X7.7598Y-3.0059
X7.7717Y-3.6732
X7.7717Y-3.7323
X7.7717Y-3.7913
X7.7736Y-3.5551
X7.7736Y-3.6142
X7.8268Y-3.437
X7.8268Y-3.4961
X7.8268Y-3.5551
X7.8268Y-3.6142
X7.8268Y-3.6732
X7.8268Y-3.7323
X7.8268Y-3.7913
X7.9331Y-4.4606
X7.9331Y-4.5
X7.9331Y-4.5394
X7.9331Y-4.5787
X7.9331Y-4.6181
X7.9331Y-4.6555
X7.9331Y-4.6969
X7.935Y-3.8543
X7.935Y-3.8878
X7.937Y-4.3031
X7.9606Y-4.2815
X7.9606Y-4.3248
X7.9685Y-3.8543
X7.9685Y-3.8878
X7.9823Y-4.3031
X8.002Y-3.8543
X8.002Y-3.8878
X8.0039Y-4.2815
X8.0039Y-4.3248
X8.0256Y-4.3031
X8.0354Y-3.8543
X8.0354Y-3.8878
X8.0472Y-4.2815
X8.0472Y-4.3248
X8.0689Y-3.8543
X8.0689Y-3.8878
X8.1791Y-3.4035
X8.1791Y-3.4331
X8.1791Y-3.4626
X8.1791Y-3.4921
X8.187Y-4.7992
X8.2087Y-3.4035
X8.2087Y-3.4331
X8.2087Y-3.4626
X8.2087Y-3.4921
X8.2106Y-4.7579
X8.2106Y-4.7835
X8.2303Y-4.5433
X8.2362Y-4.5138
X8.2402Y-4.4843
X8.2441Y-4.4547
X8.2657Y-4.435
X8.2795Y-3.6732
X8.2795Y-3.7323
X8.2795Y-3.7913
X8.2953Y-4.435
X8.3071Y-2.7874
X8.3071Y-2.8307
X8.3071Y-2.874
X8.3071Y-2.9173
X8.3071Y-2.9626
X8.3071Y-3.0059
X8.3346Y-3.6732
X8.3346Y-3.7323
X8.3346Y-3.7913
X8.3524Y-2.7874
X8.3524Y-2.8307
X8.3524Y-2.874
X8.3524Y-2.9173
X8.3524Y-2.9626
X8.3524Y-3.0059
X8.3858Y-3.6142
X8.3878Y-3.5551
X8.3898Y-3.6732
X8.3898Y-3.7323
X8.3898Y-3.7913
X8.3976Y-2.7874
X8.3976Y-2.8307
X8.3976Y-2.874
X8.3976Y-2.9173
X8.3976Y-2.9626
X8.3976Y-3.0059
X8.4193Y-3.5
X8.4429Y-2.7874
X8.4429Y-2.8307
X8.4429Y-2.874
X8.4429Y-2.9173
X8.4429Y-2.9626
X8.4429Y-3.0059
X8.4449Y-3.6732
X8.4449Y-3.7323
X8.4449Y-3.7913
X8.4469Y-3.5551
X8.4469Y-3.6142
X8.4882Y-2.7874
X8.4882Y-2.8307
X8.4882Y-2.874
X8.4882Y-2.9173
X8.4882Y-2.9626
X8.4882Y-3.0059
X8.5Y-3.6732
X8.5Y-3.7323
X8.5Y-3.7913
X8.502Y-3.5551
X8.502Y-3.6142
X8.5551Y-3.437
X8.5551Y-3.4961
X8.5551Y-3.5551
X8.5551Y-3.6142
X8.5551Y-3.6732
X8.5551Y-3.7323
X8.5551Y-3.7913
X8.6614Y-4.4606
X8.6614Y-4.5
X8.6614Y-4.5394
X8.6614Y-4.5787
X8.6614Y-4.6181
X8.6614Y-4.6555
X8.6614Y-4.6969
X8.6634Y-3.8543
X8.6634Y-3.8878
X8.6654Y-4.3031
X8.689Y-4.2815
X8.689Y-4.3248
X8.6969Y-3.8543
X8.6969Y-3.8878
X8.7106Y-4.3031
X8.7303Y-3.8543
X8.7303Y-3.8878
X8.7323Y-4.2815
X8.7323Y-4.3248
X8.7539Y-4.3031
X8.7638Y-3.8543
X8.7638Y-3.8878
X8.7756Y-4.2815
X8.7756Y-4.3248
X8.7972Y-3.8543
X8.7972Y-3.8878
X8.9075Y-3.4035
X8.9075Y-3.4331
X8.9075Y-3.4626
X8.9075Y-3.4921
X8.9154Y-4.7992
X8.937Y-3.4035
X8.937Y-3.4331
X8.937Y-3.4626
X8.937Y-3.4921
X8.939Y-4.7579
X8.939Y-4.7835
X8.9587Y-4.5433
X8.9646Y-4.5138
X8.9685Y-4.4843
X8.9724Y-4.4547
X8.9941Y-4.435
X9.0079Y-3.6732
X9.0079Y-3.7323
X9.0079Y-3.7913
X9.0236Y-4.435
X9.0354Y-2.7874
X9.0354Y-2.8307
X9.0354Y-2.874
X9.0354Y-2.9173
X9.0354Y-2.9626
X9.0354Y-3.0059
X9.063Y-3.6732
X9.063Y-3.7323
X9.063Y-3.7913
X9.0807Y-2.7874
X9.0807Y-2.8307
X9.0807Y-2.874
X9.0807Y-2.9173
X9.0807Y-2.9626
X9.0807Y-3.0059
X9.1142Y-3.6142
X9.1161Y-3.5551
X9.1181Y-3.6732
X9.1181Y-3.7323
X9.1181Y-3.7913
X9.126Y-2.7874
X9.126Y-2.8307
X9.126Y-2.874
X9.126Y-2.9173
X9.126Y-2.9626
X9.126Y-3.0059
X9.1476Y-3.5
X9.1713Y-2.7874
X9.1713Y-2.8307
X9.1713Y-2.874
X9.1713Y-2.9173
X9.1713Y-2.9626
X9.1713Y-3.0059
X9.1732Y-3.6732
X9.1732Y-3.7323
X9.1732Y-3.7913
X9.1752Y-3.5551
X9.1752Y-3.6142
X9.2165Y-2.7874
X9.2165Y-2.8307
X9.2165Y-2.874
X9.2165Y-2.9173
X9.2165Y-2.9626
X9.2165Y-3.0059
X9.2283Y-3.6732
X9.2283Y-3.7323
X9.2283Y-3.7913
X9.2303Y-3.5551
X9.2303Y-3.6142
X9.2874Y-3.437
X9.2874Y-3.4961
X9.2874Y-3.5551
X9.2874Y-3.6142
X9.2874Y-3.6732
X9.2874Y-3.7323
X9.2874Y-3.7913
T2
X2.6088Y-3.5439
X2.6088Y-3.6439
X2.6088Y-3.7439
X2.6323Y-4.8858
X2.6496Y-4.1047
X2.6496Y-4.2047
X2.6496Y-4.4591
X2.6496Y-4.5591
X2.7088Y-3.5439
X2.7088Y-3.6439
X2.7088Y-3.7439
X2.7323Y-4.8858
X2.8323Y-4.8858
X2.9323Y-4.8858
X3.0323Y-4.8858
X3.1323Y-4.8858
X3.2323Y-4.8858
X3.3287Y-4.5886
X3.3323Y-4.8858
X3.4287Y-4.5886
X3.4323Y-4.8858
X3.5059Y-3.7701
X3.5059Y-3.8701
T3
X3.1795Y-2.7298
X3.1795Y-3.0723
X3.3795Y-2.7298
X3.3795Y-3.0723
M30
