G04 #@! TF.GenerationSoftware,KiCad,Pcbnew,8.0.5*
G04 #@! TF.CreationDate,2024-10-14T14:14:41-05:00*
G04 #@! TF.ProjectId,bidirectional_load_switch,62696469-7265-4637-9469-6f6e616c5f6c,rev?*
G04 #@! TF.SameCoordinates,Original*
G04 #@! TF.FileFunction,Soldermask,Top*
G04 #@! TF.FilePolarity,Negative*
%FSLAX46Y46*%
G04 Gerber Fmt 4.6, Leading zero omitted, Abs format (unit mm)*
G04 Created by KiCad (PCBNEW 8.0.5) date 2024-10-14 14:14:41*
%MOMM*%
%LPD*%
G01*
G04 APERTURE LIST*
G04 Aperture macros list*
%AMRoundRect*
0 Rectangle with rounded corners*
0 $1 Rounding radius*
0 $2 $3 $4 $5 $6 $7 $8 $9 X,Y pos of 4 corners*
0 Add a 4 corners polygon primitive as box body*
4,1,4,$2,$3,$4,$5,$6,$7,$8,$9,$2,$3,0*
0 Add four circle primitives for the rounded corners*
1,1,$1+$1,$2,$3*
1,1,$1+$1,$4,$5*
1,1,$1+$1,$6,$7*
1,1,$1+$1,$8,$9*
0 Add four rect primitives between the rounded corners*
20,1,$1+$1,$2,$3,$4,$5,0*
20,1,$1+$1,$4,$5,$6,$7,0*
20,1,$1+$1,$6,$7,$8,$9,0*
20,1,$1+$1,$8,$9,$2,$3,0*%
G04 Aperture macros list end*
%ADD10C,0.254000*%
%ADD11R,0.450800X1.111200*%
%ADD12RoundRect,0.200000X0.275000X-0.200000X0.275000X0.200000X-0.275000X0.200000X-0.275000X-0.200000X0*%
%ADD13R,1.500000X2.900000*%
%ADD14R,6.300000X6.500000*%
%ADD15R,0.558800X1.701800*%
%ADD16R,0.812800X0.457200*%
%ADD17RoundRect,0.250000X0.325000X0.650000X-0.325000X0.650000X-0.325000X-0.650000X0.325000X-0.650000X0*%
%ADD18RoundRect,0.225000X0.225000X0.250000X-0.225000X0.250000X-0.225000X-0.250000X0.225000X-0.250000X0*%
%ADD19R,0.355600X1.168400*%
%ADD20RoundRect,0.250000X-1.425000X0.362500X-1.425000X-0.362500X1.425000X-0.362500X1.425000X0.362500X0*%
%ADD21R,1.700000X1.700000*%
%ADD22O,1.700000X1.700000*%
%ADD23RoundRect,0.250000X-0.325000X-0.650000X0.325000X-0.650000X0.325000X0.650000X-0.325000X0.650000X0*%
%ADD24RoundRect,0.200000X-0.275000X0.200000X-0.275000X-0.200000X0.275000X-0.200000X0.275000X0.200000X0*%
%ADD25R,0.533400X1.574800*%
%ADD26RoundRect,0.250000X-0.262500X-0.450000X0.262500X-0.450000X0.262500X0.450000X-0.262500X0.450000X0*%
%ADD27RoundRect,0.225000X-0.225000X-0.250000X0.225000X-0.250000X0.225000X0.250000X-0.225000X0.250000X0*%
%ADD28RoundRect,0.200000X0.200000X0.275000X-0.200000X0.275000X-0.200000X-0.275000X0.200000X-0.275000X0*%
%ADD29RoundRect,0.250000X0.600000X0.600000X-0.600000X0.600000X-0.600000X-0.600000X0.600000X-0.600000X0*%
%ADD30C,1.700000*%
%ADD31RoundRect,0.250000X0.262500X0.450000X-0.262500X0.450000X-0.262500X-0.450000X0.262500X-0.450000X0*%
%ADD32R,0.952500X0.558800*%
%ADD33R,0.558800X1.460500*%
%ADD34RoundRect,0.225000X-0.250000X0.225000X-0.250000X-0.225000X0.250000X-0.225000X0.250000X0.225000X0*%
%ADD35C,2.304000*%
%ADD36R,0.549999X0.800001*%
%ADD37RoundRect,0.250000X-0.650000X0.325000X-0.650000X-0.325000X0.650000X-0.325000X0.650000X0.325000X0*%
G04 APERTURE END LIST*
D10*
X191550000Y-70300000D02*
X198050000Y-70300000D01*
X198050000Y-76800000D01*
X191550000Y-76800000D01*
X191550000Y-70300000D01*
G36*
X191550000Y-70300000D02*
G01*
X198050000Y-70300000D01*
X198050000Y-76800000D01*
X191550000Y-76800000D01*
X191550000Y-70300000D01*
G37*
X99050000Y-70300000D02*
X105550000Y-70300000D01*
X105550000Y-76800000D01*
X99050000Y-76800000D01*
X99050000Y-70300000D01*
G36*
X99050000Y-70300000D02*
G01*
X105550000Y-70300000D01*
X105550000Y-76800000D01*
X99050000Y-76800000D01*
X99050000Y-70300000D01*
G37*
X200800000Y-70300000D02*
X207300000Y-70300000D01*
X207300000Y-76800000D01*
X200800000Y-76800000D01*
X200800000Y-70300000D01*
G36*
X200800000Y-70300000D02*
G01*
X207300000Y-70300000D01*
X207300000Y-76800000D01*
X200800000Y-76800000D01*
X200800000Y-70300000D01*
G37*
X145300000Y-70300000D02*
X151800000Y-70300000D01*
X151800000Y-76800000D01*
X145300000Y-76800000D01*
X145300000Y-70300000D01*
G36*
X145300000Y-70300000D02*
G01*
X151800000Y-70300000D01*
X151800000Y-76800000D01*
X145300000Y-76800000D01*
X145300000Y-70300000D01*
G37*
X173050000Y-70300000D02*
X179550000Y-70300000D01*
X179550000Y-76800000D01*
X173050000Y-76800000D01*
X173050000Y-70300000D01*
G36*
X173050000Y-70300000D02*
G01*
X179550000Y-70300000D01*
X179550000Y-76800000D01*
X173050000Y-76800000D01*
X173050000Y-70300000D01*
G37*
X136050000Y-70300000D02*
X142550000Y-70300000D01*
X142550000Y-76800000D01*
X136050000Y-76800000D01*
X136050000Y-70300000D01*
G36*
X136050000Y-70300000D02*
G01*
X142550000Y-70300000D01*
X142550000Y-76800000D01*
X136050000Y-76800000D01*
X136050000Y-70300000D01*
G37*
X182300000Y-70300000D02*
X188800000Y-70300000D01*
X188800000Y-76800000D01*
X182300000Y-76800000D01*
X182300000Y-70300000D01*
G36*
X182300000Y-70300000D02*
G01*
X188800000Y-70300000D01*
X188800000Y-76800000D01*
X182300000Y-76800000D01*
X182300000Y-70300000D01*
G37*
X89800000Y-70300000D02*
X96300000Y-70300000D01*
X96300000Y-76800000D01*
X89800000Y-76800000D01*
X89800000Y-70300000D01*
G36*
X89800000Y-70300000D02*
G01*
X96300000Y-70300000D01*
X96300000Y-76800000D01*
X89800000Y-76800000D01*
X89800000Y-70300000D01*
G37*
X126800000Y-70300000D02*
X133300000Y-70300000D01*
X133300000Y-76800000D01*
X126800000Y-76800000D01*
X126800000Y-70300000D01*
G36*
X126800000Y-70300000D02*
G01*
X133300000Y-70300000D01*
X133300000Y-76800000D01*
X126800000Y-76800000D01*
X126800000Y-70300000D01*
G37*
X117550000Y-70300000D02*
X124050000Y-70300000D01*
X124050000Y-76800000D01*
X117550000Y-76800000D01*
X117550000Y-70300000D01*
G36*
X117550000Y-70300000D02*
G01*
X124050000Y-70300000D01*
X124050000Y-76800000D01*
X117550000Y-76800000D01*
X117550000Y-70300000D01*
G37*
X219300000Y-70300000D02*
X225800000Y-70300000D01*
X225800000Y-76800000D01*
X219300000Y-76800000D01*
X219300000Y-70300000D01*
G36*
X219300000Y-70300000D02*
G01*
X225800000Y-70300000D01*
X225800000Y-76800000D01*
X219300000Y-76800000D01*
X219300000Y-70300000D01*
G37*
X163800000Y-70300000D02*
X170300000Y-70300000D01*
X170300000Y-76800000D01*
X163800000Y-76800000D01*
X163800000Y-70300000D01*
G36*
X163800000Y-70300000D02*
G01*
X170300000Y-70300000D01*
X170300000Y-76800000D01*
X163800000Y-76800000D01*
X163800000Y-70300000D01*
G37*
X210050000Y-70300000D02*
X216550000Y-70300000D01*
X216550000Y-76800000D01*
X210050000Y-76800000D01*
X210050000Y-70300000D01*
G36*
X210050000Y-70300000D02*
G01*
X216550000Y-70300000D01*
X216550000Y-76800000D01*
X210050000Y-76800000D01*
X210050000Y-70300000D01*
G37*
X108300000Y-70300000D02*
X114800000Y-70300000D01*
X114800000Y-76800000D01*
X108300000Y-76800000D01*
X108300000Y-70300000D01*
G36*
X108300000Y-70300000D02*
G01*
X114800000Y-70300000D01*
X114800000Y-76800000D01*
X108300000Y-76800000D01*
X108300000Y-70300000D01*
G37*
X154550000Y-70300000D02*
X161050000Y-70300000D01*
X161050000Y-76800000D01*
X154550000Y-76800000D01*
X154550000Y-70300000D01*
G36*
X154550000Y-70300000D02*
G01*
X161050000Y-70300000D01*
X161050000Y-76800000D01*
X154550000Y-76800000D01*
X154550000Y-70300000D01*
G37*
X228550000Y-70300000D02*
X235050000Y-70300000D01*
X235050000Y-76800000D01*
X228550000Y-76800000D01*
X228550000Y-70300000D01*
G36*
X228550000Y-70300000D02*
G01*
X235050000Y-70300000D01*
X235050000Y-76800000D01*
X228550000Y-76800000D01*
X228550000Y-70300000D01*
G37*
D11*
G04 #@! TO.C,D102*
X74150000Y-95550000D03*
X74150000Y-93250000D03*
G04 #@! TD*
D12*
G04 #@! TO.C,R203*
X99550000Y-111625000D03*
X99550000Y-109975000D03*
G04 #@! TD*
D13*
G04 #@! TO.C,U205*
X100014000Y-87450000D03*
D14*
X102300000Y-80950000D03*
D13*
X104586000Y-87450000D03*
G04 #@! TD*
D15*
G04 #@! TO.C,U803*
X206030000Y-109184800D03*
X207300000Y-109184800D03*
X208570000Y-109184800D03*
X208570000Y-98415200D03*
X207300000Y-98415200D03*
X206030000Y-98415200D03*
G04 #@! TD*
D16*
G04 #@! TO.C,LED701*
X192050000Y-117328500D03*
X192050000Y-118471500D03*
G04 #@! TD*
D17*
G04 #@! TO.C,C102*
X87275000Y-111800000D03*
X84325000Y-111800000D03*
G04 #@! TD*
D18*
G04 #@! TO.C,C704*
X185825000Y-113300000D03*
X184275000Y-113300000D03*
G04 #@! TD*
G04 #@! TO.C,C401*
X130325000Y-119300000D03*
X128775000Y-119300000D03*
G04 #@! TD*
D19*
G04 #@! TO.C,U902*
X225150001Y-116341400D03*
X225800000Y-116341400D03*
X226449999Y-116341400D03*
X226449999Y-114258600D03*
X225150001Y-114258600D03*
G04 #@! TD*
D20*
G04 #@! TO.C,RS104*
X148550000Y-62837500D03*
X148550000Y-68762500D03*
G04 #@! TD*
D21*
G04 #@! TO.C,J105*
X67300000Y-106800000D03*
D22*
X67300000Y-104260000D03*
G04 #@! TD*
D23*
G04 #@! TO.C,C905*
X224325000Y-93800000D03*
X227275000Y-93800000D03*
G04 #@! TD*
D13*
G04 #@! TO.C,U305*
X118514000Y-87450000D03*
D14*
X120800000Y-80950000D03*
D13*
X123086000Y-87450000D03*
G04 #@! TD*
D19*
G04 #@! TO.C,U702*
X188150001Y-116341400D03*
X188800000Y-116341400D03*
X189449999Y-116341400D03*
X189449999Y-114258600D03*
X188150001Y-114258600D03*
G04 #@! TD*
D12*
G04 #@! TO.C,R303*
X118050000Y-111625000D03*
X118050000Y-109975000D03*
G04 #@! TD*
D13*
G04 #@! TO.C,U705*
X192514000Y-87450000D03*
D14*
X194800000Y-80950000D03*
D13*
X197086000Y-87450000D03*
G04 #@! TD*
D19*
G04 #@! TO.C,U402*
X132650001Y-116341400D03*
X133300000Y-116341400D03*
X133949999Y-116341400D03*
X133949999Y-114258600D03*
X132650001Y-114258600D03*
G04 #@! TD*
D24*
G04 #@! TO.C,R101*
X76950000Y-95275000D03*
X76950000Y-96925000D03*
G04 #@! TD*
D18*
G04 #@! TO.C,C601*
X167325000Y-119300000D03*
X165775000Y-119300000D03*
G04 #@! TD*
D25*
G04 #@! TO.C,U103*
X76955000Y-103854300D03*
X75685000Y-103854300D03*
X74415000Y-103854300D03*
X73145000Y-103854300D03*
X73145000Y-111245700D03*
X74415000Y-111245700D03*
X75685000Y-111245700D03*
X76955000Y-111245700D03*
G04 #@! TD*
D26*
G04 #@! TO.C,R905*
X227137500Y-91050000D03*
X228962500Y-91050000D03*
G04 #@! TD*
D19*
G04 #@! TO.C,U502*
X151150001Y-116341400D03*
X151800000Y-116341400D03*
X152449999Y-116341400D03*
X152449999Y-114258600D03*
X151150001Y-114258600D03*
G04 #@! TD*
D26*
G04 #@! TO.C,R505*
X153137500Y-91050000D03*
X154962500Y-91050000D03*
G04 #@! TD*
D27*
G04 #@! TO.C,C606*
X169525000Y-96050000D03*
X171075000Y-96050000D03*
G04 #@! TD*
D18*
G04 #@! TO.C,C304*
X111825000Y-113300000D03*
X110275000Y-113300000D03*
G04 #@! TD*
D26*
G04 #@! TO.C,R605*
X171637500Y-91050000D03*
X173462500Y-91050000D03*
G04 #@! TD*
D18*
G04 #@! TO.C,C903*
X222825000Y-115300000D03*
X221275000Y-115300000D03*
G04 #@! TD*
D19*
G04 #@! TO.C,U802*
X206650001Y-116341400D03*
X207300000Y-116341400D03*
X207949999Y-116341400D03*
X207949999Y-114258600D03*
X206650001Y-114258600D03*
G04 #@! TD*
D18*
G04 #@! TO.C,C303*
X111825000Y-115300000D03*
X110275000Y-115300000D03*
G04 #@! TD*
D27*
G04 #@! TO.C,C906*
X225025000Y-96050000D03*
X226575000Y-96050000D03*
G04 #@! TD*
G04 #@! TO.C,C506*
X151025000Y-96050000D03*
X152575000Y-96050000D03*
G04 #@! TD*
D23*
G04 #@! TO.C,C705*
X187325000Y-93800000D03*
X190275000Y-93800000D03*
G04 #@! TD*
D28*
G04 #@! TO.C,R402*
X133875000Y-111800000D03*
X132225000Y-111800000D03*
G04 #@! TD*
D12*
G04 #@! TO.C,R901*
X229050000Y-115375000D03*
X229050000Y-113725000D03*
G04 #@! TD*
D21*
G04 #@! TO.C,J102*
X84550000Y-116550000D03*
D22*
X87090000Y-116550000D03*
G04 #@! TD*
D18*
G04 #@! TO.C,C202*
X93325000Y-117300000D03*
X91775000Y-117300000D03*
G04 #@! TD*
D20*
G04 #@! TO.C,RS101*
X93050000Y-62837500D03*
X93050000Y-68762500D03*
G04 #@! TD*
D23*
G04 #@! TO.C,C805*
X205825000Y-93800000D03*
X208775000Y-93800000D03*
G04 #@! TD*
D26*
G04 #@! TO.C,R805*
X208637500Y-91050000D03*
X210462500Y-91050000D03*
G04 #@! TD*
D13*
G04 #@! TO.C,U604*
X164764000Y-87500000D03*
D14*
X167050000Y-81000000D03*
D13*
X169336000Y-87500000D03*
G04 #@! TD*
G04 #@! TO.C,U904*
X220264000Y-87500000D03*
D14*
X222550000Y-81000000D03*
D13*
X224836000Y-87500000D03*
G04 #@! TD*
D26*
G04 #@! TO.C,R305*
X116137500Y-91050000D03*
X117962500Y-91050000D03*
G04 #@! TD*
D18*
G04 #@! TO.C,C403*
X130325000Y-115300000D03*
X128775000Y-115300000D03*
G04 #@! TD*
D29*
G04 #@! TO.C,J107*
X68802500Y-95095000D03*
D30*
X66262500Y-95095000D03*
X68802500Y-92555000D03*
X66262500Y-92555000D03*
X68802500Y-90015000D03*
X66262500Y-90015000D03*
G04 #@! TD*
D12*
G04 #@! TO.C,R803*
X210550000Y-111625000D03*
X210550000Y-109975000D03*
G04 #@! TD*
D31*
G04 #@! TO.C,R804*
X206462500Y-91050000D03*
X204637500Y-91050000D03*
G04 #@! TD*
D15*
G04 #@! TO.C,U203*
X95030000Y-109184800D03*
X96300000Y-109184800D03*
X97570000Y-109184800D03*
X97570000Y-98415200D03*
X96300000Y-98415200D03*
X95030000Y-98415200D03*
G04 #@! TD*
D18*
G04 #@! TO.C,C901*
X222825000Y-119300000D03*
X221275000Y-119300000D03*
G04 #@! TD*
D19*
G04 #@! TO.C,U301*
X114150001Y-120891400D03*
X114800000Y-120891400D03*
X115449999Y-120891400D03*
X115449999Y-118808600D03*
X114150001Y-118808600D03*
G04 #@! TD*
D28*
G04 #@! TO.C,R902*
X226375000Y-111800000D03*
X224725000Y-111800000D03*
G04 #@! TD*
D18*
G04 #@! TO.C,C501*
X148825000Y-119300000D03*
X147275000Y-119300000D03*
G04 #@! TD*
D15*
G04 #@! TO.C,U303*
X113530000Y-109184800D03*
X114800000Y-109184800D03*
X116070000Y-109184800D03*
X116070000Y-98415200D03*
X114800000Y-98415200D03*
X113530000Y-98415200D03*
G04 #@! TD*
D12*
G04 #@! TO.C,R301*
X118050000Y-115375000D03*
X118050000Y-113725000D03*
G04 #@! TD*
D21*
G04 #@! TO.C,J106*
X67300000Y-115800000D03*
D22*
X67300000Y-113260000D03*
G04 #@! TD*
D31*
G04 #@! TO.C,R704*
X187962500Y-91050000D03*
X186137500Y-91050000D03*
G04 #@! TD*
D15*
G04 #@! TO.C,U603*
X169030000Y-109184800D03*
X170300000Y-109184800D03*
X171570000Y-109184800D03*
X171570000Y-98415200D03*
X170300000Y-98415200D03*
X169030000Y-98415200D03*
G04 #@! TD*
D16*
G04 #@! TO.C,LED401*
X136550000Y-117328500D03*
X136550000Y-118471500D03*
G04 #@! TD*
D18*
G04 #@! TO.C,C302*
X111825000Y-117300000D03*
X110275000Y-117300000D03*
G04 #@! TD*
D28*
G04 #@! TO.C,R102*
X78875000Y-101300000D03*
X77225000Y-101300000D03*
G04 #@! TD*
D18*
G04 #@! TO.C,C904*
X222825000Y-113300000D03*
X221275000Y-113300000D03*
G04 #@! TD*
D32*
G04 #@! TO.C,SW101*
X64618650Y-78445800D03*
X70981350Y-78445800D03*
X64618650Y-82154200D03*
X70981350Y-82154200D03*
G04 #@! TD*
D12*
G04 #@! TO.C,R703*
X192050000Y-111625000D03*
X192050000Y-109975000D03*
G04 #@! TD*
D13*
G04 #@! TO.C,U504*
X146264000Y-87500000D03*
D14*
X148550000Y-81000000D03*
D13*
X150836000Y-87500000D03*
G04 #@! TD*
D18*
G04 #@! TO.C,C803*
X204325000Y-115300000D03*
X202775000Y-115300000D03*
G04 #@! TD*
G04 #@! TO.C,C503*
X148825000Y-115300000D03*
X147275000Y-115300000D03*
G04 #@! TD*
D27*
G04 #@! TO.C,C706*
X188025000Y-96050000D03*
X189575000Y-96050000D03*
G04 #@! TD*
D20*
G04 #@! TO.C,RS102*
X111550000Y-62837500D03*
X111550000Y-68762500D03*
G04 #@! TD*
D31*
G04 #@! TO.C,R404*
X132462500Y-91050000D03*
X130637500Y-91050000D03*
G04 #@! TD*
D12*
G04 #@! TO.C,R501*
X155050000Y-115375000D03*
X155050000Y-113725000D03*
G04 #@! TD*
D13*
G04 #@! TO.C,U405*
X137014000Y-87450000D03*
D14*
X139300000Y-80950000D03*
D13*
X141586000Y-87450000D03*
G04 #@! TD*
D20*
G04 #@! TO.C,RS106*
X185550000Y-62837500D03*
X185550000Y-68762500D03*
G04 #@! TD*
D26*
G04 #@! TO.C,R705*
X190137500Y-91050000D03*
X191962500Y-91050000D03*
G04 #@! TD*
D19*
G04 #@! TO.C,U501*
X151150001Y-120891400D03*
X151800000Y-120891400D03*
X152449999Y-120891400D03*
X152449999Y-118808600D03*
X151150001Y-118808600D03*
G04 #@! TD*
D28*
G04 #@! TO.C,R702*
X189375000Y-111800000D03*
X187725000Y-111800000D03*
G04 #@! TD*
D15*
G04 #@! TO.C,U503*
X150530000Y-109184800D03*
X151800000Y-109184800D03*
X153070000Y-109184800D03*
X153070000Y-98415200D03*
X151800000Y-98415200D03*
X150530000Y-98415200D03*
G04 #@! TD*
D21*
G04 #@! TO.C,J104*
X89050000Y-98300000D03*
D22*
X89050000Y-95760000D03*
G04 #@! TD*
D18*
G04 #@! TO.C,C504*
X148825000Y-113300000D03*
X147275000Y-113300000D03*
G04 #@! TD*
D16*
G04 #@! TO.C,LED601*
X173550000Y-117328500D03*
X173550000Y-118471500D03*
G04 #@! TD*
D13*
G04 #@! TO.C,U605*
X174014000Y-87450000D03*
D14*
X176300000Y-80950000D03*
D13*
X178586000Y-87450000D03*
G04 #@! TD*
D19*
G04 #@! TO.C,U202*
X95650001Y-116341400D03*
X96300000Y-116341400D03*
X96949999Y-116341400D03*
X96949999Y-114258600D03*
X95650001Y-114258600D03*
G04 #@! TD*
D26*
G04 #@! TO.C,R205*
X97637500Y-91050000D03*
X99462500Y-91050000D03*
G04 #@! TD*
D16*
G04 #@! TO.C,LED301*
X118050000Y-117328500D03*
X118050000Y-118471500D03*
G04 #@! TD*
D13*
G04 #@! TO.C,U404*
X127764000Y-87500000D03*
D14*
X130050000Y-81000000D03*
D13*
X132336000Y-87500000D03*
G04 #@! TD*
D19*
G04 #@! TO.C,U801*
X206650001Y-120891400D03*
X207300000Y-120891400D03*
X207949999Y-120891400D03*
X207949999Y-118808600D03*
X206650001Y-118808600D03*
G04 #@! TD*
D33*
G04 #@! TO.C,U101*
X80605000Y-86825850D03*
X79335000Y-86825850D03*
X78065000Y-86825850D03*
X76795000Y-86825850D03*
X76795000Y-92274150D03*
X78065000Y-92274150D03*
X79335000Y-92274150D03*
X80605000Y-92274150D03*
G04 #@! TD*
D12*
G04 #@! TO.C,R603*
X173550000Y-111625000D03*
X173550000Y-109975000D03*
G04 #@! TD*
G04 #@! TO.C,R201*
X99550000Y-115375000D03*
X99550000Y-113725000D03*
G04 #@! TD*
D34*
G04 #@! TO.C,C105*
X83050000Y-105525000D03*
X83050000Y-107075000D03*
G04 #@! TD*
D19*
G04 #@! TO.C,U601*
X169650001Y-120891400D03*
X170300000Y-120891400D03*
X170949999Y-120891400D03*
X170949999Y-118808600D03*
X169650001Y-118808600D03*
G04 #@! TD*
D18*
G04 #@! TO.C,C402*
X130325000Y-117300000D03*
X128775000Y-117300000D03*
G04 #@! TD*
G04 #@! TO.C,C702*
X185825000Y-117300000D03*
X184275000Y-117300000D03*
G04 #@! TD*
D27*
G04 #@! TO.C,C806*
X206525000Y-96050000D03*
X208075000Y-96050000D03*
G04 #@! TD*
D19*
G04 #@! TO.C,U302*
X114150001Y-116341400D03*
X114800000Y-116341400D03*
X115449999Y-116341400D03*
X115449999Y-114258600D03*
X114150001Y-114258600D03*
G04 #@! TD*
G04 #@! TO.C,U901*
X225150001Y-120891400D03*
X225800000Y-120891400D03*
X226449999Y-120891400D03*
X226449999Y-118808600D03*
X225150001Y-118808600D03*
G04 #@! TD*
D13*
G04 #@! TO.C,U704*
X183264000Y-87500000D03*
D14*
X185550000Y-81000000D03*
D13*
X187836000Y-87500000D03*
G04 #@! TD*
D26*
G04 #@! TO.C,R405*
X134637500Y-91050000D03*
X136462500Y-91050000D03*
G04 #@! TD*
D18*
G04 #@! TO.C,C502*
X148825000Y-117300000D03*
X147275000Y-117300000D03*
G04 #@! TD*
D27*
G04 #@! TO.C,C103*
X81025000Y-94450000D03*
X82575000Y-94450000D03*
G04 #@! TD*
D13*
G04 #@! TO.C,U905*
X229514000Y-87450000D03*
D14*
X231800000Y-80950000D03*
D13*
X234086000Y-87450000D03*
G04 #@! TD*
D12*
G04 #@! TO.C,R801*
X210550000Y-115375000D03*
X210550000Y-113725000D03*
G04 #@! TD*
D31*
G04 #@! TO.C,R204*
X95462500Y-91050000D03*
X93637500Y-91050000D03*
G04 #@! TD*
D15*
G04 #@! TO.C,U403*
X132030000Y-109184800D03*
X133300000Y-109184800D03*
X134570000Y-109184800D03*
X134570000Y-98415200D03*
X133300000Y-98415200D03*
X132030000Y-98415200D03*
G04 #@! TD*
D13*
G04 #@! TO.C,U804*
X201764000Y-87500000D03*
D14*
X204050000Y-81000000D03*
D13*
X206336000Y-87500000D03*
G04 #@! TD*
D28*
G04 #@! TO.C,R202*
X96875000Y-111800000D03*
X95225000Y-111800000D03*
G04 #@! TD*
D15*
G04 #@! TO.C,U703*
X187530000Y-109184800D03*
X188800000Y-109184800D03*
X190070000Y-109184800D03*
X190070000Y-98415200D03*
X188800000Y-98415200D03*
X187530000Y-98415200D03*
G04 #@! TD*
D31*
G04 #@! TO.C,R604*
X169462500Y-91050000D03*
X167637500Y-91050000D03*
G04 #@! TD*
D21*
G04 #@! TO.C,J103*
X87180000Y-124100000D03*
D22*
X84640000Y-124100000D03*
X82100000Y-124100000D03*
X79560000Y-124100000D03*
X77020000Y-124100000D03*
X74480000Y-124100000D03*
X71940000Y-124100000D03*
X69400000Y-124100000D03*
X66860000Y-124100000D03*
G04 #@! TD*
D16*
G04 #@! TO.C,LED901*
X229050000Y-117328500D03*
X229050000Y-118471500D03*
G04 #@! TD*
D13*
G04 #@! TO.C,U204*
X90764000Y-87500000D03*
D14*
X93050000Y-81000000D03*
D13*
X95336000Y-87500000D03*
G04 #@! TD*
D20*
G04 #@! TO.C,RS103*
X130050000Y-62837500D03*
X130050000Y-68762500D03*
G04 #@! TD*
D18*
G04 #@! TO.C,C701*
X185825000Y-119300000D03*
X184275000Y-119300000D03*
G04 #@! TD*
G04 #@! TO.C,C301*
X111825000Y-119300000D03*
X110275000Y-119300000D03*
G04 #@! TD*
D19*
G04 #@! TO.C,U201*
X95650001Y-120891400D03*
X96300000Y-120891400D03*
X96949999Y-120891400D03*
X96949999Y-118808600D03*
X95650001Y-118808600D03*
G04 #@! TD*
D12*
G04 #@! TO.C,R601*
X173550000Y-115375000D03*
X173550000Y-113725000D03*
G04 #@! TD*
D15*
G04 #@! TO.C,U903*
X224530000Y-109184800D03*
X225800000Y-109184800D03*
X227070000Y-109184800D03*
X227070000Y-98415200D03*
X225800000Y-98415200D03*
X224530000Y-98415200D03*
G04 #@! TD*
D28*
G04 #@! TO.C,R802*
X207875000Y-111800000D03*
X206225000Y-111800000D03*
G04 #@! TD*
D12*
G04 #@! TO.C,R701*
X192050000Y-115375000D03*
X192050000Y-113725000D03*
G04 #@! TD*
D18*
G04 #@! TO.C,C804*
X204325000Y-113300000D03*
X202775000Y-113300000D03*
G04 #@! TD*
D35*
G04 #@! TO.C,J101*
X85840000Y-78037500D03*
X85840000Y-69337500D03*
X80760000Y-78037500D03*
X80760000Y-69337500D03*
G04 #@! TD*
D12*
G04 #@! TO.C,R903*
X229050000Y-111625000D03*
X229050000Y-109975000D03*
G04 #@! TD*
D18*
G04 #@! TO.C,C404*
X130325000Y-113300000D03*
X128775000Y-113300000D03*
G04 #@! TD*
D23*
G04 #@! TO.C,C505*
X150325000Y-93800000D03*
X153275000Y-93800000D03*
G04 #@! TD*
D13*
G04 #@! TO.C,U805*
X211014000Y-87450000D03*
D14*
X213300000Y-80950000D03*
D13*
X215586000Y-87450000D03*
G04 #@! TD*
D23*
G04 #@! TO.C,C305*
X113325000Y-93800000D03*
X116275000Y-93800000D03*
G04 #@! TD*
D27*
G04 #@! TO.C,C107*
X77275000Y-99300000D03*
X78825000Y-99300000D03*
G04 #@! TD*
D36*
G04 #@! TO.C,U102*
X85100001Y-107550000D03*
X86050002Y-107550000D03*
X87000000Y-107550000D03*
X87000000Y-105000000D03*
X85100001Y-105000000D03*
G04 #@! TD*
D28*
G04 #@! TO.C,R502*
X152375000Y-111800000D03*
X150725000Y-111800000D03*
G04 #@! TD*
D12*
G04 #@! TO.C,R401*
X136550000Y-115375000D03*
X136550000Y-113725000D03*
G04 #@! TD*
D23*
G04 #@! TO.C,C405*
X131825000Y-93800000D03*
X134775000Y-93800000D03*
G04 #@! TD*
D18*
G04 #@! TO.C,C703*
X185825000Y-115300000D03*
X184275000Y-115300000D03*
G04 #@! TD*
G04 #@! TO.C,C101*
X86825000Y-109300000D03*
X85275000Y-109300000D03*
G04 #@! TD*
D28*
G04 #@! TO.C,R602*
X170875000Y-111800000D03*
X169225000Y-111800000D03*
G04 #@! TD*
G04 #@! TO.C,R302*
X115375000Y-111800000D03*
X113725000Y-111800000D03*
G04 #@! TD*
D23*
G04 #@! TO.C,C205*
X94825000Y-93800000D03*
X97775000Y-93800000D03*
G04 #@! TD*
D19*
G04 #@! TO.C,U401*
X132650001Y-120891400D03*
X133300000Y-120891400D03*
X133949999Y-120891400D03*
X133949999Y-118808600D03*
X132650001Y-118808600D03*
G04 #@! TD*
D12*
G04 #@! TO.C,R503*
X155050000Y-111625000D03*
X155050000Y-109975000D03*
G04 #@! TD*
D31*
G04 #@! TO.C,R904*
X224962500Y-91050000D03*
X223137500Y-91050000D03*
G04 #@! TD*
D11*
G04 #@! TO.C,D101*
X89300000Y-107450000D03*
X89300000Y-105150000D03*
G04 #@! TD*
D23*
G04 #@! TO.C,C605*
X168825000Y-93800000D03*
X171775000Y-93800000D03*
G04 #@! TD*
D19*
G04 #@! TO.C,U701*
X188150001Y-120891400D03*
X188800000Y-120891400D03*
X189449999Y-120891400D03*
X189449999Y-118808600D03*
X188150001Y-118808600D03*
G04 #@! TD*
D18*
G04 #@! TO.C,C204*
X93325000Y-113300000D03*
X91775000Y-113300000D03*
G04 #@! TD*
G04 #@! TO.C,C802*
X204325000Y-117300000D03*
X202775000Y-117300000D03*
G04 #@! TD*
D20*
G04 #@! TO.C,RS105*
X167050000Y-62837500D03*
X167050000Y-68762500D03*
G04 #@! TD*
D13*
G04 #@! TO.C,U505*
X155514000Y-87450000D03*
D14*
X157800000Y-80950000D03*
D13*
X160086000Y-87450000D03*
G04 #@! TD*
D37*
G04 #@! TO.C,C104*
X80550000Y-104825000D03*
X80550000Y-107775000D03*
G04 #@! TD*
D18*
G04 #@! TO.C,C902*
X222825000Y-117300000D03*
X221275000Y-117300000D03*
G04 #@! TD*
G04 #@! TO.C,C801*
X204325000Y-119300000D03*
X202775000Y-119300000D03*
G04 #@! TD*
D19*
G04 #@! TO.C,U602*
X169650001Y-116341400D03*
X170300000Y-116341400D03*
X170949999Y-116341400D03*
X170949999Y-114258600D03*
X169650001Y-114258600D03*
G04 #@! TD*
D20*
G04 #@! TO.C,RS107*
X204050000Y-62837500D03*
X204050000Y-68762500D03*
G04 #@! TD*
D18*
G04 #@! TO.C,C203*
X93325000Y-115300000D03*
X91775000Y-115300000D03*
G04 #@! TD*
G04 #@! TO.C,C201*
X93325000Y-119300000D03*
X91775000Y-119300000D03*
G04 #@! TD*
D31*
G04 #@! TO.C,R504*
X150962500Y-91050000D03*
X149137500Y-91050000D03*
G04 #@! TD*
D27*
G04 #@! TO.C,C206*
X95525000Y-96050000D03*
X97075000Y-96050000D03*
G04 #@! TD*
D18*
G04 #@! TO.C,C603*
X167325000Y-115300000D03*
X165775000Y-115300000D03*
G04 #@! TD*
D13*
G04 #@! TO.C,U304*
X109264000Y-87500000D03*
D14*
X111550000Y-81000000D03*
D13*
X113836000Y-87500000D03*
G04 #@! TD*
D12*
G04 #@! TO.C,R403*
X136550000Y-111625000D03*
X136550000Y-109975000D03*
G04 #@! TD*
D16*
G04 #@! TO.C,LED501*
X155050000Y-117328500D03*
X155050000Y-118471500D03*
G04 #@! TD*
D20*
G04 #@! TO.C,RS108*
X222550000Y-62837500D03*
X222550000Y-68762500D03*
G04 #@! TD*
D27*
G04 #@! TO.C,C406*
X132525000Y-96050000D03*
X134075000Y-96050000D03*
G04 #@! TD*
D16*
G04 #@! TO.C,LED801*
X210550000Y-117328500D03*
X210550000Y-118471500D03*
G04 #@! TD*
D18*
G04 #@! TO.C,C604*
X167325000Y-113300000D03*
X165775000Y-113300000D03*
G04 #@! TD*
D31*
G04 #@! TO.C,R304*
X113962500Y-91050000D03*
X112137500Y-91050000D03*
G04 #@! TD*
D16*
G04 #@! TO.C,LED201*
X99550000Y-117328500D03*
X99550000Y-118471500D03*
G04 #@! TD*
D18*
G04 #@! TO.C,C602*
X167325000Y-117300000D03*
X165775000Y-117300000D03*
G04 #@! TD*
D27*
G04 #@! TO.C,C106*
X78625000Y-111450000D03*
X80175000Y-111450000D03*
G04 #@! TD*
G04 #@! TO.C,C306*
X114025000Y-96050000D03*
X115575000Y-96050000D03*
G04 #@! TD*
M02*
